G04*
G04 #@! TF.GenerationSoftware,Altium Limited,Altium Designer,25.2.1 (25)*
G04*
G04 Layer_Color=8421504*
%FSLAX44Y44*%
%MOMM*%
G71*
G04*
G04 #@! TF.SameCoordinates,2B517493-A32E-4929-9694-E162711A69F2*
G04*
G04*
G04 #@! TF.FilePolarity,Positive*
G04*
G01*
G75*
%ADD13R,1.5500X0.6000*%
%ADD14R,1.6000X0.9000*%
%ADD15O,1.0000X2.2000*%
G04:AMPARAMS|DCode=16|XSize=1mm|YSize=1mm|CornerRadius=0.25mm|HoleSize=0mm|Usage=FLASHONLY|Rotation=270.000|XOffset=0mm|YOffset=0mm|HoleType=Round|Shape=RoundedRectangle|*
%AMROUNDEDRECTD16*
21,1,1.0000,0.5000,0,0,270.0*
21,1,0.5000,1.0000,0,0,270.0*
1,1,0.5000,-0.2500,-0.2500*
1,1,0.5000,-0.2500,0.2500*
1,1,0.5000,0.2500,0.2500*
1,1,0.5000,0.2500,-0.2500*
%
%ADD16ROUNDEDRECTD16*%
%ADD17R,0.9000X1.6000*%
%ADD18R,3.0000X1.5000*%
%ADD19O,3.0000X2.0000*%
D13*
X633400Y869950D02*
D03*
Y857250D02*
D03*
Y844550D02*
D03*
Y831850D02*
D03*
X687400Y869950D02*
D03*
Y857250D02*
D03*
Y844550D02*
D03*
Y831850D02*
D03*
D14*
X460000Y730500D02*
D03*
Y759500D02*
D03*
X20000Y730500D02*
D03*
Y759500D02*
D03*
X390000Y831000D02*
D03*
Y860000D02*
D03*
X290000Y831000D02*
D03*
Y860000D02*
D03*
X190000Y831000D02*
D03*
Y860000D02*
D03*
X90000D02*
D03*
Y831000D02*
D03*
X205000Y630500D02*
D03*
Y659500D02*
D03*
X20000Y480500D02*
D03*
Y509500D02*
D03*
X460000Y480500D02*
D03*
Y509500D02*
D03*
X205000Y609500D02*
D03*
Y580500D02*
D03*
X275000Y609500D02*
D03*
Y580500D02*
D03*
Y659500D02*
D03*
Y630500D02*
D03*
X20000Y259500D02*
D03*
Y230500D02*
D03*
X460000Y259500D02*
D03*
Y230500D02*
D03*
D15*
X175000Y890000D02*
D03*
X205000D02*
D03*
X75000D02*
D03*
X105000D02*
D03*
X405000D02*
D03*
X375000D02*
D03*
X305000D02*
D03*
X275000D02*
D03*
D16*
X190000Y875000D02*
D03*
X90000D02*
D03*
X390000D02*
D03*
X290000D02*
D03*
D17*
X225500Y620000D02*
D03*
X254500D02*
D03*
X195500Y370000D02*
D03*
X224500D02*
D03*
X195500Y120000D02*
D03*
X224500D02*
D03*
D18*
X450000Y592000D02*
D03*
Y648000D02*
D03*
X30000D02*
D03*
Y592000D02*
D03*
Y148000D02*
D03*
Y92000D02*
D03*
Y398000D02*
D03*
Y342000D02*
D03*
X450000Y92000D02*
D03*
Y148000D02*
D03*
Y398000D02*
D03*
Y342000D02*
D03*
D19*
Y620000D02*
D03*
X30000D02*
D03*
Y120000D02*
D03*
Y370000D02*
D03*
X450000Y120000D02*
D03*
Y370000D02*
D03*
M02*
