G04*
G04 #@! TF.GenerationSoftware,Altium Limited,Altium Designer,25.2.1 (25)*
G04*
G04 Layer_Color=16711935*
%FSLAX44Y44*%
%MOMM*%
G71*
G04*
G04 #@! TF.SameCoordinates,CB1AC442-E6EB-47D2-834D-EDC078858926*
G04*
G04*
G04 #@! TF.FilePolarity,Positive*
G04*
G01*
G75*
%ADD11C,0.2540*%
%ADD64C,0.3000*%
D11*
X480000Y110000D02*
X500000D01*
X480000Y20000D02*
Y110000D01*
Y20000D02*
X500000D01*
Y110000D01*
X480000Y230000D02*
X500000D01*
X480000Y120000D02*
Y230000D01*
Y120000D02*
X500000D01*
Y230000D01*
X480000Y360000D02*
X500000D01*
X480000Y260000D02*
Y360000D01*
Y260000D02*
X500000D01*
Y360000D01*
X480000Y480000D02*
X500000D01*
X480000Y370000D02*
Y480000D01*
Y370000D02*
X500000D01*
Y480000D01*
X480000Y610000D02*
X500000D01*
X480000Y510000D02*
Y610000D01*
Y510000D02*
X500000D01*
Y610000D01*
X480000Y730000D02*
X500000D01*
X480000Y620000D02*
Y730000D01*
Y620000D02*
X500000D01*
Y730000D01*
X480000Y760000D02*
Y860000D01*
Y760000D02*
X500000D01*
Y860000D01*
X480000D02*
X500000D01*
X480000Y870000D02*
Y970000D01*
Y870000D02*
X500000D01*
Y970000D01*
X480000D02*
X500000D01*
D64*
X-0Y990000D02*
X0Y0D01*
X990000Y990000D02*
X990000Y0D01*
X-0Y990000D02*
X990000D01*
X0Y0D02*
X990000D01*
M02*
