G04*
G04 #@! TF.GenerationSoftware,Altium Limited,Altium Designer,25.2.1 (25)*
G04*
G04 Layer_Color=65535*
%FSLAX44Y44*%
%MOMM*%
G71*
G04*
G04 #@! TF.SameCoordinates,CB1AC442-E6EB-47D2-834D-EDC078858926*
G04*
G04*
G04 #@! TF.FilePolarity,Positive*
G04*
G01*
G75*
%ADD10C,0.2000*%
%ADD11C,0.2540*%
%ADD12C,0.2500*%
D10*
X657225Y874900D02*
G03*
X663575Y874900I3175J0D01*
G01*
X651400Y869900D02*
G03*
X651400Y869900I-1000J0D01*
G01*
X181809Y884265D02*
G03*
X185001Y881341I8191J5736D01*
G01*
X194999D02*
G03*
X198191Y884265I-5000J8660D01*
G01*
X180999Y904000D02*
G03*
X177168Y902214I0J-5001D01*
G01*
X202830D02*
G03*
X198999Y904000I-3831J-3215D01*
G01*
Y875998D02*
G03*
X202830Y877785I0J5001D01*
G01*
X177168D02*
G03*
X180999Y875998I3831J3215D01*
G01*
X198191Y895735D02*
G03*
X181808Y895735I-8191J-5736D01*
G01*
X192000Y890000D02*
G03*
X192000Y890000I-2000J0D01*
G01*
X81809Y884265D02*
G03*
X85001Y881341I8191J5736D01*
G01*
X94999D02*
G03*
X98191Y884265I-5000J8660D01*
G01*
X80999Y904000D02*
G03*
X77168Y902214I0J-5001D01*
G01*
X102830D02*
G03*
X98999Y904000I-3831J-3215D01*
G01*
Y875998D02*
G03*
X102830Y877785I0J5001D01*
G01*
X77168D02*
G03*
X80999Y875998I3831J3215D01*
G01*
X98191Y895735D02*
G03*
X81808Y895735I-8191J-5736D01*
G01*
X92000Y890000D02*
G03*
X92000Y890000I-2000J0D01*
G01*
X445000Y632000D02*
G03*
X445000Y608000I0J-12000D01*
G01*
X35000D02*
G03*
X35000Y632000I0J12000D01*
G01*
Y108000D02*
G03*
X35000Y132000I0J12000D01*
G01*
X392000Y890000D02*
G03*
X392000Y890000I-2000J0D01*
G01*
X398191Y895735D02*
G03*
X381808Y895735I-8191J-5736D01*
G01*
X377168Y877785D02*
G03*
X380999Y875998I3831J3215D01*
G01*
X398999D02*
G03*
X402830Y877785I0J5001D01*
G01*
Y902214D02*
G03*
X398999Y904000I-3831J-3215D01*
G01*
X380999D02*
G03*
X377168Y902214I0J-5001D01*
G01*
X394999Y881341D02*
G03*
X398191Y884265I-5000J8660D01*
G01*
X381809D02*
G03*
X385001Y881341I8191J5736D01*
G01*
X292000Y890000D02*
G03*
X292000Y890000I-2000J0D01*
G01*
X298191Y895735D02*
G03*
X281808Y895735I-8191J-5736D01*
G01*
X277168Y877785D02*
G03*
X280999Y875998I3831J3215D01*
G01*
X298999D02*
G03*
X302830Y877785I0J5001D01*
G01*
Y902214D02*
G03*
X298999Y904000I-3831J-3215D01*
G01*
X280999D02*
G03*
X277168Y902214I0J-5001D01*
G01*
X294999Y881341D02*
G03*
X298191Y884265I-5000J8660D01*
G01*
X281809D02*
G03*
X285001Y881341I8191J5736D01*
G01*
X35000Y358000D02*
G03*
X35000Y382000I0J12000D01*
G01*
X445000Y132000D02*
G03*
X445000Y108000I0J-12000D01*
G01*
Y382000D02*
G03*
X445000Y358000I0J-12000D01*
G01*
X663575Y874900D02*
X675400D01*
Y826900D02*
Y874900D01*
X645400D02*
X657225D01*
X645400Y826900D02*
Y874900D01*
Y826900D02*
X675400D01*
X180999Y904000D02*
X182999D01*
X180999Y875998D02*
X182999D01*
Y904000D02*
X198999D01*
X196999Y875998D02*
X198999D01*
X80999Y904000D02*
X82999D01*
X80999Y875998D02*
X82999D01*
Y904000D02*
X98999D01*
X96999Y875998D02*
X98999D01*
X445000Y632000D02*
X456000Y632000D01*
X445000Y608000D02*
X456000Y608000D01*
X24000Y608000D02*
X35000Y608000D01*
X24000Y632000D02*
X35000Y632000D01*
X24000Y108000D02*
X35000Y108000D01*
X24000Y132000D02*
X35000Y132000D01*
X396999Y875998D02*
X398999D01*
X382999Y904000D02*
X398999D01*
X380999Y875998D02*
X382999D01*
X380999Y904000D02*
X382999D01*
X296999Y875998D02*
X298999D01*
X282999Y904000D02*
X298999D01*
X280999Y875998D02*
X282999D01*
X280999Y904000D02*
X282999D01*
X24000Y358000D02*
X35000Y358000D01*
X24000Y382000D02*
X35000Y382000D01*
X445000Y132000D02*
X456000Y132000D01*
X445000Y108000D02*
X456000Y108000D01*
X445000Y358000D02*
X456000Y358000D01*
X445000Y382000D02*
X456000Y382000D01*
D11*
X596900Y292100D02*
X901700D01*
X899160Y317500D02*
X901700D01*
X596900Y342900D02*
X901700D01*
X596900Y317500D02*
Y342900D01*
Y317500D02*
X599440D01*
X596900Y469900D02*
X901700D01*
Y495300D01*
X899160D02*
X901700D01*
X899160D02*
X901700D01*
Y520700D01*
X596900D02*
X901700D01*
X596900Y495300D02*
Y520700D01*
Y495300D02*
X599440D01*
X596900Y647700D02*
X901700D01*
X899160Y673100D02*
X901700D01*
Y698500D01*
X596900D02*
X901700D01*
X596900Y673100D02*
Y698500D01*
Y673100D02*
X599440D01*
X749300Y899160D02*
Y901700D01*
X723900Y800100D02*
Y901700D01*
Y774700D02*
Y800100D01*
X721360Y774700D02*
X723900D01*
X749300Y800100D02*
Y802640D01*
X596900Y800100D02*
X749300D01*
X596900Y774700D02*
X599440D01*
X596900Y901700D02*
X901700D01*
X927100Y924560D02*
Y927100D01*
X899160D02*
X927100D01*
X899160D02*
X901700D01*
Y88900D02*
Y927100D01*
X927100Y63500D02*
Y66040D01*
X899160Y63500D02*
X927100D01*
X899160D02*
X901700D01*
Y88900D01*
X596900D02*
X901700D01*
X596900Y63500D02*
X599440D01*
X571500D02*
Y66040D01*
Y63500D02*
X596900D01*
Y927100D01*
X571500D02*
X599440D01*
X571500Y924560D02*
Y927100D01*
X599440Y63500D02*
X899160D01*
X571500Y66040D02*
Y924560D01*
X599440Y927100D02*
X899160D01*
X927100Y66040D02*
Y924560D01*
X749300Y896620D02*
Y899160D01*
Y802640D02*
Y896620D01*
X599440Y774700D02*
X721360D01*
X599440Y317500D02*
X899160D01*
X599440Y495300D02*
X899160D01*
X599440Y673100D02*
X899160D01*
X449000Y767000D02*
X471000D01*
X449000Y723000D02*
X471000D01*
X449000D02*
Y735000D01*
X471000Y723000D02*
Y735000D01*
Y756000D02*
Y767000D01*
X449000Y755000D02*
Y767000D01*
X9000D02*
X31000D01*
X9000Y723000D02*
X31000D01*
X9000D02*
Y735000D01*
X31000Y723000D02*
Y735000D01*
Y756000D02*
Y767000D01*
X9000Y755000D02*
Y767000D01*
X401000Y823500D02*
Y835500D01*
X379000Y823500D02*
Y834500D01*
Y855500D02*
Y867500D01*
X401000Y855500D02*
Y867500D01*
X379000D02*
X401000D01*
X379000Y823500D02*
X401000D01*
X301000D02*
Y835500D01*
X279000Y823500D02*
Y834500D01*
Y855500D02*
Y867500D01*
X301000Y855500D02*
Y867500D01*
X279000D02*
X301000D01*
X279000Y823500D02*
X301000D01*
X179000Y867500D02*
X201000D01*
X179000Y823500D02*
X201000D01*
X179000D02*
Y835500D01*
X201000Y823500D02*
Y835500D01*
Y856500D02*
Y867500D01*
X179000Y855500D02*
Y867500D01*
X79000Y823500D02*
X101000D01*
X79000Y867500D02*
X101000D01*
Y855500D02*
Y867500D01*
X79000Y855500D02*
Y867500D01*
Y823500D02*
Y834500D01*
X101000Y823500D02*
Y835500D01*
X216000Y623000D02*
Y635000D01*
X194000Y623000D02*
Y634000D01*
Y655000D02*
Y667000D01*
X216000Y655000D02*
Y667000D01*
X194000D02*
X216000D01*
X194000Y623000D02*
X216000D01*
X218000Y609000D02*
X230000D01*
X218000Y631000D02*
X229000D01*
X250000D02*
X262000D01*
X250000Y609000D02*
X262000D01*
Y631000D01*
X218000Y609000D02*
Y631000D01*
X9000Y517000D02*
X31000D01*
X9000Y473000D02*
X31000D01*
X9000D02*
Y485000D01*
X31000Y473000D02*
Y485000D01*
Y506000D02*
Y517000D01*
X9000Y505000D02*
Y517000D01*
X449000D02*
X471000D01*
X449000Y473000D02*
X471000D01*
X449000D02*
Y485000D01*
X471000Y473000D02*
Y485000D01*
Y506000D02*
Y517000D01*
X449000Y505000D02*
Y517000D01*
X194000Y573000D02*
X216000D01*
X194000Y617000D02*
X216000D01*
Y605000D02*
Y617000D01*
X194000Y605000D02*
Y617000D01*
Y573000D02*
Y584000D01*
X216000Y573000D02*
Y585000D01*
X264000Y573000D02*
X286000D01*
X264000Y617000D02*
X286000D01*
Y605000D02*
Y617000D01*
X264000Y605000D02*
Y617000D01*
Y573000D02*
Y584000D01*
X286000Y573000D02*
Y585000D01*
X264000Y623000D02*
X286000D01*
X264000Y667000D02*
X286000D01*
Y655000D02*
Y667000D01*
X264000Y655000D02*
Y667000D01*
Y623000D02*
Y634000D01*
X286000Y623000D02*
Y635000D01*
X188000Y359000D02*
X200000D01*
X188000Y381000D02*
X199000D01*
X220000D02*
X232000D01*
X220000Y359000D02*
X232000D01*
Y381000D01*
X188000Y359000D02*
Y381000D01*
Y109000D02*
X200000D01*
X188000Y131000D02*
X199000D01*
X220000D02*
X232000D01*
X220000Y109000D02*
X232000D01*
Y131000D01*
X188000Y109000D02*
Y131000D01*
X9000Y255000D02*
Y267000D01*
X31000Y256000D02*
Y267000D01*
Y223000D02*
Y235000D01*
X9000Y223000D02*
Y235000D01*
Y223000D02*
X31000D01*
X9000Y267000D02*
X31000D01*
X449000Y255000D02*
Y267000D01*
X471000Y256000D02*
Y267000D01*
Y223000D02*
Y235000D01*
X449000Y223000D02*
Y235000D01*
Y223000D02*
X471000D01*
X449000Y267000D02*
X471000D01*
X272697Y195236D02*
X270158Y197775D01*
X265079D01*
X262540Y195236D01*
Y192697D01*
X265079Y190158D01*
X270158D01*
X272697Y187618D01*
Y185079D01*
X270158Y182540D01*
X265079D01*
X262540Y185079D01*
X277775Y197775D02*
Y182540D01*
Y190158D01*
X287932D01*
Y197775D01*
Y182540D01*
X300628Y197775D02*
X295549D01*
X293010Y195236D01*
Y185079D01*
X295549Y182540D01*
X300628D01*
X303167Y185079D01*
Y195236D01*
X300628Y197775D01*
X308245Y182540D02*
Y197775D01*
X315863D01*
X318402Y195236D01*
Y190158D01*
X315863Y187618D01*
X308245D01*
X313324D02*
X318402Y182540D01*
X323480Y197775D02*
X333637D01*
X328559D01*
Y182540D01*
X270158Y447775D02*
X265079D01*
X262540Y445236D01*
Y435079D01*
X265079Y432540D01*
X270158D01*
X272697Y435079D01*
Y445236D01*
X270158Y447775D01*
X277775Y432540D02*
Y447775D01*
X285393D01*
X287932Y445236D01*
Y440158D01*
X285393Y437618D01*
X277775D01*
X303167Y447775D02*
X293010D01*
Y432540D01*
X303167D01*
X293010Y440158D02*
X298088D01*
X308245Y432540D02*
Y447775D01*
X318402Y432540D01*
Y447775D01*
X650243Y896618D02*
Y883922D01*
X652783Y881383D01*
X657861D01*
X660400Y883922D01*
Y896618D01*
X665478Y881383D02*
X670557D01*
X668018D01*
Y896618D01*
X665478Y894078D01*
X417304Y737383D02*
Y752617D01*
X424922D01*
X427461Y750078D01*
Y745000D01*
X424922Y742461D01*
X417304D01*
X422383D02*
X427461Y737383D01*
X442696Y752617D02*
X437617Y750078D01*
X432539Y745000D01*
Y739922D01*
X435078Y737383D01*
X440157D01*
X442696Y739922D01*
Y742461D01*
X440157Y745000D01*
X432539D01*
X37304Y737383D02*
Y752617D01*
X44922D01*
X47461Y750078D01*
Y745000D01*
X44922Y742461D01*
X37304D01*
X42382D02*
X47461Y737383D01*
X62696Y752617D02*
X52539D01*
Y745000D01*
X57618Y747539D01*
X60157D01*
X62696Y745000D01*
Y739922D01*
X60157Y737383D01*
X55078D01*
X52539Y739922D01*
X164608Y935078D02*
X162069Y937617D01*
X156991D01*
X154452Y935078D01*
Y932539D01*
X156991Y930000D01*
X162069D01*
X164608Y927461D01*
Y924922D01*
X162069Y922383D01*
X156991D01*
X154452Y924922D01*
X169687Y937617D02*
Y922383D01*
Y930000D01*
X179843D01*
Y937617D01*
Y922383D01*
X192539Y937617D02*
X187461D01*
X184922Y935078D01*
Y924922D01*
X187461Y922383D01*
X192539D01*
X195078Y924922D01*
Y935078D01*
X192539Y937617D01*
X200157Y922383D02*
Y937617D01*
X207774D01*
X210313Y935078D01*
Y930000D01*
X207774Y927461D01*
X200157D01*
X205235D02*
X210313Y922383D01*
X215392Y937617D02*
X225548D01*
X220470D01*
Y922383D01*
X69687Y937617D02*
X64608D01*
X62069Y935078D01*
Y924922D01*
X64608Y922383D01*
X69687D01*
X72226Y924922D01*
Y935078D01*
X69687Y937617D01*
X77304Y922383D02*
Y937617D01*
X84922D01*
X87461Y935078D01*
Y930000D01*
X84922Y927461D01*
X77304D01*
X102696Y937617D02*
X92539D01*
Y922383D01*
X102696D01*
X92539Y930000D02*
X97618D01*
X107774Y922383D02*
Y937617D01*
X117931Y922383D01*
Y937617D01*
X412304Y487383D02*
Y502617D01*
X419922D01*
X422461Y500078D01*
Y495000D01*
X419922Y492461D01*
X412304D01*
X417383D02*
X422461Y487383D01*
X435157D02*
Y502617D01*
X427539Y495000D01*
X437696D01*
X42304Y487383D02*
Y502617D01*
X49922D01*
X52461Y500078D01*
Y495000D01*
X49922Y492461D01*
X42304D01*
X47382D02*
X52461Y487383D01*
X57539Y500078D02*
X60078Y502617D01*
X65157D01*
X67696Y500078D01*
Y497539D01*
X65157Y495000D01*
X62618D01*
X65157D01*
X67696Y492461D01*
Y489922D01*
X65157Y487383D01*
X60078D01*
X57539Y489922D01*
X427461Y697617D02*
X422383D01*
X424922D01*
Y684922D01*
X422383Y682383D01*
X419843D01*
X417304Y684922D01*
X442696Y697617D02*
X432539D01*
Y690000D01*
X437617Y692539D01*
X440157D01*
X442696Y690000D01*
Y684922D01*
X440157Y682383D01*
X435078D01*
X432539Y684922D01*
X47461Y697617D02*
X42382D01*
X44922D01*
Y684922D01*
X42382Y682383D01*
X39843D01*
X37304Y684922D01*
X62696Y697617D02*
X57618Y695078D01*
X52539Y690000D01*
Y684922D01*
X55078Y682383D01*
X60157D01*
X62696Y684922D01*
Y687461D01*
X60157Y690000D01*
X52539D01*
X212069Y697617D02*
X222226D01*
X217147D01*
Y682383D01*
X227304Y697617D02*
Y682383D01*
Y690000D01*
X237461D01*
Y697617D01*
Y682383D01*
X242539D02*
Y697617D01*
X250157D01*
X252696Y695078D01*
Y690000D01*
X250157Y687461D01*
X242539D01*
X247617D02*
X252696Y682383D01*
X257774Y697617D02*
Y684922D01*
X260313Y682383D01*
X265392D01*
X267931Y684922D01*
Y697617D01*
X262069Y937617D02*
Y922383D01*
X272226D01*
X284922Y937617D02*
X279843D01*
X277304Y935078D01*
Y924922D01*
X279843Y922383D01*
X284922D01*
X287461Y924922D01*
Y935078D01*
X284922Y937617D01*
X292539Y922383D02*
Y932539D01*
X297617Y937617D01*
X302696Y932539D01*
Y922383D01*
Y930000D01*
X292539D01*
X307774Y937617D02*
Y922383D01*
X315392D01*
X317931Y924922D01*
Y935078D01*
X315392Y937617D01*
X307774D01*
X369687D02*
Y922383D01*
X377304D01*
X379843Y924922D01*
Y935078D01*
X377304Y937617D01*
X369687D01*
X384922D02*
Y924922D01*
X387461Y922383D01*
X392539D01*
X395078Y924922D01*
Y937617D01*
X400157D02*
X410313D01*
X405235D01*
Y922383D01*
X39843Y237383D02*
Y252617D01*
X47461D01*
X50000Y250078D01*
Y245000D01*
X47461Y242461D01*
X39843D01*
X44922D02*
X50000Y237383D01*
X55078D02*
X60157D01*
X57618D01*
Y252617D01*
X55078Y250078D01*
X412304Y237383D02*
Y252617D01*
X419922D01*
X422461Y250078D01*
Y245000D01*
X419922Y242461D01*
X412304D01*
X417383D02*
X422461Y237383D01*
X437696D02*
X427539D01*
X437696Y247539D01*
Y250078D01*
X435157Y252617D01*
X430078D01*
X427539Y250078D01*
X172069Y447617D02*
Y432383D01*
X182226D01*
X194922Y447617D02*
X189843D01*
X187304Y445078D01*
Y434922D01*
X189843Y432383D01*
X194922D01*
X197461Y434922D01*
Y445078D01*
X194922Y447617D01*
X202539Y432383D02*
Y442539D01*
X207617Y447617D01*
X212696Y442539D01*
Y432383D01*
Y440000D01*
X202539D01*
X217774Y447617D02*
Y432383D01*
X225392D01*
X227931Y434922D01*
Y445078D01*
X225392Y447617D01*
X217774D01*
X179687Y197617D02*
Y182383D01*
X187304D01*
X189843Y184922D01*
Y195078D01*
X187304Y197617D01*
X179687D01*
X194922D02*
Y184922D01*
X197461Y182383D01*
X202539D01*
X205078Y184922D01*
Y197617D01*
X210157D02*
X220313D01*
X215235D01*
Y182383D01*
X47461Y447617D02*
X42382D01*
X44922D01*
Y434922D01*
X42382Y432383D01*
X39843D01*
X37304Y434922D01*
X52539Y445078D02*
X55078Y447617D01*
X60157D01*
X62696Y445078D01*
Y442539D01*
X60157Y440000D01*
X57618D01*
X60157D01*
X62696Y437461D01*
Y434922D01*
X60157Y432383D01*
X55078D01*
X52539Y434922D01*
X430000Y447617D02*
X424922D01*
X427461D01*
Y434922D01*
X424922Y432383D01*
X422383D01*
X419843Y434922D01*
X435078Y432383D02*
X440157D01*
X437618D01*
Y447617D01*
X435078Y445078D01*
X47461Y197617D02*
X42382D01*
X44922D01*
Y184922D01*
X42382Y182383D01*
X39843D01*
X37304Y184922D01*
X60157Y182383D02*
Y197617D01*
X52539Y190000D01*
X62696D01*
X427461Y197617D02*
X422383D01*
X424922D01*
Y184922D01*
X422383Y182383D01*
X419843D01*
X417304Y184922D01*
X442696Y182383D02*
X432539D01*
X442696Y192539D01*
Y195078D01*
X440157Y197617D01*
X435078D01*
X432539Y195078D01*
D12*
X937924Y883880D02*
X941923D01*
X939923D01*
Y895876D01*
X937924Y893877D01*
X945921Y858480D02*
X937924D01*
X945921Y866477D01*
Y868477D01*
X943922Y870476D01*
X939923D01*
X937924Y868477D01*
Y843077D02*
X939923Y845076D01*
X943922D01*
X945921Y843077D01*
Y841077D01*
X943922Y839078D01*
X941923D01*
X943922D01*
X945921Y837079D01*
Y835079D01*
X943922Y833080D01*
X939923D01*
X937924Y835079D01*
X943922Y807680D02*
Y819676D01*
X937924Y813678D01*
X945921D01*
Y794276D02*
X937924D01*
Y788278D01*
X941923Y790277D01*
X943922D01*
X945921Y788278D01*
Y784279D01*
X943922Y782280D01*
X939923D01*
X937924Y784279D01*
X945921Y768876D02*
X941923Y766877D01*
X937924Y762878D01*
Y758879D01*
X939923Y756880D01*
X943922D01*
X945921Y758879D01*
Y760879D01*
X943922Y762878D01*
X937924D01*
Y743476D02*
X945921D01*
Y741477D01*
X937924Y733479D01*
Y731480D01*
Y716077D02*
X939923Y718076D01*
X943922D01*
X945921Y716077D01*
Y714077D01*
X943922Y712078D01*
X945921Y710079D01*
Y708079D01*
X943922Y706080D01*
X939923D01*
X937924Y708079D01*
Y710079D01*
X939923Y712078D01*
X937924Y714077D01*
Y716077D01*
X939923Y712078D02*
X943922D01*
X937924Y682679D02*
X939923Y680680D01*
X943922D01*
X945921Y682679D01*
Y690677D01*
X943922Y692676D01*
X939923D01*
X937924Y690677D01*
Y688677D01*
X939923Y686678D01*
X945921D01*
X937924Y655280D02*
X941923D01*
X939923D01*
Y667276D01*
X937924Y665277D01*
X947921D02*
X949920Y667276D01*
X953919D01*
X955918Y665277D01*
Y657279D01*
X953919Y655280D01*
X949920D01*
X947921Y657279D01*
Y665277D01*
X937924Y629880D02*
X941923D01*
X939923D01*
Y641876D01*
X937924Y639877D01*
X947921Y629880D02*
X951919D01*
X949920D01*
Y641876D01*
X947921Y639877D01*
X937924Y604480D02*
X941923D01*
X939923D01*
Y616476D01*
X937924Y614477D01*
X955918Y604480D02*
X947921D01*
X955918Y612477D01*
Y614477D01*
X953919Y616476D01*
X949920D01*
X947921Y614477D01*
X937924Y579080D02*
X941923D01*
X939923D01*
Y591076D01*
X937924Y589077D01*
X947921D02*
X949920Y591076D01*
X953919D01*
X955918Y589077D01*
Y587077D01*
X953919Y585078D01*
X951919D01*
X953919D01*
X955918Y583079D01*
Y581079D01*
X953919Y579080D01*
X949920D01*
X947921Y581079D01*
X937924Y553680D02*
X941923D01*
X939923D01*
Y565676D01*
X937924Y563677D01*
X953919Y553680D02*
Y565676D01*
X947921Y559678D01*
X955918D01*
X937924Y528280D02*
X941923D01*
X939923D01*
Y540276D01*
X937924Y538277D01*
X955918Y540276D02*
X947921D01*
Y534278D01*
X951919Y536277D01*
X953919D01*
X955918Y534278D01*
Y530279D01*
X953919Y528280D01*
X949920D01*
X947921Y530279D01*
X937924Y502880D02*
X941923D01*
X939923D01*
Y514876D01*
X937924Y512877D01*
X955918Y514876D02*
X951919Y512877D01*
X947921Y508878D01*
Y504879D01*
X949920Y502880D01*
X953919D01*
X955918Y504879D01*
Y506879D01*
X953919Y508878D01*
X947921D01*
X937924Y477480D02*
X941923D01*
X939923D01*
Y489476D01*
X937924Y487477D01*
X947921Y489476D02*
X955918D01*
Y487477D01*
X947921Y479479D01*
Y477480D01*
X937924Y452080D02*
X941923D01*
X939923D01*
Y464076D01*
X937924Y462077D01*
X947921D02*
X949920Y464076D01*
X953919D01*
X955918Y462077D01*
Y460077D01*
X953919Y458078D01*
X955918Y456079D01*
Y454079D01*
X953919Y452080D01*
X949920D01*
X947921Y454079D01*
Y456079D01*
X949920Y458078D01*
X947921Y460077D01*
Y462077D01*
X949920Y458078D02*
X953919D01*
X937924Y426680D02*
X941923D01*
X939923D01*
Y438676D01*
X937924Y436677D01*
X947921Y428679D02*
X949920Y426680D01*
X953919D01*
X955918Y428679D01*
Y436677D01*
X953919Y438676D01*
X949920D01*
X947921Y436677D01*
Y434677D01*
X949920Y432678D01*
X955918D01*
X945921Y401280D02*
X937924D01*
X945921Y409277D01*
Y411277D01*
X943922Y413276D01*
X939923D01*
X937924Y411277D01*
X949920D02*
X951919Y413276D01*
X955918D01*
X957917Y411277D01*
Y403279D01*
X955918Y401280D01*
X951919D01*
X949920Y403279D01*
Y411277D01*
X945921Y375880D02*
X937924D01*
X945921Y383877D01*
Y385877D01*
X943922Y387876D01*
X939923D01*
X937924Y385877D01*
X949920Y375880D02*
X953919D01*
X951919D01*
Y387876D01*
X949920Y385877D01*
X945921Y350480D02*
X937924D01*
X945921Y358477D01*
Y360477D01*
X943922Y362476D01*
X939923D01*
X937924Y360477D01*
X957917Y350480D02*
X949920D01*
X957917Y358477D01*
Y360477D01*
X955918Y362476D01*
X951919D01*
X949920Y360477D01*
X945921Y325080D02*
X937924D01*
X945921Y333077D01*
Y335077D01*
X943922Y337076D01*
X939923D01*
X937924Y335077D01*
X949920D02*
X951919Y337076D01*
X955918D01*
X957917Y335077D01*
Y333077D01*
X955918Y331078D01*
X953919D01*
X955918D01*
X957917Y329079D01*
Y327079D01*
X955918Y325080D01*
X951919D01*
X949920Y327079D01*
X945921Y299680D02*
X937924D01*
X945921Y307677D01*
Y309677D01*
X943922Y311676D01*
X939923D01*
X937924Y309677D01*
X955918Y299680D02*
Y311676D01*
X949920Y305678D01*
X957917D01*
X945921Y274280D02*
X937924D01*
X945921Y282277D01*
Y284277D01*
X943922Y286276D01*
X939923D01*
X937924Y284277D01*
X957917Y286276D02*
X949920D01*
Y280278D01*
X953919Y282277D01*
X955918D01*
X957917Y280278D01*
Y276279D01*
X955918Y274280D01*
X951919D01*
X949920Y276279D01*
X945921Y248880D02*
X937924D01*
X945921Y256877D01*
Y258877D01*
X943922Y260876D01*
X939923D01*
X937924Y258877D01*
X957917Y260876D02*
X953919Y258877D01*
X949920Y254878D01*
Y250879D01*
X951919Y248880D01*
X955918D01*
X957917Y250879D01*
Y252879D01*
X955918Y254878D01*
X949920D01*
X945921Y223480D02*
X937924D01*
X945921Y231477D01*
Y233477D01*
X943922Y235476D01*
X939923D01*
X937924Y233477D01*
X949920Y235476D02*
X957917D01*
Y233477D01*
X949920Y225479D01*
Y223480D01*
X945921Y198080D02*
X937924D01*
X945921Y206077D01*
Y208077D01*
X943922Y210076D01*
X939923D01*
X937924Y208077D01*
X949920D02*
X951919Y210076D01*
X955918D01*
X957917Y208077D01*
Y206077D01*
X955918Y204078D01*
X957917Y202079D01*
Y200079D01*
X955918Y198080D01*
X951919D01*
X949920Y200079D01*
Y202079D01*
X951919Y204078D01*
X949920Y206077D01*
Y208077D01*
X951919Y204078D02*
X955918D01*
X945921Y172680D02*
X937924D01*
X945921Y180677D01*
Y182677D01*
X943922Y184676D01*
X939923D01*
X937924Y182677D01*
X949920Y174679D02*
X951919Y172680D01*
X955918D01*
X957917Y174679D01*
Y182677D01*
X955918Y184676D01*
X951919D01*
X949920Y182677D01*
Y180677D01*
X951919Y178678D01*
X957917D01*
X937924Y157277D02*
X939923Y159276D01*
X943922D01*
X945921Y157277D01*
Y155277D01*
X943922Y153278D01*
X941923D01*
X943922D01*
X945921Y151279D01*
Y149279D01*
X943922Y147280D01*
X939923D01*
X937924Y149279D01*
X949920Y157277D02*
X951919Y159276D01*
X955918D01*
X957917Y157277D01*
Y149279D01*
X955918Y147280D01*
X951919D01*
X949920Y149279D01*
Y157277D01*
X937924Y131877D02*
X939923Y133876D01*
X943922D01*
X945921Y131877D01*
Y129877D01*
X943922Y127878D01*
X941923D01*
X943922D01*
X945921Y125879D01*
Y123879D01*
X943922Y121880D01*
X939923D01*
X937924Y123879D01*
X949920Y121880D02*
X953919D01*
X951919D01*
Y133876D01*
X949920Y131877D01*
X937924Y106477D02*
X939923Y108476D01*
X943922D01*
X945921Y106477D01*
Y104477D01*
X943922Y102478D01*
X941923D01*
X943922D01*
X945921Y100479D01*
Y98479D01*
X943922Y96480D01*
X939923D01*
X937924Y98479D01*
X957917Y96480D02*
X949920D01*
X957917Y104477D01*
Y106477D01*
X955918Y108476D01*
X951919D01*
X949920Y106477D01*
X937924Y81077D02*
X939923Y83076D01*
X943922D01*
X945921Y81077D01*
Y79077D01*
X943922Y77078D01*
X941923D01*
X943922D01*
X945921Y75079D01*
Y73079D01*
X943922Y71080D01*
X939923D01*
X937924Y73079D01*
X949920Y81077D02*
X951919Y83076D01*
X955918D01*
X957917Y81077D01*
Y79077D01*
X955918Y77078D01*
X953919D01*
X955918D01*
X957917Y75079D01*
Y73079D01*
X955918Y71080D01*
X951919D01*
X949920Y73079D01*
X937924Y919277D02*
X939923Y921276D01*
X943922D01*
X945921Y919277D01*
Y911279D01*
X943922Y909280D01*
X939923D01*
X937924Y911279D01*
Y919277D01*
X579080Y45680D02*
Y53677D01*
X583079Y57676D01*
X587077Y53677D01*
Y45680D01*
Y51678D01*
X579080D01*
X604983Y57676D02*
Y45680D01*
X610981D01*
X612980Y47679D01*
Y49679D01*
X610981Y51678D01*
X604983D01*
X610981D01*
X612980Y53677D01*
Y55677D01*
X610981Y57676D01*
X604983D01*
X638883Y55677D02*
X636884Y57676D01*
X632885D01*
X630886Y55677D01*
Y47679D01*
X632885Y45680D01*
X636884D01*
X638883Y47679D01*
X656789Y57676D02*
Y45680D01*
X662787D01*
X664786Y47679D01*
Y55677D01*
X662787Y57676D01*
X656789D01*
X690689D02*
X682692D01*
Y45680D01*
X690689D01*
X682692Y51678D02*
X686691D01*
X716592Y57676D02*
X708595D01*
Y51678D01*
X712594D01*
X708595D01*
Y45680D01*
X742495Y55677D02*
X740496Y57676D01*
X736497D01*
X734498Y55677D01*
Y47679D01*
X736497Y45680D01*
X740496D01*
X742495Y47679D01*
Y51678D01*
X738496D01*
X760401Y57676D02*
Y45680D01*
Y51678D01*
X768398D01*
Y57676D01*
Y45680D01*
X786304Y57676D02*
X790302D01*
X788303D01*
Y45680D01*
X786304D01*
X790302D01*
X816205Y57676D02*
X812207D01*
X814206D01*
Y47679D01*
X812207Y45680D01*
X810207D01*
X808208Y47679D01*
X834111Y57676D02*
Y45680D01*
Y49679D01*
X842108Y57676D01*
X836110Y51678D01*
X842108Y45680D01*
X860014Y57676D02*
Y45680D01*
X868011D01*
X885917D02*
Y57676D01*
X889916Y53677D01*
X893914Y57676D01*
Y45680D01*
X911820D02*
Y57676D01*
X919817Y45680D01*
Y57676D01*
X911820Y934680D02*
Y946676D01*
X919817Y934680D01*
Y946676D01*
X885917Y934680D02*
Y946676D01*
X889916Y942677D01*
X893914Y946676D01*
Y934680D01*
X860014Y946676D02*
Y934680D01*
X868011D01*
X834111Y946676D02*
Y934680D01*
Y938679D01*
X842108Y946676D01*
X836110Y940678D01*
X842108Y934680D01*
X816205Y946676D02*
X812207D01*
X814206D01*
Y936679D01*
X812207Y934680D01*
X810207D01*
X808208Y936679D01*
X786304Y946676D02*
X790302D01*
X788303D01*
Y934680D01*
X786304D01*
X790302D01*
X760401Y946676D02*
Y934680D01*
Y940678D01*
X768398D01*
Y946676D01*
Y934680D01*
X742495Y944677D02*
X740496Y946676D01*
X736497D01*
X734498Y944677D01*
Y936679D01*
X736497Y934680D01*
X740496D01*
X742495Y936679D01*
Y940678D01*
X738496D01*
X716592Y946676D02*
X708595D01*
Y940678D01*
X712594D01*
X708595D01*
Y934680D01*
X690689Y946676D02*
X682692D01*
Y934680D01*
X690689D01*
X682692Y940678D02*
X686691D01*
X656789Y946676D02*
Y934680D01*
X662787D01*
X664786Y936679D01*
Y944677D01*
X662787Y946676D01*
X656789D01*
X638883Y944677D02*
X636884Y946676D01*
X632885D01*
X630886Y944677D01*
Y936679D01*
X632885Y934680D01*
X636884D01*
X638883Y936679D01*
X604983Y946676D02*
Y934680D01*
X610981D01*
X612980Y936679D01*
Y938679D01*
X610981Y940678D01*
X604983D01*
X610981D01*
X612980Y942677D01*
Y944677D01*
X610981Y946676D01*
X604983D01*
X579080Y934680D02*
Y942677D01*
X583079Y946676D01*
X587077Y942677D01*
Y934680D01*
Y940678D01*
X579080D01*
X556220Y919277D02*
X558219Y921276D01*
X562218D01*
X564217Y919277D01*
Y911279D01*
X562218Y909280D01*
X558219D01*
X556220Y911279D01*
Y919277D01*
X544224Y81077D02*
X546223Y83076D01*
X550222D01*
X552221Y81077D01*
Y79077D01*
X550222Y77078D01*
X548223D01*
X550222D01*
X552221Y75079D01*
Y73079D01*
X550222Y71080D01*
X546223D01*
X544224Y73079D01*
X556220Y81077D02*
X558219Y83076D01*
X562218D01*
X564217Y81077D01*
Y79077D01*
X562218Y77078D01*
X560219D01*
X562218D01*
X564217Y75079D01*
Y73079D01*
X562218Y71080D01*
X558219D01*
X556220Y73079D01*
X544224Y106477D02*
X546223Y108476D01*
X550222D01*
X552221Y106477D01*
Y104477D01*
X550222Y102478D01*
X548223D01*
X550222D01*
X552221Y100479D01*
Y98479D01*
X550222Y96480D01*
X546223D01*
X544224Y98479D01*
X564217Y96480D02*
X556220D01*
X564217Y104477D01*
Y106477D01*
X562218Y108476D01*
X558219D01*
X556220Y106477D01*
X546060Y131877D02*
X548059Y133876D01*
X552058D01*
X554057Y131877D01*
Y129877D01*
X552058Y127878D01*
X550059D01*
X552058D01*
X554057Y125879D01*
Y123879D01*
X552058Y121880D01*
X548059D01*
X546060Y123879D01*
X558056Y121880D02*
X562055D01*
X560055D01*
Y133876D01*
X558056Y131877D01*
X544224Y157277D02*
X546223Y159276D01*
X550222D01*
X552221Y157277D01*
Y155277D01*
X550222Y153278D01*
X548223D01*
X550222D01*
X552221Y151279D01*
Y149279D01*
X550222Y147280D01*
X546223D01*
X544224Y149279D01*
X556220Y157277D02*
X558219Y159276D01*
X562218D01*
X564217Y157277D01*
Y149279D01*
X562218Y147280D01*
X558219D01*
X556220Y149279D01*
Y157277D01*
X552221Y172680D02*
X544224D01*
X552221Y180677D01*
Y182677D01*
X550222Y184676D01*
X546223D01*
X544224Y182677D01*
X556220Y174679D02*
X558219Y172680D01*
X562218D01*
X564217Y174679D01*
Y182677D01*
X562218Y184676D01*
X558219D01*
X556220Y182677D01*
Y180677D01*
X558219Y178678D01*
X564217D01*
X552221Y198080D02*
X544224D01*
X552221Y206077D01*
Y208077D01*
X550222Y210076D01*
X546223D01*
X544224Y208077D01*
X556220D02*
X558219Y210076D01*
X562218D01*
X564217Y208077D01*
Y206077D01*
X562218Y204078D01*
X564217Y202079D01*
Y200079D01*
X562218Y198080D01*
X558219D01*
X556220Y200079D01*
Y202079D01*
X558219Y204078D01*
X556220Y206077D01*
Y208077D01*
X558219Y204078D02*
X562218D01*
X552221Y223480D02*
X544224D01*
X552221Y231477D01*
Y233477D01*
X550222Y235476D01*
X546223D01*
X544224Y233477D01*
X556220Y235476D02*
X564217D01*
Y233477D01*
X556220Y225479D01*
Y223480D01*
X552221Y248880D02*
X544224D01*
X552221Y256877D01*
Y258877D01*
X550222Y260876D01*
X546223D01*
X544224Y258877D01*
X564217Y260876D02*
X560219Y258877D01*
X556220Y254878D01*
Y250879D01*
X558219Y248880D01*
X562218D01*
X564217Y250879D01*
Y252879D01*
X562218Y254878D01*
X556220D01*
X552221Y274280D02*
X544224D01*
X552221Y282277D01*
Y284277D01*
X550222Y286276D01*
X546223D01*
X544224Y284277D01*
X564217Y286276D02*
X556220D01*
Y280278D01*
X560219Y282277D01*
X562218D01*
X564217Y280278D01*
Y276279D01*
X562218Y274280D01*
X558219D01*
X556220Y276279D01*
X552221Y299680D02*
X544224D01*
X552221Y307677D01*
Y309677D01*
X550222Y311676D01*
X546223D01*
X544224Y309677D01*
X562218Y299680D02*
Y311676D01*
X556220Y305678D01*
X564217D01*
X552221Y325080D02*
X544224D01*
X552221Y333077D01*
Y335077D01*
X550222Y337076D01*
X546223D01*
X544224Y335077D01*
X556220D02*
X558219Y337076D01*
X562218D01*
X564217Y335077D01*
Y333077D01*
X562218Y331078D01*
X560219D01*
X562218D01*
X564217Y329079D01*
Y327079D01*
X562218Y325080D01*
X558219D01*
X556220Y327079D01*
X552221Y350480D02*
X544224D01*
X552221Y358477D01*
Y360477D01*
X550222Y362476D01*
X546223D01*
X544224Y360477D01*
X564217Y350480D02*
X556220D01*
X564217Y358477D01*
Y360477D01*
X562218Y362476D01*
X558219D01*
X556220Y360477D01*
X554057Y375880D02*
X546060D01*
X554057Y383877D01*
Y385877D01*
X552058Y387876D01*
X548059D01*
X546060Y385877D01*
X558056Y375880D02*
X562055D01*
X560055D01*
Y387876D01*
X558056Y385877D01*
X552221Y401280D02*
X544224D01*
X552221Y409277D01*
Y411277D01*
X550222Y413276D01*
X546223D01*
X544224Y411277D01*
X556220D02*
X558219Y413276D01*
X562218D01*
X564217Y411277D01*
Y403279D01*
X562218Y401280D01*
X558219D01*
X556220Y403279D01*
Y411277D01*
X546223Y426680D02*
X550222D01*
X548223D01*
Y438676D01*
X546223Y436677D01*
X556220Y428679D02*
X558219Y426680D01*
X562218D01*
X564217Y428679D01*
Y436677D01*
X562218Y438676D01*
X558219D01*
X556220Y436677D01*
Y434677D01*
X558219Y432678D01*
X564217D01*
X546223Y452080D02*
X550222D01*
X548223D01*
Y464076D01*
X546223Y462077D01*
X556220D02*
X558219Y464076D01*
X562218D01*
X564217Y462077D01*
Y460077D01*
X562218Y458078D01*
X564217Y456079D01*
Y454079D01*
X562218Y452080D01*
X558219D01*
X556220Y454079D01*
Y456079D01*
X558219Y458078D01*
X556220Y460077D01*
Y462077D01*
X558219Y458078D02*
X562218D01*
X546223Y477480D02*
X550222D01*
X548223D01*
Y489476D01*
X546223Y487477D01*
X556220Y489476D02*
X564217D01*
Y487477D01*
X556220Y479479D01*
Y477480D01*
X546223Y502880D02*
X550222D01*
X548223D01*
Y514876D01*
X546223Y512877D01*
X564217Y514876D02*
X560219Y512877D01*
X556220Y508878D01*
Y504879D01*
X558219Y502880D01*
X562218D01*
X564217Y504879D01*
Y506879D01*
X562218Y508878D01*
X556220D01*
X546223Y528280D02*
X550222D01*
X548223D01*
Y540276D01*
X546223Y538277D01*
X564217Y540276D02*
X556220D01*
Y534278D01*
X560219Y536277D01*
X562218D01*
X564217Y534278D01*
Y530279D01*
X562218Y528280D01*
X558219D01*
X556220Y530279D01*
X546223Y553680D02*
X550222D01*
X548223D01*
Y565676D01*
X546223Y563677D01*
X562218Y553680D02*
Y565676D01*
X556220Y559678D01*
X564217D01*
X546223Y579080D02*
X550222D01*
X548223D01*
Y591076D01*
X546223Y589077D01*
X556220D02*
X558219Y591076D01*
X562218D01*
X564217Y589077D01*
Y587077D01*
X562218Y585078D01*
X560219D01*
X562218D01*
X564217Y583079D01*
Y581079D01*
X562218Y579080D01*
X558219D01*
X556220Y581079D01*
X546223Y604480D02*
X550222D01*
X548223D01*
Y616476D01*
X546223Y614477D01*
X564217Y604480D02*
X556220D01*
X564217Y612477D01*
Y614477D01*
X562218Y616476D01*
X558219D01*
X556220Y614477D01*
X548600Y629880D02*
X552599D01*
X550599D01*
Y641876D01*
X548600Y639877D01*
X558597Y629880D02*
X562595D01*
X560596D01*
Y641876D01*
X558597Y639877D01*
X546223Y655280D02*
X550222D01*
X548223D01*
Y667276D01*
X546223Y665277D01*
X556220D02*
X558219Y667276D01*
X562218D01*
X564217Y665277D01*
Y657279D01*
X562218Y655280D01*
X558219D01*
X556220Y657279D01*
Y665277D01*
Y682679D02*
X558219Y680680D01*
X562218D01*
X564217Y682679D01*
Y690677D01*
X562218Y692676D01*
X558219D01*
X556220Y690677D01*
Y688677D01*
X558219Y686678D01*
X564217D01*
X556220Y716077D02*
X558219Y718076D01*
X562218D01*
X564217Y716077D01*
Y714077D01*
X562218Y712078D01*
X564217Y710079D01*
Y708079D01*
X562218Y706080D01*
X558219D01*
X556220Y708079D01*
Y710079D01*
X558219Y712078D01*
X556220Y714077D01*
Y716077D01*
X558219Y712078D02*
X562218D01*
X556220Y743476D02*
X564217D01*
Y741477D01*
X556220Y733479D01*
Y731480D01*
X564217Y768876D02*
X560219Y766877D01*
X556220Y762878D01*
Y758879D01*
X558219Y756880D01*
X562218D01*
X564217Y758879D01*
Y760879D01*
X562218Y762878D01*
X556220D01*
X564217Y794276D02*
X556220D01*
Y788278D01*
X560219Y790277D01*
X562218D01*
X564217Y788278D01*
Y784279D01*
X562218Y782280D01*
X558219D01*
X556220Y784279D01*
X562218Y807680D02*
Y819676D01*
X556220Y813678D01*
X564217D01*
X556220Y843077D02*
X558219Y845076D01*
X562218D01*
X564217Y843077D01*
Y841077D01*
X562218Y839078D01*
X560219D01*
X562218D01*
X564217Y837079D01*
Y835079D01*
X562218Y833080D01*
X558219D01*
X556220Y835079D01*
X564217Y858480D02*
X556220D01*
X564217Y866477D01*
Y868477D01*
X562218Y870476D01*
X558219D01*
X556220Y868477D01*
X558760Y883880D02*
X562759D01*
X560759D01*
Y895876D01*
X558760Y893877D01*
M02*
