M48
;Layer_Color=9474304
;FILE_FORMAT=4:3
METRIC,LZ
;TYPE=PLATED
T01F00S00C0.500
T02F00S00C1.000
T03F00S00C3.000
%
T01
X0003Y0003
X0005
X0007
Y0007
X0005
X0003
Y0005
Y0017
Y0019
Y0021
X0005
X0007
Y0017
X0005
Y0028
X0007
X0003
X0009
X0011
X0013
X0015
X0017
X0019
X0021
X0023
X0025
X0027
X0029
X0031
X0033
X0035
X0037
X0039
X0041
X0043
X0045
Y0021
X0043
X0041
X0039
X0037
X0035
X0033
X0031
X0029
X0027
X0025
X0023
X0021
X0019
X0017
X0015
X0013
X0011
X0009
Y0017
X0011
X0013
X0015
X0017
X0019
X0021
X0023
X0025
X0027
X0029
X0031
X0033
X0035
X0037
X0039
X0041
X0043
X0045
Y0019
Y0007
X0043
X0041
X0039
X0037
X0035
X0033
X0031
X0029
X0027
X0025
X0023
X0021
X0019
X0017
X0015
X0013
X0011
X0009
Y0003
X0011
X0013
X0015
X0017
X0019
X0021
X0023
X0025
X0027
X0029
X0031
X0033
X0035
X0037
X0039
X0041
X0043
X0045
Y0005
X0024
Y0009
Y0011
Y0013
Y0015
Y0019
X005254Y001788
Y002296
Y002804
Y00128
Y000772
X005588Y000254
X006096
X006604
X007112
X00762
X008128
X008636
X009144
X009652Y001016
Y001524
Y002032
Y00254
Y003048
Y003556
Y004064
Y004572
Y00508
Y005588
Y006096
Y006604
X005254Y00636
Y005852
Y005344
Y004836
Y004328
Y00382
Y003312
X0045Y0032
X0043
X0041
X0039
X0037
X0035
X0033
X0031
X0029
X0027
X0025
X0023
X0021
X0019
X0017
X0015
X0013
X0011
X0009
Y0042
X0011
X0013
X0015
X0017
X0019
X0021
X0023
X0025
X0027
X0029
X0031
X0033
X0035
X0037
X0039
X0041
X0043
X0045
Y0044
Y0046
X0043
X0041
X0039
X0037
X0035
X0033
X0031
X0029
X0027
X0025
X0023
X0021
X0019
X0017
X0015
X0013
X0011
X0009
Y0053
X0011
X0013
X0015
X0017
X0019
X0021
X0023
X0025
X0027
X0029
X0031
X0033
X0035
X0037
X0039
X0041
X0043
X0045
Y0055
Y0057
X0043
X0041
X0039
X0037
X0035
X0033
X0031
X0029
X0027
X0025
X0023
X0021
X0019
X0017
X0015
X0013
X0011
X0009
Y0067
X0011
X0013
X0015
X0017
X0019
X0021
X0023
X0025
X0027
X0029
X0031
X0033
X0035
X0037
X0039
X0041
X0043
X0045
X0024Y0055
Y0044
Y004
Y0038
Y0036
Y0034
Y003
X0045
X0007Y0032
X0005
X0003
Y003
Y0042
Y0044
Y0046
X0005
X0007
Y0042
X0005
Y0053
X0007
Y0057
X0005
X0003
Y0055
Y0053
Y0067
X0005
X0007
Y0071
X0005
X0003
Y0069
Y0078
Y008
Y0082
Y0084
Y0086
Y0088
Y009
Y0092
Y0094
Y0096
X0005
X0007
X0008Y0091
X0006
Y0089
Y0087
Y0085
Y0083
Y0081
X0008
X0007Y0078
X0005
X0009
X0011
X0013
X0015
X0017
X0019
X0021
X0023
X0025
X0027
X0029
X0031
X0033
X0035
X0037
X0039
X0041
X0043
X0045
Y008
Y0082
Y0084
Y0086
Y0088
Y009
Y0092
Y0094
Y0096
X0043
X0041
X0039
X0037
X0035
X0033
X0031
X0029
X0027
X0025
X0023
X0021
X0019
X0017
X0015
X0013
X0011
X0009
X001Y0091
X0012
Y0089
Y0087
Y0085
Y0083
Y0081
X001
X0016
Y0083
Y0085
Y0087
Y0089
Y0091
X0018
X002
X0022
Y0089
Y0087
Y0085
Y0083
Y0081
X002
X0018
X0026
Y0083
Y0085
Y0087
Y0089
Y0091
X0028
X003
X0032
Y0089
Y0087
Y0085
Y0083
Y0081
X003
X0028
X0036
Y0083
Y0085
Y0087
Y0089
Y0091
X0038
X004
X0042
Y0089
Y0087
Y0085
Y0083
Y0081
X004
X0038
X0037Y0071
X0035
X0033
X0031
X0029
X0027
X0025
X0023
X0021
X0019
X0017
X0015
X0013
X0011
X0009
X0024Y0069
X0039Y0071
X0041
X0043
X0045
Y0069
X005254Y006868
Y007376
Y007884
Y008392
Y0089
X005588Y009652
X006096
X006604
X007112
X00762
X008128
X008636
X006604Y008763
Y008636
Y008509
Y008382
Y008255
X009652Y008128
Y008636
Y009144
X009144Y009652
X009652Y00762
Y007112
T02
X005842Y000762
X006096
X00635
X006604
X006858
X007112
X007366
X00762
X007874
X008128
X008382
X008636
Y001016
X008382
X008128
X007874
X00762
X007366
X007112
X006858
X006604
X00635
X006096
X005842
Y00127
X006096
X00635
X006604
X006858
X007112
X007366
X00762
X007874
X008128
X008382
X008636
Y001524
X008382
X008128
X007874
X00762
X007366
X007112
X006858
X006604
X00635
X006096
X005842
Y001778
X006096
X00635
X006604
X006858
X007112
X007366
X00762
X007874
X008128
X008382
X008636
Y002032
X008382
X008128
X007874
X00762
X007366
X007112
X006858
X006604
X00635
X006096
X005842
Y002286
X006096
X00635
X006604
X006858
X007112
X007366
X00762
X007874
X008128
X008382
X008636
Y00254
Y002794
X008382
X008128
X007874
X00762
X007366
X007112
X006858
X006604
X00635
X006096
X005842
Y00254
X006096
X00635
X006604
X006858
X007112
X007366
X00762
X007874
X008128
X008382
X00889
Y002286
Y002032
Y001778
Y001524
Y00127
Y001016
Y000762
X009144
Y001016
Y00127
Y001524
Y001778
Y002032
Y002286
Y00254
Y002794
X00889
Y003048
X009144
Y003302
X00889
Y003556
X009144
Y00381
Y004064
X00889
Y004318
X009144
Y004572
Y004826
X00889
Y00508
X009144
Y005334
Y005588
Y005842
Y006096
X00889
Y005842
Y005588
Y005334
Y004572
Y00381
Y00635
Y006604
X009144
Y00635
X008636
Y006096
X008382
X008128
X007874
X00762
X007366
X007112
X006858
X006604
X00635
X006096
X005842
Y005842
X006096
X00635
X006604
X006858
X007112
X007366
X00762
X007874
X008128
X008382
X008636
Y005588
X008382
X008128
X007874
X00762
X007366
X007112
X006858
X006604
X00635
X006096
X005842
Y005334
Y00508
Y004826
X006096
X00635
X006604
X006858
X007112
X007366
X00762
X007874
X008128
X008382
X008636
Y00508
X008382
X008128
X007874
X00762
X007366
X007112
X006858
X006604
X00635
X006096
Y005334
X00635
X006604
X006858
X007112
X007366
X00762
X007874
X008128
X008382
X008636
Y004572
Y004318
Y004064
X008382
X008128
X007874
X00762
X007366
X007112
X006858
X006604
X00635
X006096
X005842
Y004318
X006096
X00635
X006604
X006858
X007112
X007366
X00762
X007874
X008128
X008382
Y004572
X008128
X007874
X00762
X007366
X007112
X006858
X006604
X00635
X006096
X005842
Y00381
Y003556
Y003302
Y003048
X006096
X00635
X006604
X006858
X007112
X007366
X00762
X007874
X008128
X008382
X008636
Y003302
X008382
X008128
X007874
X00762
X007366
X007112
X006858
X006604
X00635
X006096
Y003556
X00635
X006604
X006858
X007112
X007366
X00762
X007874
X008128
X008382
X008636
Y00381
X008382
X008128
X007874
X00762
X007366
X007112
X006858
X006604
X00635
X006096
Y00635
Y006604
X00635
X006604
X006858
X007112
X007366
X00762
X007874
X008128
X008382
X008636
X008382Y00635
X008128
X007874
X00762
X007366
X007112
X006858
X006604
X00635
X005842
Y006604
Y006858
X006096
X00635
X006604
X006858
X007112
X007366
X00762
X007874
X008128
X008382
X008636
Y007112
Y007366
Y00762
X008382
X008128
X007874
Y007874
Y008128
X00762
X007366
Y007874
X00762
Y00762
X007366
X007112
X006858
X006604
X00635
X006096
X005842
Y007366
X006096
X00635
X006604
X006858
X007112
X007366
X00762
X007874
X008128
X008382
Y007112
X008128
X007874
X00762
X007366
X007112
X006858
X006604
X00635
X006096
X005842
Y007874
Y008128
Y008382
X006096
Y008128
Y007874
X00635
X006604
X006858
X007112
Y008128
Y008382
X007366
X00762
X007874
X008128
X008382
X008636
Y008128
X008382
X008128
Y007874
X008382
X008636
Y008636
X008382
X008128
X007874
X00762
X007366
X007112
Y00889
X007366
X00762
X007874
X008128
X008382
X008636
Y009144
X008382
X008128
X007874
X00762
X007366
X007112
X006858
X006604
X00635
X006096
Y00889
Y008636
X005842
Y00889
Y009144
X00889
Y00889
Y008636
Y008382
X009144
Y008128
X00889
Y007874
Y00762
X009144
Y007366
X00889
Y007112
Y006858
X009144
Y007112
Y007874
Y008636
Y00889
Y009144
T03
X0054Y0004
X0095
X0054Y0095
X0095
M30
