G04*
G04 #@! TF.GenerationSoftware,Altium Limited,Altium Designer,25.2.1 (25)*
G04*
G04 Layer_Color=255*
%FSLAX44Y44*%
%MOMM*%
G71*
G04*
G04 #@! TF.SameCoordinates,2B517493-A32E-4929-9694-E162711A69F2*
G04*
G04*
G04 #@! TF.FilePolarity,Positive*
G04*
G01*
G75*
%ADD18R,3.0000X1.5000*%
%ADD52C,5.0000*%
%ADD57C,1.6000*%
D18*
X450000Y648000D02*
D03*
Y592000D02*
D03*
X30000D02*
D03*
Y648000D02*
D03*
Y92000D02*
D03*
Y148000D02*
D03*
Y342000D02*
D03*
Y398000D02*
D03*
X450000Y148000D02*
D03*
Y92000D02*
D03*
Y342000D02*
D03*
Y398000D02*
D03*
D52*
X950000Y40000D02*
D03*
X540000D02*
D03*
X950000Y950000D02*
D03*
X540000D02*
D03*
D57*
X736600Y812800D02*
D03*
X762000D02*
D03*
X787400D02*
D03*
X736600Y787400D02*
D03*
X762000D02*
D03*
X787400D02*
D03*
X736600Y838200D02*
D03*
X762000D02*
D03*
X787400D02*
D03*
X736600Y762000D02*
D03*
X762000D02*
D03*
X787400D02*
D03*
X914400Y76200D02*
D03*
X889000D02*
D03*
X863600D02*
D03*
X838200D02*
D03*
X812800D02*
D03*
X787400D02*
D03*
X762000D02*
D03*
X736600D02*
D03*
X711200D02*
D03*
X685800D02*
D03*
X660400D02*
D03*
X635000D02*
D03*
X609600D02*
D03*
X584200D02*
D03*
Y101600D02*
D03*
X609600D02*
D03*
X635000D02*
D03*
X660400D02*
D03*
X685800D02*
D03*
X711200D02*
D03*
X736600D02*
D03*
X762000D02*
D03*
X787400D02*
D03*
X812800D02*
D03*
X838200D02*
D03*
X863600D02*
D03*
X889000D02*
D03*
X914400D02*
D03*
X584200Y127000D02*
D03*
X609600D02*
D03*
X635000D02*
D03*
X660400D02*
D03*
X685800D02*
D03*
X711200D02*
D03*
X736600D02*
D03*
X762000D02*
D03*
X787400D02*
D03*
X812800D02*
D03*
X838200D02*
D03*
X863600D02*
D03*
X889000D02*
D03*
X914400D02*
D03*
Y152400D02*
D03*
X889000D02*
D03*
X863600D02*
D03*
X838200D02*
D03*
X812800D02*
D03*
X787400D02*
D03*
X762000D02*
D03*
X736600D02*
D03*
X711200D02*
D03*
X685800D02*
D03*
X660400D02*
D03*
X635000D02*
D03*
X609600D02*
D03*
X584200D02*
D03*
Y177800D02*
D03*
X609600D02*
D03*
X635000D02*
D03*
X660400D02*
D03*
X685800D02*
D03*
X711200D02*
D03*
X736600D02*
D03*
X762000D02*
D03*
X787400D02*
D03*
X812800D02*
D03*
X838200D02*
D03*
X863600D02*
D03*
X889000D02*
D03*
X914400D02*
D03*
X584200Y203200D02*
D03*
X609600D02*
D03*
X635000D02*
D03*
X660400D02*
D03*
X685800D02*
D03*
X711200D02*
D03*
X736600D02*
D03*
X762000D02*
D03*
X787400D02*
D03*
X812800D02*
D03*
X838200D02*
D03*
X863600D02*
D03*
X889000D02*
D03*
X914400D02*
D03*
Y228600D02*
D03*
X889000D02*
D03*
X863600D02*
D03*
X838200D02*
D03*
X812800D02*
D03*
X787400D02*
D03*
X762000D02*
D03*
X736600D02*
D03*
X711200D02*
D03*
X685800D02*
D03*
X660400D02*
D03*
X635000D02*
D03*
X609600D02*
D03*
X584200D02*
D03*
Y304800D02*
D03*
X609600D02*
D03*
X635000D02*
D03*
X660400D02*
D03*
X685800D02*
D03*
X711200D02*
D03*
X736600D02*
D03*
X762000D02*
D03*
X787400D02*
D03*
X812800D02*
D03*
X838200D02*
D03*
X863600D02*
D03*
X889000D02*
D03*
X914400D02*
D03*
Y279400D02*
D03*
X889000D02*
D03*
X863600D02*
D03*
X838200D02*
D03*
X812800D02*
D03*
X787400D02*
D03*
X762000D02*
D03*
X736600D02*
D03*
X711200D02*
D03*
X685800D02*
D03*
X660400D02*
D03*
X635000D02*
D03*
X609600D02*
D03*
X584200D02*
D03*
X914400Y254000D02*
D03*
X889000D02*
D03*
X863600D02*
D03*
X838200D02*
D03*
X812800D02*
D03*
X787400D02*
D03*
X762000D02*
D03*
X736600D02*
D03*
X711200D02*
D03*
X685800D02*
D03*
X660400D02*
D03*
X635000D02*
D03*
X609600D02*
D03*
X584200D02*
D03*
Y609600D02*
D03*
X609600D02*
D03*
X635000D02*
D03*
X660400D02*
D03*
X685800D02*
D03*
X711200D02*
D03*
X736600D02*
D03*
X762000D02*
D03*
X787400D02*
D03*
X812800D02*
D03*
X838200D02*
D03*
X863600D02*
D03*
X889000D02*
D03*
X914400D02*
D03*
Y584200D02*
D03*
X889000D02*
D03*
X863600D02*
D03*
X838200D02*
D03*
X812800D02*
D03*
X787400D02*
D03*
X762000D02*
D03*
X736600D02*
D03*
X711200D02*
D03*
X685800D02*
D03*
X660400D02*
D03*
X635000D02*
D03*
X609600D02*
D03*
X584200D02*
D03*
X914400Y558800D02*
D03*
X889000D02*
D03*
X863600D02*
D03*
X838200D02*
D03*
X812800D02*
D03*
X787400D02*
D03*
X762000D02*
D03*
X736600D02*
D03*
X711200D02*
D03*
X685800D02*
D03*
X660400D02*
D03*
X635000D02*
D03*
X609600D02*
D03*
X584200D02*
D03*
Y482600D02*
D03*
X609600D02*
D03*
X635000D02*
D03*
X660400D02*
D03*
X685800D02*
D03*
X711200D02*
D03*
X736600D02*
D03*
X762000D02*
D03*
X787400D02*
D03*
X812800D02*
D03*
X838200D02*
D03*
X863600D02*
D03*
X889000D02*
D03*
X914400D02*
D03*
X584200Y508000D02*
D03*
X609600D02*
D03*
X635000D02*
D03*
X660400D02*
D03*
X685800D02*
D03*
X711200D02*
D03*
X736600D02*
D03*
X762000D02*
D03*
X787400D02*
D03*
X812800D02*
D03*
X838200D02*
D03*
X863600D02*
D03*
X889000D02*
D03*
X914400D02*
D03*
Y533400D02*
D03*
X889000D02*
D03*
X863600D02*
D03*
X838200D02*
D03*
X812800D02*
D03*
X787400D02*
D03*
X762000D02*
D03*
X736600D02*
D03*
X711200D02*
D03*
X685800D02*
D03*
X660400D02*
D03*
X635000D02*
D03*
X609600D02*
D03*
X584200D02*
D03*
Y406400D02*
D03*
X609600D02*
D03*
X635000D02*
D03*
X660400D02*
D03*
X685800D02*
D03*
X711200D02*
D03*
X736600D02*
D03*
X762000D02*
D03*
X787400D02*
D03*
X812800D02*
D03*
X838200D02*
D03*
X863600D02*
D03*
X889000D02*
D03*
X914400D02*
D03*
X584200Y431800D02*
D03*
X609600D02*
D03*
X635000D02*
D03*
X660400D02*
D03*
X685800D02*
D03*
X711200D02*
D03*
X736600D02*
D03*
X762000D02*
D03*
X787400D02*
D03*
X812800D02*
D03*
X838200D02*
D03*
X863600D02*
D03*
X889000D02*
D03*
X914400D02*
D03*
Y457200D02*
D03*
X889000D02*
D03*
X863600D02*
D03*
X838200D02*
D03*
X812800D02*
D03*
X787400D02*
D03*
X762000D02*
D03*
X736600D02*
D03*
X711200D02*
D03*
X685800D02*
D03*
X660400D02*
D03*
X635000D02*
D03*
X609600D02*
D03*
X584200D02*
D03*
Y330200D02*
D03*
X609600D02*
D03*
X635000D02*
D03*
X660400D02*
D03*
X685800D02*
D03*
X711200D02*
D03*
X736600D02*
D03*
X762000D02*
D03*
X787400D02*
D03*
X812800D02*
D03*
X838200D02*
D03*
X863600D02*
D03*
X889000D02*
D03*
X914400D02*
D03*
X584200Y355600D02*
D03*
X609600D02*
D03*
X635000D02*
D03*
X660400D02*
D03*
X685800D02*
D03*
X711200D02*
D03*
X736600D02*
D03*
X762000D02*
D03*
X787400D02*
D03*
X812800D02*
D03*
X838200D02*
D03*
X863600D02*
D03*
X889000D02*
D03*
X914400D02*
D03*
Y381000D02*
D03*
X889000D02*
D03*
X863600D02*
D03*
X838200D02*
D03*
X812800D02*
D03*
X787400D02*
D03*
X762000D02*
D03*
X736600D02*
D03*
X711200D02*
D03*
X685800D02*
D03*
X660400D02*
D03*
X635000D02*
D03*
X609600D02*
D03*
X584200D02*
D03*
Y685800D02*
D03*
X609600D02*
D03*
X635000D02*
D03*
X660400D02*
D03*
X685800D02*
D03*
X711200D02*
D03*
X736600D02*
D03*
X762000D02*
D03*
X787400D02*
D03*
X812800D02*
D03*
X838200D02*
D03*
X863600D02*
D03*
X889000D02*
D03*
X914400D02*
D03*
Y660400D02*
D03*
X889000D02*
D03*
X863600D02*
D03*
X838200D02*
D03*
X812800D02*
D03*
X787400D02*
D03*
X762000D02*
D03*
X736600D02*
D03*
X711200D02*
D03*
X685800D02*
D03*
X660400D02*
D03*
X635000D02*
D03*
X609600D02*
D03*
X584200D02*
D03*
X914400Y635000D02*
D03*
X889000D02*
D03*
X863600D02*
D03*
X838200D02*
D03*
X812800D02*
D03*
X787400D02*
D03*
X762000D02*
D03*
X736600D02*
D03*
X711200D02*
D03*
X685800D02*
D03*
X660400D02*
D03*
X635000D02*
D03*
X609600D02*
D03*
X584200D02*
D03*
Y762000D02*
D03*
X609600D02*
D03*
X635000D02*
D03*
X660400D02*
D03*
X685800D02*
D03*
X711200D02*
D03*
X812800D02*
D03*
X838200D02*
D03*
X863600D02*
D03*
X889000D02*
D03*
X914400D02*
D03*
Y736600D02*
D03*
X889000D02*
D03*
X863600D02*
D03*
X838200D02*
D03*
X812800D02*
D03*
X787400D02*
D03*
X762000D02*
D03*
X736600D02*
D03*
X711200D02*
D03*
X685800D02*
D03*
X660400D02*
D03*
X635000D02*
D03*
X609600D02*
D03*
X584200D02*
D03*
X914400Y711200D02*
D03*
X889000D02*
D03*
X863600D02*
D03*
X838200D02*
D03*
X812800D02*
D03*
X787400D02*
D03*
X762000D02*
D03*
X736600D02*
D03*
X711200D02*
D03*
X685800D02*
D03*
X660400D02*
D03*
X635000D02*
D03*
X609600D02*
D03*
X584200D02*
D03*
Y838200D02*
D03*
X609600D02*
D03*
X711200D02*
D03*
X812800D02*
D03*
X838200D02*
D03*
X863600D02*
D03*
X889000D02*
D03*
X914400D02*
D03*
Y812800D02*
D03*
X889000D02*
D03*
X863600D02*
D03*
X838200D02*
D03*
X812800D02*
D03*
X711200D02*
D03*
X609600D02*
D03*
X584200D02*
D03*
X914400Y787400D02*
D03*
X889000D02*
D03*
X863600D02*
D03*
X838200D02*
D03*
X812800D02*
D03*
X711200D02*
D03*
X685800D02*
D03*
X660400D02*
D03*
X635000D02*
D03*
X609600D02*
D03*
X584200D02*
D03*
Y863600D02*
D03*
X609600D02*
D03*
X711200D02*
D03*
X736600D02*
D03*
X762000D02*
D03*
X787400D02*
D03*
X812800D02*
D03*
X838200D02*
D03*
X863600D02*
D03*
X889000D02*
D03*
X914400D02*
D03*
X584200Y889000D02*
D03*
X609600D02*
D03*
X711200D02*
D03*
X736600D02*
D03*
X762000D02*
D03*
X787400D02*
D03*
X812800D02*
D03*
X838200D02*
D03*
X863600D02*
D03*
X889000D02*
D03*
X914400D02*
D03*
Y914400D02*
D03*
X889000D02*
D03*
X863600D02*
D03*
X838200D02*
D03*
X812800D02*
D03*
X787400D02*
D03*
X762000D02*
D03*
X736600D02*
D03*
X711200D02*
D03*
X685800D02*
D03*
X660400D02*
D03*
X635000D02*
D03*
X609600D02*
D03*
X584200D02*
D03*
M02*
