G04*
G04 #@! TF.GenerationSoftware,Altium Limited,Altium Designer,25.2.1 (25)*
G04*
G04 Layer_Color=128*
%FSLAX44Y44*%
%MOMM*%
G71*
G04*
G04 #@! TF.SameCoordinates,8CFDF816-B780-4096-8FD2-7069D6D7E517*
G04*
G04*
G04 #@! TF.FilePolarity,Positive*
G04*
G01*
G75*
%ADD65C,0.1270*%
D65*
X731600Y812800D02*
X741600D01*
X736600Y807800D02*
Y817800D01*
X757000Y812800D02*
X767000D01*
X762000Y807800D02*
Y817800D01*
X782400Y812800D02*
X792400D01*
X787400Y807800D02*
Y817800D01*
X731600Y787400D02*
X741600D01*
X736600Y782400D02*
Y792400D01*
X757000Y787400D02*
X767000D01*
X762000Y782400D02*
Y792400D01*
X782400Y787400D02*
X792400D01*
X787400Y782400D02*
Y792400D01*
X731600Y838200D02*
X741600D01*
X736600Y833200D02*
Y843200D01*
X757000Y838200D02*
X767000D01*
X762000Y833200D02*
Y843200D01*
X782400Y838200D02*
X792400D01*
X787400Y833200D02*
Y843200D01*
X731600Y762000D02*
X741600D01*
X736600Y757000D02*
Y767000D01*
X757000Y762000D02*
X767000D01*
X762000Y757000D02*
Y767000D01*
X782400Y762000D02*
X792400D01*
X787400Y757000D02*
Y767000D01*
X496000Y245000D02*
X504000D01*
X500000Y241000D02*
Y249000D01*
X496000Y495000D02*
X504000D01*
X500000Y491000D02*
Y499000D01*
X496000Y745000D02*
X504000D01*
X500000Y741000D02*
Y749000D01*
X476000Y245000D02*
X484000D01*
X480000Y241000D02*
Y249000D01*
X476000Y495000D02*
X484000D01*
X480000Y491000D02*
Y499000D01*
X476000Y745000D02*
X484000D01*
X480000Y741000D02*
Y749000D01*
X909400Y76200D02*
X919400D01*
X914400Y71200D02*
Y81200D01*
X884000Y76200D02*
X894000D01*
X889000Y71200D02*
Y81200D01*
X858600Y76200D02*
X868600D01*
X863600Y71200D02*
Y81200D01*
X833200Y76200D02*
X843200D01*
X838200Y71200D02*
Y81200D01*
X807800Y76200D02*
X817800D01*
X812800Y71200D02*
Y81200D01*
X782400Y76200D02*
X792400D01*
X787400Y71200D02*
Y81200D01*
X757000Y76200D02*
X767000D01*
X762000Y71200D02*
Y81200D01*
X731600Y76200D02*
X741600D01*
X736600Y71200D02*
Y81200D01*
X706200Y76200D02*
X716200D01*
X711200Y71200D02*
Y81200D01*
X680800Y76200D02*
X690800D01*
X685800Y71200D02*
Y81200D01*
X655400Y76200D02*
X665400D01*
X660400Y71200D02*
Y81200D01*
X630000Y76200D02*
X640000D01*
X635000Y71200D02*
Y81200D01*
X604600Y76200D02*
X614600D01*
X609600Y71200D02*
Y81200D01*
X579200Y76200D02*
X589200D01*
X584200Y71200D02*
Y81200D01*
X579200Y101600D02*
X589200D01*
X584200Y96600D02*
Y106600D01*
X604600Y101600D02*
X614600D01*
X609600Y96600D02*
Y106600D01*
X630000Y101600D02*
X640000D01*
X635000Y96600D02*
Y106600D01*
X655400Y101600D02*
X665400D01*
X660400Y96600D02*
Y106600D01*
X680800Y101600D02*
X690800D01*
X685800Y96600D02*
Y106600D01*
X706200Y101600D02*
X716200D01*
X711200Y96600D02*
Y106600D01*
X731600Y101600D02*
X741600D01*
X736600Y96600D02*
Y106600D01*
X757000Y101600D02*
X767000D01*
X762000Y96600D02*
Y106600D01*
X782400Y101600D02*
X792400D01*
X787400Y96600D02*
Y106600D01*
X807800Y101600D02*
X817800D01*
X812800Y96600D02*
Y106600D01*
X833200Y101600D02*
X843200D01*
X838200Y96600D02*
Y106600D01*
X858600Y101600D02*
X868600D01*
X863600Y96600D02*
Y106600D01*
X884000Y101600D02*
X894000D01*
X889000Y96600D02*
Y106600D01*
X909400Y101600D02*
X919400D01*
X914400Y96600D02*
Y106600D01*
X579200Y127000D02*
X589200D01*
X584200Y122000D02*
Y132000D01*
X604600Y127000D02*
X614600D01*
X609600Y122000D02*
Y132000D01*
X630000Y127000D02*
X640000D01*
X635000Y122000D02*
Y132000D01*
X655400Y127000D02*
X665400D01*
X660400Y122000D02*
Y132000D01*
X680800Y127000D02*
X690800D01*
X685800Y122000D02*
Y132000D01*
X706200Y127000D02*
X716200D01*
X711200Y122000D02*
Y132000D01*
X731600Y127000D02*
X741600D01*
X736600Y122000D02*
Y132000D01*
X757000Y127000D02*
X767000D01*
X762000Y122000D02*
Y132000D01*
X782400Y127000D02*
X792400D01*
X787400Y122000D02*
Y132000D01*
X807800Y127000D02*
X817800D01*
X812800Y122000D02*
Y132000D01*
X833200Y127000D02*
X843200D01*
X838200Y122000D02*
Y132000D01*
X858600Y127000D02*
X868600D01*
X863600Y122000D02*
Y132000D01*
X884000Y127000D02*
X894000D01*
X889000Y122000D02*
Y132000D01*
X909400Y127000D02*
X919400D01*
X914400Y122000D02*
Y132000D01*
X909400Y152400D02*
X919400D01*
X914400Y147400D02*
Y157400D01*
X884000Y152400D02*
X894000D01*
X889000Y147400D02*
Y157400D01*
X858600Y152400D02*
X868600D01*
X863600Y147400D02*
Y157400D01*
X833200Y152400D02*
X843200D01*
X838200Y147400D02*
Y157400D01*
X807800Y152400D02*
X817800D01*
X812800Y147400D02*
Y157400D01*
X782400Y152400D02*
X792400D01*
X787400Y147400D02*
Y157400D01*
X757000Y152400D02*
X767000D01*
X762000Y147400D02*
Y157400D01*
X731600Y152400D02*
X741600D01*
X736600Y147400D02*
Y157400D01*
X706200Y152400D02*
X716200D01*
X711200Y147400D02*
Y157400D01*
X680800Y152400D02*
X690800D01*
X685800Y147400D02*
Y157400D01*
X655400Y152400D02*
X665400D01*
X660400Y147400D02*
Y157400D01*
X630000Y152400D02*
X640000D01*
X635000Y147400D02*
Y157400D01*
X604600Y152400D02*
X614600D01*
X609600Y147400D02*
Y157400D01*
X579200Y152400D02*
X589200D01*
X584200Y147400D02*
Y157400D01*
X579200Y177800D02*
X589200D01*
X584200Y172800D02*
Y182800D01*
X604600Y177800D02*
X614600D01*
X609600Y172800D02*
Y182800D01*
X630000Y177800D02*
X640000D01*
X635000Y172800D02*
Y182800D01*
X655400Y177800D02*
X665400D01*
X660400Y172800D02*
Y182800D01*
X680800Y177800D02*
X690800D01*
X685800Y172800D02*
Y182800D01*
X706200Y177800D02*
X716200D01*
X711200Y172800D02*
Y182800D01*
X731600Y177800D02*
X741600D01*
X736600Y172800D02*
Y182800D01*
X757000Y177800D02*
X767000D01*
X762000Y172800D02*
Y182800D01*
X782400Y177800D02*
X792400D01*
X787400Y172800D02*
Y182800D01*
X807800Y177800D02*
X817800D01*
X812800Y172800D02*
Y182800D01*
X833200Y177800D02*
X843200D01*
X838200Y172800D02*
Y182800D01*
X858600Y177800D02*
X868600D01*
X863600Y172800D02*
Y182800D01*
X884000Y177800D02*
X894000D01*
X889000Y172800D02*
Y182800D01*
X909400Y177800D02*
X919400D01*
X914400Y172800D02*
Y182800D01*
X579200Y203200D02*
X589200D01*
X584200Y198200D02*
Y208200D01*
X604600Y203200D02*
X614600D01*
X609600Y198200D02*
Y208200D01*
X630000Y203200D02*
X640000D01*
X635000Y198200D02*
Y208200D01*
X655400Y203200D02*
X665400D01*
X660400Y198200D02*
Y208200D01*
X680800Y203200D02*
X690800D01*
X685800Y198200D02*
Y208200D01*
X706200Y203200D02*
X716200D01*
X711200Y198200D02*
Y208200D01*
X731600Y203200D02*
X741600D01*
X736600Y198200D02*
Y208200D01*
X757000Y203200D02*
X767000D01*
X762000Y198200D02*
Y208200D01*
X782400Y203200D02*
X792400D01*
X787400Y198200D02*
Y208200D01*
X807800Y203200D02*
X817800D01*
X812800Y198200D02*
Y208200D01*
X833200Y203200D02*
X843200D01*
X838200Y198200D02*
Y208200D01*
X858600Y203200D02*
X868600D01*
X863600Y198200D02*
Y208200D01*
X884000Y203200D02*
X894000D01*
X889000Y198200D02*
Y208200D01*
X909400Y203200D02*
X919400D01*
X914400Y198200D02*
Y208200D01*
X909400Y228600D02*
X919400D01*
X914400Y223600D02*
Y233600D01*
X884000Y228600D02*
X894000D01*
X889000Y223600D02*
Y233600D01*
X858600Y228600D02*
X868600D01*
X863600Y223600D02*
Y233600D01*
X833200Y228600D02*
X843200D01*
X838200Y223600D02*
Y233600D01*
X807800Y228600D02*
X817800D01*
X812800Y223600D02*
Y233600D01*
X782400Y228600D02*
X792400D01*
X787400Y223600D02*
Y233600D01*
X757000Y228600D02*
X767000D01*
X762000Y223600D02*
Y233600D01*
X731600Y228600D02*
X741600D01*
X736600Y223600D02*
Y233600D01*
X706200Y228600D02*
X716200D01*
X711200Y223600D02*
Y233600D01*
X680800Y228600D02*
X690800D01*
X685800Y223600D02*
Y233600D01*
X655400Y228600D02*
X665400D01*
X660400Y223600D02*
Y233600D01*
X630000Y228600D02*
X640000D01*
X635000Y223600D02*
Y233600D01*
X604600Y228600D02*
X614600D01*
X609600Y223600D02*
Y233600D01*
X579200Y228600D02*
X589200D01*
X584200Y223600D02*
Y233600D01*
X579200Y304800D02*
X589200D01*
X584200Y299800D02*
Y309800D01*
X604600Y304800D02*
X614600D01*
X609600Y299800D02*
Y309800D01*
X630000Y304800D02*
X640000D01*
X635000Y299800D02*
Y309800D01*
X655400Y304800D02*
X665400D01*
X660400Y299800D02*
Y309800D01*
X680800Y304800D02*
X690800D01*
X685800Y299800D02*
Y309800D01*
X706200Y304800D02*
X716200D01*
X711200Y299800D02*
Y309800D01*
X731600Y304800D02*
X741600D01*
X736600Y299800D02*
Y309800D01*
X757000Y304800D02*
X767000D01*
X762000Y299800D02*
Y309800D01*
X782400Y304800D02*
X792400D01*
X787400Y299800D02*
Y309800D01*
X807800Y304800D02*
X817800D01*
X812800Y299800D02*
Y309800D01*
X833200Y304800D02*
X843200D01*
X838200Y299800D02*
Y309800D01*
X858600Y304800D02*
X868600D01*
X863600Y299800D02*
Y309800D01*
X884000Y304800D02*
X894000D01*
X889000Y299800D02*
Y309800D01*
X909400Y304800D02*
X919400D01*
X914400Y299800D02*
Y309800D01*
X909400Y279400D02*
X919400D01*
X914400Y274400D02*
Y284400D01*
X884000Y279400D02*
X894000D01*
X889000Y274400D02*
Y284400D01*
X858600Y279400D02*
X868600D01*
X863600Y274400D02*
Y284400D01*
X833200Y279400D02*
X843200D01*
X838200Y274400D02*
Y284400D01*
X807800Y279400D02*
X817800D01*
X812800Y274400D02*
Y284400D01*
X782400Y279400D02*
X792400D01*
X787400Y274400D02*
Y284400D01*
X757000Y279400D02*
X767000D01*
X762000Y274400D02*
Y284400D01*
X731600Y279400D02*
X741600D01*
X736600Y274400D02*
Y284400D01*
X706200Y279400D02*
X716200D01*
X711200Y274400D02*
Y284400D01*
X680800Y279400D02*
X690800D01*
X685800Y274400D02*
Y284400D01*
X655400Y279400D02*
X665400D01*
X660400Y274400D02*
Y284400D01*
X630000Y279400D02*
X640000D01*
X635000Y274400D02*
Y284400D01*
X604600Y279400D02*
X614600D01*
X609600Y274400D02*
Y284400D01*
X579200Y279400D02*
X589200D01*
X584200Y274400D02*
Y284400D01*
X909400Y254000D02*
X919400D01*
X914400Y249000D02*
Y259000D01*
X884000Y254000D02*
X894000D01*
X889000Y249000D02*
Y259000D01*
X858600Y254000D02*
X868600D01*
X863600Y249000D02*
Y259000D01*
X833200Y254000D02*
X843200D01*
X838200Y249000D02*
Y259000D01*
X807800Y254000D02*
X817800D01*
X812800Y249000D02*
Y259000D01*
X782400Y254000D02*
X792400D01*
X787400Y249000D02*
Y259000D01*
X757000Y254000D02*
X767000D01*
X762000Y249000D02*
Y259000D01*
X731600Y254000D02*
X741600D01*
X736600Y249000D02*
Y259000D01*
X706200Y254000D02*
X716200D01*
X711200Y249000D02*
Y259000D01*
X680800Y254000D02*
X690800D01*
X685800Y249000D02*
Y259000D01*
X655400Y254000D02*
X665400D01*
X660400Y249000D02*
Y259000D01*
X630000Y254000D02*
X640000D01*
X635000Y249000D02*
Y259000D01*
X604600Y254000D02*
X614600D01*
X609600Y249000D02*
Y259000D01*
X579200Y254000D02*
X589200D01*
X584200Y249000D02*
Y259000D01*
X579200Y609600D02*
X589200D01*
X584200Y604600D02*
Y614600D01*
X604600Y609600D02*
X614600D01*
X609600Y604600D02*
Y614600D01*
X630000Y609600D02*
X640000D01*
X635000Y604600D02*
Y614600D01*
X655400Y609600D02*
X665400D01*
X660400Y604600D02*
Y614600D01*
X680800Y609600D02*
X690800D01*
X685800Y604600D02*
Y614600D01*
X706200Y609600D02*
X716200D01*
X711200Y604600D02*
Y614600D01*
X731600Y609600D02*
X741600D01*
X736600Y604600D02*
Y614600D01*
X757000Y609600D02*
X767000D01*
X762000Y604600D02*
Y614600D01*
X782400Y609600D02*
X792400D01*
X787400Y604600D02*
Y614600D01*
X807800Y609600D02*
X817800D01*
X812800Y604600D02*
Y614600D01*
X833200Y609600D02*
X843200D01*
X838200Y604600D02*
Y614600D01*
X858600Y609600D02*
X868600D01*
X863600Y604600D02*
Y614600D01*
X884000Y609600D02*
X894000D01*
X889000Y604600D02*
Y614600D01*
X909400Y609600D02*
X919400D01*
X914400Y604600D02*
Y614600D01*
X909400Y584200D02*
X919400D01*
X914400Y579200D02*
Y589200D01*
X884000Y584200D02*
X894000D01*
X889000Y579200D02*
Y589200D01*
X858600Y584200D02*
X868600D01*
X863600Y579200D02*
Y589200D01*
X833200Y584200D02*
X843200D01*
X838200Y579200D02*
Y589200D01*
X807800Y584200D02*
X817800D01*
X812800Y579200D02*
Y589200D01*
X782400Y584200D02*
X792400D01*
X787400Y579200D02*
Y589200D01*
X757000Y584200D02*
X767000D01*
X762000Y579200D02*
Y589200D01*
X731600Y584200D02*
X741600D01*
X736600Y579200D02*
Y589200D01*
X706200Y584200D02*
X716200D01*
X711200Y579200D02*
Y589200D01*
X680800Y584200D02*
X690800D01*
X685800Y579200D02*
Y589200D01*
X655400Y584200D02*
X665400D01*
X660400Y579200D02*
Y589200D01*
X630000Y584200D02*
X640000D01*
X635000Y579200D02*
Y589200D01*
X604600Y584200D02*
X614600D01*
X609600Y579200D02*
Y589200D01*
X579200Y584200D02*
X589200D01*
X584200Y579200D02*
Y589200D01*
X909400Y558800D02*
X919400D01*
X914400Y553800D02*
Y563800D01*
X884000Y558800D02*
X894000D01*
X889000Y553800D02*
Y563800D01*
X858600Y558800D02*
X868600D01*
X863600Y553800D02*
Y563800D01*
X833200Y558800D02*
X843200D01*
X838200Y553800D02*
Y563800D01*
X807800Y558800D02*
X817800D01*
X812800Y553800D02*
Y563800D01*
X782400Y558800D02*
X792400D01*
X787400Y553800D02*
Y563800D01*
X757000Y558800D02*
X767000D01*
X762000Y553800D02*
Y563800D01*
X731600Y558800D02*
X741600D01*
X736600Y553800D02*
Y563800D01*
X706200Y558800D02*
X716200D01*
X711200Y553800D02*
Y563800D01*
X680800Y558800D02*
X690800D01*
X685800Y553800D02*
Y563800D01*
X655400Y558800D02*
X665400D01*
X660400Y553800D02*
Y563800D01*
X630000Y558800D02*
X640000D01*
X635000Y553800D02*
Y563800D01*
X604600Y558800D02*
X614600D01*
X609600Y553800D02*
Y563800D01*
X579200Y558800D02*
X589200D01*
X584200Y553800D02*
Y563800D01*
X579200Y482600D02*
X589200D01*
X584200Y477600D02*
Y487600D01*
X604600Y482600D02*
X614600D01*
X609600Y477600D02*
Y487600D01*
X630000Y482600D02*
X640000D01*
X635000Y477600D02*
Y487600D01*
X655400Y482600D02*
X665400D01*
X660400Y477600D02*
Y487600D01*
X680800Y482600D02*
X690800D01*
X685800Y477600D02*
Y487600D01*
X706200Y482600D02*
X716200D01*
X711200Y477600D02*
Y487600D01*
X731600Y482600D02*
X741600D01*
X736600Y477600D02*
Y487600D01*
X757000Y482600D02*
X767000D01*
X762000Y477600D02*
Y487600D01*
X782400Y482600D02*
X792400D01*
X787400Y477600D02*
Y487600D01*
X807800Y482600D02*
X817800D01*
X812800Y477600D02*
Y487600D01*
X833200Y482600D02*
X843200D01*
X838200Y477600D02*
Y487600D01*
X858600Y482600D02*
X868600D01*
X863600Y477600D02*
Y487600D01*
X884000Y482600D02*
X894000D01*
X889000Y477600D02*
Y487600D01*
X909400Y482600D02*
X919400D01*
X914400Y477600D02*
Y487600D01*
X579200Y508000D02*
X589200D01*
X584200Y503000D02*
Y513000D01*
X604600Y508000D02*
X614600D01*
X609600Y503000D02*
Y513000D01*
X630000Y508000D02*
X640000D01*
X635000Y503000D02*
Y513000D01*
X655400Y508000D02*
X665400D01*
X660400Y503000D02*
Y513000D01*
X680800Y508000D02*
X690800D01*
X685800Y503000D02*
Y513000D01*
X706200Y508000D02*
X716200D01*
X711200Y503000D02*
Y513000D01*
X731600Y508000D02*
X741600D01*
X736600Y503000D02*
Y513000D01*
X757000Y508000D02*
X767000D01*
X762000Y503000D02*
Y513000D01*
X782400Y508000D02*
X792400D01*
X787400Y503000D02*
Y513000D01*
X807800Y508000D02*
X817800D01*
X812800Y503000D02*
Y513000D01*
X833200Y508000D02*
X843200D01*
X838200Y503000D02*
Y513000D01*
X858600Y508000D02*
X868600D01*
X863600Y503000D02*
Y513000D01*
X884000Y508000D02*
X894000D01*
X889000Y503000D02*
Y513000D01*
X909400Y508000D02*
X919400D01*
X914400Y503000D02*
Y513000D01*
X909400Y533400D02*
X919400D01*
X914400Y528400D02*
Y538400D01*
X884000Y533400D02*
X894000D01*
X889000Y528400D02*
Y538400D01*
X858600Y533400D02*
X868600D01*
X863600Y528400D02*
Y538400D01*
X833200Y533400D02*
X843200D01*
X838200Y528400D02*
Y538400D01*
X807800Y533400D02*
X817800D01*
X812800Y528400D02*
Y538400D01*
X782400Y533400D02*
X792400D01*
X787400Y528400D02*
Y538400D01*
X757000Y533400D02*
X767000D01*
X762000Y528400D02*
Y538400D01*
X731600Y533400D02*
X741600D01*
X736600Y528400D02*
Y538400D01*
X706200Y533400D02*
X716200D01*
X711200Y528400D02*
Y538400D01*
X680800Y533400D02*
X690800D01*
X685800Y528400D02*
Y538400D01*
X655400Y533400D02*
X665400D01*
X660400Y528400D02*
Y538400D01*
X630000Y533400D02*
X640000D01*
X635000Y528400D02*
Y538400D01*
X604600Y533400D02*
X614600D01*
X609600Y528400D02*
Y538400D01*
X579200Y533400D02*
X589200D01*
X584200Y528400D02*
Y538400D01*
X579200Y406400D02*
X589200D01*
X584200Y401400D02*
Y411400D01*
X604600Y406400D02*
X614600D01*
X609600Y401400D02*
Y411400D01*
X630000Y406400D02*
X640000D01*
X635000Y401400D02*
Y411400D01*
X655400Y406400D02*
X665400D01*
X660400Y401400D02*
Y411400D01*
X680800Y406400D02*
X690800D01*
X685800Y401400D02*
Y411400D01*
X706200Y406400D02*
X716200D01*
X711200Y401400D02*
Y411400D01*
X731600Y406400D02*
X741600D01*
X736600Y401400D02*
Y411400D01*
X757000Y406400D02*
X767000D01*
X762000Y401400D02*
Y411400D01*
X782400Y406400D02*
X792400D01*
X787400Y401400D02*
Y411400D01*
X807800Y406400D02*
X817800D01*
X812800Y401400D02*
Y411400D01*
X833200Y406400D02*
X843200D01*
X838200Y401400D02*
Y411400D01*
X858600Y406400D02*
X868600D01*
X863600Y401400D02*
Y411400D01*
X884000Y406400D02*
X894000D01*
X889000Y401400D02*
Y411400D01*
X909400Y406400D02*
X919400D01*
X914400Y401400D02*
Y411400D01*
X579200Y431800D02*
X589200D01*
X584200Y426800D02*
Y436800D01*
X604600Y431800D02*
X614600D01*
X609600Y426800D02*
Y436800D01*
X630000Y431800D02*
X640000D01*
X635000Y426800D02*
Y436800D01*
X655400Y431800D02*
X665400D01*
X660400Y426800D02*
Y436800D01*
X680800Y431800D02*
X690800D01*
X685800Y426800D02*
Y436800D01*
X706200Y431800D02*
X716200D01*
X711200Y426800D02*
Y436800D01*
X731600Y431800D02*
X741600D01*
X736600Y426800D02*
Y436800D01*
X757000Y431800D02*
X767000D01*
X762000Y426800D02*
Y436800D01*
X782400Y431800D02*
X792400D01*
X787400Y426800D02*
Y436800D01*
X807800Y431800D02*
X817800D01*
X812800Y426800D02*
Y436800D01*
X833200Y431800D02*
X843200D01*
X838200Y426800D02*
Y436800D01*
X858600Y431800D02*
X868600D01*
X863600Y426800D02*
Y436800D01*
X884000Y431800D02*
X894000D01*
X889000Y426800D02*
Y436800D01*
X909400Y431800D02*
X919400D01*
X914400Y426800D02*
Y436800D01*
X909400Y457200D02*
X919400D01*
X914400Y452200D02*
Y462200D01*
X884000Y457200D02*
X894000D01*
X889000Y452200D02*
Y462200D01*
X858600Y457200D02*
X868600D01*
X863600Y452200D02*
Y462200D01*
X833200Y457200D02*
X843200D01*
X838200Y452200D02*
Y462200D01*
X807800Y457200D02*
X817800D01*
X812800Y452200D02*
Y462200D01*
X782400Y457200D02*
X792400D01*
X787400Y452200D02*
Y462200D01*
X757000Y457200D02*
X767000D01*
X762000Y452200D02*
Y462200D01*
X731600Y457200D02*
X741600D01*
X736600Y452200D02*
Y462200D01*
X706200Y457200D02*
X716200D01*
X711200Y452200D02*
Y462200D01*
X680800Y457200D02*
X690800D01*
X685800Y452200D02*
Y462200D01*
X655400Y457200D02*
X665400D01*
X660400Y452200D02*
Y462200D01*
X630000Y457200D02*
X640000D01*
X635000Y452200D02*
Y462200D01*
X604600Y457200D02*
X614600D01*
X609600Y452200D02*
Y462200D01*
X579200Y457200D02*
X589200D01*
X584200Y452200D02*
Y462200D01*
X579200Y330200D02*
X589200D01*
X584200Y325200D02*
Y335200D01*
X604600Y330200D02*
X614600D01*
X609600Y325200D02*
Y335200D01*
X630000Y330200D02*
X640000D01*
X635000Y325200D02*
Y335200D01*
X655400Y330200D02*
X665400D01*
X660400Y325200D02*
Y335200D01*
X680800Y330200D02*
X690800D01*
X685800Y325200D02*
Y335200D01*
X706200Y330200D02*
X716200D01*
X711200Y325200D02*
Y335200D01*
X731600Y330200D02*
X741600D01*
X736600Y325200D02*
Y335200D01*
X757000Y330200D02*
X767000D01*
X762000Y325200D02*
Y335200D01*
X782400Y330200D02*
X792400D01*
X787400Y325200D02*
Y335200D01*
X807800Y330200D02*
X817800D01*
X812800Y325200D02*
Y335200D01*
X833200Y330200D02*
X843200D01*
X838200Y325200D02*
Y335200D01*
X858600Y330200D02*
X868600D01*
X863600Y325200D02*
Y335200D01*
X884000Y330200D02*
X894000D01*
X889000Y325200D02*
Y335200D01*
X909400Y330200D02*
X919400D01*
X914400Y325200D02*
Y335200D01*
X579200Y355600D02*
X589200D01*
X584200Y350600D02*
Y360600D01*
X604600Y355600D02*
X614600D01*
X609600Y350600D02*
Y360600D01*
X630000Y355600D02*
X640000D01*
X635000Y350600D02*
Y360600D01*
X655400Y355600D02*
X665400D01*
X660400Y350600D02*
Y360600D01*
X680800Y355600D02*
X690800D01*
X685800Y350600D02*
Y360600D01*
X706200Y355600D02*
X716200D01*
X711200Y350600D02*
Y360600D01*
X731600Y355600D02*
X741600D01*
X736600Y350600D02*
Y360600D01*
X757000Y355600D02*
X767000D01*
X762000Y350600D02*
Y360600D01*
X782400Y355600D02*
X792400D01*
X787400Y350600D02*
Y360600D01*
X807800Y355600D02*
X817800D01*
X812800Y350600D02*
Y360600D01*
X833200Y355600D02*
X843200D01*
X838200Y350600D02*
Y360600D01*
X858600Y355600D02*
X868600D01*
X863600Y350600D02*
Y360600D01*
X884000Y355600D02*
X894000D01*
X889000Y350600D02*
Y360600D01*
X909400Y355600D02*
X919400D01*
X914400Y350600D02*
Y360600D01*
X909400Y381000D02*
X919400D01*
X914400Y376000D02*
Y386000D01*
X884000Y381000D02*
X894000D01*
X889000Y376000D02*
Y386000D01*
X858600Y381000D02*
X868600D01*
X863600Y376000D02*
Y386000D01*
X833200Y381000D02*
X843200D01*
X838200Y376000D02*
Y386000D01*
X807800Y381000D02*
X817800D01*
X812800Y376000D02*
Y386000D01*
X782400Y381000D02*
X792400D01*
X787400Y376000D02*
Y386000D01*
X757000Y381000D02*
X767000D01*
X762000Y376000D02*
Y386000D01*
X731600Y381000D02*
X741600D01*
X736600Y376000D02*
Y386000D01*
X706200Y381000D02*
X716200D01*
X711200Y376000D02*
Y386000D01*
X680800Y381000D02*
X690800D01*
X685800Y376000D02*
Y386000D01*
X655400Y381000D02*
X665400D01*
X660400Y376000D02*
Y386000D01*
X630000Y381000D02*
X640000D01*
X635000Y376000D02*
Y386000D01*
X604600Y381000D02*
X614600D01*
X609600Y376000D02*
Y386000D01*
X579200Y381000D02*
X589200D01*
X584200Y376000D02*
Y386000D01*
X579200Y685800D02*
X589200D01*
X584200Y680800D02*
Y690800D01*
X604600Y685800D02*
X614600D01*
X609600Y680800D02*
Y690800D01*
X630000Y685800D02*
X640000D01*
X635000Y680800D02*
Y690800D01*
X655400Y685800D02*
X665400D01*
X660400Y680800D02*
Y690800D01*
X680800Y685800D02*
X690800D01*
X685800Y680800D02*
Y690800D01*
X706200Y685800D02*
X716200D01*
X711200Y680800D02*
Y690800D01*
X731600Y685800D02*
X741600D01*
X736600Y680800D02*
Y690800D01*
X757000Y685800D02*
X767000D01*
X762000Y680800D02*
Y690800D01*
X782400Y685800D02*
X792400D01*
X787400Y680800D02*
Y690800D01*
X807800Y685800D02*
X817800D01*
X812800Y680800D02*
Y690800D01*
X833200Y685800D02*
X843200D01*
X838200Y680800D02*
Y690800D01*
X858600Y685800D02*
X868600D01*
X863600Y680800D02*
Y690800D01*
X884000Y685800D02*
X894000D01*
X889000Y680800D02*
Y690800D01*
X909400Y685800D02*
X919400D01*
X914400Y680800D02*
Y690800D01*
X909400Y660400D02*
X919400D01*
X914400Y655400D02*
Y665400D01*
X884000Y660400D02*
X894000D01*
X889000Y655400D02*
Y665400D01*
X858600Y660400D02*
X868600D01*
X863600Y655400D02*
Y665400D01*
X833200Y660400D02*
X843200D01*
X838200Y655400D02*
Y665400D01*
X807800Y660400D02*
X817800D01*
X812800Y655400D02*
Y665400D01*
X782400Y660400D02*
X792400D01*
X787400Y655400D02*
Y665400D01*
X757000Y660400D02*
X767000D01*
X762000Y655400D02*
Y665400D01*
X731600Y660400D02*
X741600D01*
X736600Y655400D02*
Y665400D01*
X706200Y660400D02*
X716200D01*
X711200Y655400D02*
Y665400D01*
X680800Y660400D02*
X690800D01*
X685800Y655400D02*
Y665400D01*
X655400Y660400D02*
X665400D01*
X660400Y655400D02*
Y665400D01*
X630000Y660400D02*
X640000D01*
X635000Y655400D02*
Y665400D01*
X604600Y660400D02*
X614600D01*
X609600Y655400D02*
Y665400D01*
X579200Y660400D02*
X589200D01*
X584200Y655400D02*
Y665400D01*
X909400Y635000D02*
X919400D01*
X914400Y630000D02*
Y640000D01*
X884000Y635000D02*
X894000D01*
X889000Y630000D02*
Y640000D01*
X858600Y635000D02*
X868600D01*
X863600Y630000D02*
Y640000D01*
X833200Y635000D02*
X843200D01*
X838200Y630000D02*
Y640000D01*
X807800Y635000D02*
X817800D01*
X812800Y630000D02*
Y640000D01*
X782400Y635000D02*
X792400D01*
X787400Y630000D02*
Y640000D01*
X757000Y635000D02*
X767000D01*
X762000Y630000D02*
Y640000D01*
X731600Y635000D02*
X741600D01*
X736600Y630000D02*
Y640000D01*
X706200Y635000D02*
X716200D01*
X711200Y630000D02*
Y640000D01*
X680800Y635000D02*
X690800D01*
X685800Y630000D02*
Y640000D01*
X655400Y635000D02*
X665400D01*
X660400Y630000D02*
Y640000D01*
X630000Y635000D02*
X640000D01*
X635000Y630000D02*
Y640000D01*
X604600Y635000D02*
X614600D01*
X609600Y630000D02*
Y640000D01*
X579200Y635000D02*
X589200D01*
X584200Y630000D02*
Y640000D01*
X579200Y762000D02*
X589200D01*
X584200Y757000D02*
Y767000D01*
X604600Y762000D02*
X614600D01*
X609600Y757000D02*
Y767000D01*
X630000Y762000D02*
X640000D01*
X635000Y757000D02*
Y767000D01*
X655400Y762000D02*
X665400D01*
X660400Y757000D02*
Y767000D01*
X680800Y762000D02*
X690800D01*
X685800Y757000D02*
Y767000D01*
X706200Y762000D02*
X716200D01*
X711200Y757000D02*
Y767000D01*
X807800Y762000D02*
X817800D01*
X812800Y757000D02*
Y767000D01*
X833200Y762000D02*
X843200D01*
X838200Y757000D02*
Y767000D01*
X858600Y762000D02*
X868600D01*
X863600Y757000D02*
Y767000D01*
X884000Y762000D02*
X894000D01*
X889000Y757000D02*
Y767000D01*
X909400Y762000D02*
X919400D01*
X914400Y757000D02*
Y767000D01*
X909400Y736600D02*
X919400D01*
X914400Y731600D02*
Y741600D01*
X884000Y736600D02*
X894000D01*
X889000Y731600D02*
Y741600D01*
X858600Y736600D02*
X868600D01*
X863600Y731600D02*
Y741600D01*
X833200Y736600D02*
X843200D01*
X838200Y731600D02*
Y741600D01*
X807800Y736600D02*
X817800D01*
X812800Y731600D02*
Y741600D01*
X782400Y736600D02*
X792400D01*
X787400Y731600D02*
Y741600D01*
X757000Y736600D02*
X767000D01*
X762000Y731600D02*
Y741600D01*
X731600Y736600D02*
X741600D01*
X736600Y731600D02*
Y741600D01*
X706200Y736600D02*
X716200D01*
X711200Y731600D02*
Y741600D01*
X680800Y736600D02*
X690800D01*
X685800Y731600D02*
Y741600D01*
X655400Y736600D02*
X665400D01*
X660400Y731600D02*
Y741600D01*
X630000Y736600D02*
X640000D01*
X635000Y731600D02*
Y741600D01*
X604600Y736600D02*
X614600D01*
X609600Y731600D02*
Y741600D01*
X579200Y736600D02*
X589200D01*
X584200Y731600D02*
Y741600D01*
X909400Y711200D02*
X919400D01*
X914400Y706200D02*
Y716200D01*
X884000Y711200D02*
X894000D01*
X889000Y706200D02*
Y716200D01*
X858600Y711200D02*
X868600D01*
X863600Y706200D02*
Y716200D01*
X833200Y711200D02*
X843200D01*
X838200Y706200D02*
Y716200D01*
X807800Y711200D02*
X817800D01*
X812800Y706200D02*
Y716200D01*
X782400Y711200D02*
X792400D01*
X787400Y706200D02*
Y716200D01*
X757000Y711200D02*
X767000D01*
X762000Y706200D02*
Y716200D01*
X731600Y711200D02*
X741600D01*
X736600Y706200D02*
Y716200D01*
X706200Y711200D02*
X716200D01*
X711200Y706200D02*
Y716200D01*
X680800Y711200D02*
X690800D01*
X685800Y706200D02*
Y716200D01*
X655400Y711200D02*
X665400D01*
X660400Y706200D02*
Y716200D01*
X630000Y711200D02*
X640000D01*
X635000Y706200D02*
Y716200D01*
X604600Y711200D02*
X614600D01*
X609600Y706200D02*
Y716200D01*
X579200Y711200D02*
X589200D01*
X584200Y706200D02*
Y716200D01*
X579200Y838200D02*
X589200D01*
X584200Y833200D02*
Y843200D01*
X604600Y838200D02*
X614600D01*
X609600Y833200D02*
Y843200D01*
X706200Y838200D02*
X716200D01*
X711200Y833200D02*
Y843200D01*
X807800Y838200D02*
X817800D01*
X812800Y833200D02*
Y843200D01*
X833200Y838200D02*
X843200D01*
X838200Y833200D02*
Y843200D01*
X858600Y838200D02*
X868600D01*
X863600Y833200D02*
Y843200D01*
X884000Y838200D02*
X894000D01*
X889000Y833200D02*
Y843200D01*
X909400Y838200D02*
X919400D01*
X914400Y833200D02*
Y843200D01*
X909400Y812800D02*
X919400D01*
X914400Y807800D02*
Y817800D01*
X884000Y812800D02*
X894000D01*
X889000Y807800D02*
Y817800D01*
X858600Y812800D02*
X868600D01*
X863600Y807800D02*
Y817800D01*
X833200Y812800D02*
X843200D01*
X838200Y807800D02*
Y817800D01*
X807800Y812800D02*
X817800D01*
X812800Y807800D02*
Y817800D01*
X706200Y812800D02*
X716200D01*
X711200Y807800D02*
Y817800D01*
X604600Y812800D02*
X614600D01*
X609600Y807800D02*
Y817800D01*
X579200Y812800D02*
X589200D01*
X584200Y807800D02*
Y817800D01*
X909400Y787400D02*
X919400D01*
X914400Y782400D02*
Y792400D01*
X884000Y787400D02*
X894000D01*
X889000Y782400D02*
Y792400D01*
X858600Y787400D02*
X868600D01*
X863600Y782400D02*
Y792400D01*
X833200Y787400D02*
X843200D01*
X838200Y782400D02*
Y792400D01*
X807800Y787400D02*
X817800D01*
X812800Y782400D02*
Y792400D01*
X706200Y787400D02*
X716200D01*
X711200Y782400D02*
Y792400D01*
X680800Y787400D02*
X690800D01*
X685800Y782400D02*
Y792400D01*
X655400Y787400D02*
X665400D01*
X660400Y782400D02*
Y792400D01*
X630000Y787400D02*
X640000D01*
X635000Y782400D02*
Y792400D01*
X604600Y787400D02*
X614600D01*
X609600Y782400D02*
Y792400D01*
X579200Y787400D02*
X589200D01*
X584200Y782400D02*
Y792400D01*
X579200Y863600D02*
X589200D01*
X584200Y858600D02*
Y868600D01*
X604600Y863600D02*
X614600D01*
X609600Y858600D02*
Y868600D01*
X706200Y863600D02*
X716200D01*
X711200Y858600D02*
Y868600D01*
X731600Y863600D02*
X741600D01*
X736600Y858600D02*
Y868600D01*
X757000Y863600D02*
X767000D01*
X762000Y858600D02*
Y868600D01*
X782400Y863600D02*
X792400D01*
X787400Y858600D02*
Y868600D01*
X807800Y863600D02*
X817800D01*
X812800Y858600D02*
Y868600D01*
X833200Y863600D02*
X843200D01*
X838200Y858600D02*
Y868600D01*
X858600Y863600D02*
X868600D01*
X863600Y858600D02*
Y868600D01*
X884000Y863600D02*
X894000D01*
X889000Y858600D02*
Y868600D01*
X909400Y863600D02*
X919400D01*
X914400Y858600D02*
Y868600D01*
X579200Y889000D02*
X589200D01*
X584200Y884000D02*
Y894000D01*
X604600Y889000D02*
X614600D01*
X609600Y884000D02*
Y894000D01*
X706200Y889000D02*
X716200D01*
X711200Y884000D02*
Y894000D01*
X731600Y889000D02*
X741600D01*
X736600Y884000D02*
Y894000D01*
X757000Y889000D02*
X767000D01*
X762000Y884000D02*
Y894000D01*
X782400Y889000D02*
X792400D01*
X787400Y884000D02*
Y894000D01*
X807800Y889000D02*
X817800D01*
X812800Y884000D02*
Y894000D01*
X833200Y889000D02*
X843200D01*
X838200Y884000D02*
Y894000D01*
X858600Y889000D02*
X868600D01*
X863600Y884000D02*
Y894000D01*
X884000Y889000D02*
X894000D01*
X889000Y884000D02*
Y894000D01*
X909400Y889000D02*
X919400D01*
X914400Y884000D02*
Y894000D01*
X909400Y914400D02*
X919400D01*
X914400Y909400D02*
Y919400D01*
X884000Y914400D02*
X894000D01*
X889000Y909400D02*
Y919400D01*
X858600Y914400D02*
X868600D01*
X863600Y909400D02*
Y919400D01*
X833200Y914400D02*
X843200D01*
X838200Y909400D02*
Y919400D01*
X807800Y914400D02*
X817800D01*
X812800Y909400D02*
Y919400D01*
X782400Y914400D02*
X792400D01*
X787400Y909400D02*
Y919400D01*
X757000Y914400D02*
X767000D01*
X762000Y909400D02*
Y919400D01*
X731600Y914400D02*
X741600D01*
X736600Y909400D02*
Y919400D01*
X706200Y914400D02*
X716200D01*
X711200Y909400D02*
Y919400D01*
X680800Y914400D02*
X690800D01*
X685800Y909400D02*
Y919400D01*
X655400Y914400D02*
X665400D01*
X660400Y909400D02*
Y919400D01*
X630000Y914400D02*
X640000D01*
X635000Y909400D02*
Y919400D01*
X604600Y914400D02*
X614600D01*
X609600Y909400D02*
Y919400D01*
X579200Y914400D02*
X589200D01*
X584200Y909400D02*
Y919400D01*
X935000Y40000D02*
X965000D01*
X950000Y25000D02*
Y55000D01*
X525000Y40000D02*
X555000D01*
X540000Y25000D02*
Y55000D01*
X935000Y950000D02*
X965000D01*
X950000Y935000D02*
Y965000D01*
X525000Y950000D02*
X555000D01*
X540000Y935000D02*
Y965000D01*
X657900Y876300D02*
X662900D01*
X660400Y873800D02*
Y878800D01*
X657900Y863600D02*
X662900D01*
X660400Y861100D02*
Y866100D01*
X657900Y850900D02*
X662900D01*
X660400Y848400D02*
Y853400D01*
X657900Y825500D02*
X662900D01*
X660400Y823000D02*
Y828000D01*
X657900Y838200D02*
X662900D01*
X660400Y835700D02*
Y840700D01*
X522900Y890000D02*
X527900D01*
X525400Y887500D02*
Y892500D01*
X522900Y839200D02*
X527900D01*
X525400Y836700D02*
Y841700D01*
X522900Y788400D02*
X527900D01*
X525400Y785900D02*
Y790900D01*
X522900Y737600D02*
X527900D01*
X525400Y735100D02*
Y740100D01*
X522900Y686800D02*
X527900D01*
X525400Y684300D02*
Y689300D01*
X522900Y636000D02*
X527900D01*
X525400Y633500D02*
Y638500D01*
X522900Y585200D02*
X527900D01*
X525400Y582700D02*
Y587700D01*
X522900Y534400D02*
X527900D01*
X525400Y531900D02*
Y536900D01*
X522900Y483600D02*
X527900D01*
X525400Y481100D02*
Y486100D01*
X522900Y432800D02*
X527900D01*
X525400Y430300D02*
Y435300D01*
X522900Y382000D02*
X527900D01*
X525400Y379500D02*
Y384500D01*
X522900Y331200D02*
X527900D01*
X525400Y328700D02*
Y333700D01*
X522900Y280400D02*
X527900D01*
X525400Y277900D02*
Y282900D01*
X522900Y229600D02*
X527900D01*
X525400Y227100D02*
Y232100D01*
X522900Y178800D02*
X527900D01*
X525400Y176300D02*
Y181300D01*
X522900Y128000D02*
X527900D01*
X525400Y125500D02*
Y130500D01*
X522900Y77200D02*
X527900D01*
X525400Y74700D02*
Y79700D01*
X556300Y25400D02*
X561300D01*
X558800Y22900D02*
Y27900D01*
X911900Y25400D02*
X916900D01*
X914400Y22900D02*
Y27900D01*
X556300Y965200D02*
X561300D01*
X558800Y962700D02*
Y967700D01*
X911900Y965200D02*
X916900D01*
X914400Y962700D02*
Y967700D01*
X962700Y914400D02*
X967700D01*
X965200Y911900D02*
Y916900D01*
X962700Y863600D02*
X967700D01*
X965200Y861100D02*
Y866100D01*
X962700Y812800D02*
X967700D01*
X965200Y810300D02*
Y815300D01*
X962700Y762000D02*
X967700D01*
X965200Y759500D02*
Y764500D01*
X962700Y711200D02*
X967700D01*
X965200Y708700D02*
Y713700D01*
X962700Y660400D02*
X967700D01*
X965200Y657900D02*
Y662900D01*
X962700Y609600D02*
X967700D01*
X965200Y607100D02*
Y612100D01*
X962700Y558800D02*
X967700D01*
X965200Y556300D02*
Y561300D01*
X962700Y508000D02*
X967700D01*
X965200Y505500D02*
Y510500D01*
X962700Y457200D02*
X967700D01*
X965200Y454700D02*
Y459700D01*
X962700Y406400D02*
X967700D01*
X965200Y403900D02*
Y408900D01*
X962700Y355600D02*
X967700D01*
X965200Y353100D02*
Y358100D01*
X962700Y304800D02*
X967700D01*
X965200Y302300D02*
Y307300D01*
X962700Y254000D02*
X967700D01*
X965200Y251500D02*
Y256500D01*
X962700Y203200D02*
X967700D01*
X965200Y200700D02*
Y205700D01*
X962700Y152400D02*
X967700D01*
X965200Y149900D02*
Y154900D01*
X962700Y101600D02*
X967700D01*
X965200Y99100D02*
Y104100D01*
X861100Y25400D02*
X866100D01*
X863600Y22900D02*
Y27900D01*
X810300Y25400D02*
X815300D01*
X812800Y22900D02*
Y27900D01*
X759500Y25400D02*
X764500D01*
X762000Y22900D02*
Y27900D01*
X708700Y25400D02*
X713700D01*
X711200Y22900D02*
Y27900D01*
X657900Y25400D02*
X662900D01*
X660400Y22900D02*
Y27900D01*
X607100Y25400D02*
X612100D01*
X609600Y22900D02*
Y27900D01*
X861100Y965200D02*
X866100D01*
X863600Y962700D02*
Y967700D01*
X810300Y965200D02*
X815300D01*
X812800Y962700D02*
Y967700D01*
X759500Y965200D02*
X764500D01*
X762000Y962700D02*
Y967700D01*
X708700Y965200D02*
X713700D01*
X711200Y962700D02*
Y967700D01*
X657900Y965200D02*
X662900D01*
X660400Y962700D02*
Y967700D01*
X607100Y965200D02*
X612100D01*
X609600Y962700D02*
Y967700D01*
X27500Y940000D02*
X32500D01*
X30000Y937500D02*
Y942500D01*
X27500Y920000D02*
X32500D01*
X30000Y917500D02*
Y922500D01*
X27500Y900000D02*
X32500D01*
X30000Y897500D02*
Y902500D01*
X27500Y880000D02*
X32500D01*
X30000Y877500D02*
Y882500D01*
X27500Y860000D02*
X32500D01*
X30000Y857500D02*
Y862500D01*
X27500Y840000D02*
X32500D01*
X30000Y837500D02*
Y842500D01*
X27500Y820000D02*
X32500D01*
X30000Y817500D02*
Y822500D01*
X27500Y800000D02*
X32500D01*
X30000Y797500D02*
Y802500D01*
X27500Y780000D02*
X32500D01*
X30000Y777500D02*
Y782500D01*
X47500Y780000D02*
X52500D01*
X50000Y777500D02*
Y782500D01*
X67500Y780000D02*
X72500D01*
X70000Y777500D02*
Y782500D01*
X87500Y780000D02*
X92500D01*
X90000Y777500D02*
Y782500D01*
X107500Y780000D02*
X112500D01*
X110000Y777500D02*
Y782500D01*
X127500Y780000D02*
X132500D01*
X130000Y777500D02*
Y782500D01*
X147500Y780000D02*
X152500D01*
X150000Y777500D02*
Y782500D01*
X167500Y780000D02*
X172500D01*
X170000Y777500D02*
Y782500D01*
X187500Y780000D02*
X192500D01*
X190000Y777500D02*
Y782500D01*
X207500Y780000D02*
X212500D01*
X210000Y777500D02*
Y782500D01*
X227500Y780000D02*
X232500D01*
X230000Y777500D02*
Y782500D01*
X247500Y780000D02*
X252500D01*
X250000Y777500D02*
Y782500D01*
X267500Y780000D02*
X272500D01*
X270000Y777500D02*
Y782500D01*
X287500Y780000D02*
X292500D01*
X290000Y777500D02*
Y782500D01*
X307500Y780000D02*
X312500D01*
X310000Y777500D02*
Y782500D01*
X327500Y780000D02*
X332500D01*
X330000Y777500D02*
Y782500D01*
X347500Y780000D02*
X352500D01*
X350000Y777500D02*
Y782500D01*
X367500Y780000D02*
X372500D01*
X370000Y777500D02*
Y782500D01*
X387500Y780000D02*
X392500D01*
X390000Y777500D02*
Y782500D01*
X407500Y780000D02*
X412500D01*
X410000Y777500D02*
Y782500D01*
X427500Y780000D02*
X432500D01*
X430000Y777500D02*
Y782500D01*
X447500Y780000D02*
X452500D01*
X450000Y777500D02*
Y782500D01*
X447500Y800000D02*
X452500D01*
X450000Y797500D02*
Y802500D01*
X447500Y820000D02*
X452500D01*
X450000Y817500D02*
Y822500D01*
X447500Y840000D02*
X452500D01*
X450000Y837500D02*
Y842500D01*
X447500Y860000D02*
X452500D01*
X450000Y857500D02*
Y862500D01*
X447500Y880000D02*
X452500D01*
X450000Y877500D02*
Y882500D01*
X447500Y900000D02*
X452500D01*
X450000Y897500D02*
Y902500D01*
X447500Y920000D02*
X452500D01*
X450000Y917500D02*
Y922500D01*
X447500Y940000D02*
X452500D01*
X450000Y937500D02*
Y942500D01*
X447500Y960000D02*
X452500D01*
X450000Y957500D02*
Y962500D01*
X427500Y960000D02*
X432500D01*
X430000Y957500D02*
Y962500D01*
X407500Y960000D02*
X412500D01*
X410000Y957500D02*
Y962500D01*
X387500Y960000D02*
X392500D01*
X390000Y957500D02*
Y962500D01*
X367500Y960000D02*
X372500D01*
X370000Y957500D02*
Y962500D01*
X347500Y960000D02*
X352500D01*
X350000Y957500D02*
Y962500D01*
X327500Y960000D02*
X332500D01*
X330000Y957500D02*
Y962500D01*
X307500Y960000D02*
X312500D01*
X310000Y957500D02*
Y962500D01*
X287500Y960000D02*
X292500D01*
X290000Y957500D02*
Y962500D01*
X267500Y960000D02*
X272500D01*
X270000Y957500D02*
Y962500D01*
X247500Y960000D02*
X252500D01*
X250000Y957500D02*
Y962500D01*
X227500Y960000D02*
X232500D01*
X230000Y957500D02*
Y962500D01*
X207500Y960000D02*
X212500D01*
X210000Y957500D02*
Y962500D01*
X187500Y960000D02*
X192500D01*
X190000Y957500D02*
Y962500D01*
X167500Y960000D02*
X172500D01*
X170000Y957500D02*
Y962500D01*
X147500Y960000D02*
X152500D01*
X150000Y957500D02*
Y962500D01*
X127500Y960000D02*
X132500D01*
X130000Y957500D02*
Y962500D01*
X107500Y960000D02*
X112500D01*
X110000Y957500D02*
Y962500D01*
X87500Y960000D02*
X92500D01*
X90000Y957500D02*
Y962500D01*
X67500Y960000D02*
X72500D01*
X70000Y957500D02*
Y962500D01*
X47500Y960000D02*
X52500D01*
X50000Y957500D02*
Y962500D01*
X27500Y960000D02*
X32500D01*
X30000Y957500D02*
Y962500D01*
X57500Y890000D02*
X62500D01*
X60000Y887500D02*
Y892500D01*
X357500Y870000D02*
X362500D01*
X360000Y867500D02*
Y872500D01*
X357500Y850000D02*
X362500D01*
X360000Y847500D02*
Y852500D01*
X357500Y830000D02*
X362500D01*
X360000Y827500D02*
Y832500D01*
X357500Y810000D02*
X362500D01*
X360000Y807500D02*
Y812500D01*
X377500Y810000D02*
X382500D01*
X380000Y807500D02*
Y812500D01*
X397500Y810000D02*
X402500D01*
X400000Y807500D02*
Y812500D01*
X417500Y810000D02*
X422500D01*
X420000Y807500D02*
Y812500D01*
X417500Y830000D02*
X422500D01*
X420000Y827500D02*
Y832500D01*
X417500Y850000D02*
X422500D01*
X420000Y847500D02*
Y852500D01*
X417500Y870000D02*
X422500D01*
X420000Y867500D02*
Y872500D01*
X417500Y890000D02*
X422500D01*
X420000Y887500D02*
Y892500D01*
X417500Y910000D02*
X422500D01*
X420000Y907500D02*
Y912500D01*
X397500Y910000D02*
X402500D01*
X400000Y907500D02*
Y912500D01*
X377500Y910000D02*
X382500D01*
X380000Y907500D02*
Y912500D01*
X357500Y910000D02*
X362500D01*
X360000Y907500D02*
Y912500D01*
X357500Y890000D02*
X362500D01*
X360000Y887500D02*
Y892500D01*
X257500Y870000D02*
X262500D01*
X260000Y867500D02*
Y872500D01*
X257500Y850000D02*
X262500D01*
X260000Y847500D02*
Y852500D01*
X257500Y830000D02*
X262500D01*
X260000Y827500D02*
Y832500D01*
X257500Y810000D02*
X262500D01*
X260000Y807500D02*
Y812500D01*
X277500Y810000D02*
X282500D01*
X280000Y807500D02*
Y812500D01*
X297500Y810000D02*
X302500D01*
X300000Y807500D02*
Y812500D01*
X317500Y810000D02*
X322500D01*
X320000Y807500D02*
Y812500D01*
X317500Y830000D02*
X322500D01*
X320000Y827500D02*
Y832500D01*
X317500Y850000D02*
X322500D01*
X320000Y847500D02*
Y852500D01*
X317500Y870000D02*
X322500D01*
X320000Y867500D02*
Y872500D01*
X317500Y890000D02*
X322500D01*
X320000Y887500D02*
Y892500D01*
X317500Y910000D02*
X322500D01*
X320000Y907500D02*
Y912500D01*
X297500Y910000D02*
X302500D01*
X300000Y907500D02*
Y912500D01*
X277500Y910000D02*
X282500D01*
X280000Y907500D02*
Y912500D01*
X257500Y910000D02*
X262500D01*
X260000Y907500D02*
Y912500D01*
X257500Y890000D02*
X262500D01*
X260000Y887500D02*
Y892500D01*
X157500Y870000D02*
X162500D01*
X160000Y867500D02*
Y872500D01*
X157500Y850000D02*
X162500D01*
X160000Y847500D02*
Y852500D01*
X157500Y830000D02*
X162500D01*
X160000Y827500D02*
Y832500D01*
X157500Y810000D02*
X162500D01*
X160000Y807500D02*
Y812500D01*
X177500Y810000D02*
X182500D01*
X180000Y807500D02*
Y812500D01*
X197500Y810000D02*
X202500D01*
X200000Y807500D02*
Y812500D01*
X217500Y810000D02*
X222500D01*
X220000Y807500D02*
Y812500D01*
X217500Y830000D02*
X222500D01*
X220000Y827500D02*
Y832500D01*
X217500Y850000D02*
X222500D01*
X220000Y847500D02*
Y852500D01*
X217500Y870000D02*
X222500D01*
X220000Y867500D02*
Y872500D01*
X217500Y890000D02*
X222500D01*
X220000Y887500D02*
Y892500D01*
X217500Y910000D02*
X222500D01*
X220000Y907500D02*
Y912500D01*
X197500Y910000D02*
X202500D01*
X200000Y907500D02*
Y912500D01*
X177500Y910000D02*
X182500D01*
X180000Y907500D02*
Y912500D01*
X157500Y910000D02*
X162500D01*
X160000Y907500D02*
Y912500D01*
X157500Y890000D02*
X162500D01*
X160000Y887500D02*
Y892500D01*
X97500Y910000D02*
X102500D01*
X100000Y907500D02*
Y912500D01*
X77500Y910000D02*
X82500D01*
X80000Y907500D02*
Y912500D01*
X57500Y910000D02*
X62500D01*
X60000Y907500D02*
Y912500D01*
X57500Y870000D02*
X62500D01*
X60000Y867500D02*
Y872500D01*
X57500Y850000D02*
X62500D01*
X60000Y847500D02*
Y852500D01*
X57500Y830000D02*
X62500D01*
X60000Y827500D02*
Y832500D01*
X57500Y810000D02*
X62500D01*
X60000Y807500D02*
Y812500D01*
X77500Y810000D02*
X82500D01*
X80000Y807500D02*
Y812500D01*
X97500Y810000D02*
X102500D01*
X100000Y807500D02*
Y812500D01*
X117500Y810000D02*
X122500D01*
X120000Y807500D02*
Y812500D01*
X117500Y830000D02*
X122500D01*
X120000Y827500D02*
Y832500D01*
X117500Y850000D02*
X122500D01*
X120000Y847500D02*
Y852500D01*
X117500Y870000D02*
X122500D01*
X120000Y867500D02*
Y872500D01*
X117500Y890000D02*
X122500D01*
X120000Y887500D02*
Y892500D01*
X117500Y910000D02*
X122500D01*
X120000Y907500D02*
Y912500D01*
X367500Y670000D02*
X372500D01*
X370000Y667500D02*
Y672500D01*
X87500Y710000D02*
X92500D01*
X90000Y707500D02*
Y712500D01*
X27500Y690000D02*
X32500D01*
X30000Y687500D02*
Y692500D01*
X207500Y670000D02*
X212500D01*
X210000Y667500D02*
Y672500D01*
X287500Y710000D02*
X292500D01*
X290000Y707500D02*
Y712500D01*
X267500Y710000D02*
X272500D01*
X270000Y707500D02*
Y712500D01*
X127500Y710000D02*
X132500D01*
X130000Y707500D02*
Y712500D01*
X187500Y670000D02*
X192500D01*
X190000Y667500D02*
Y672500D01*
X27500Y670000D02*
X32500D01*
X30000Y667500D02*
Y672500D01*
X387500Y670000D02*
X392500D01*
X390000Y667500D02*
Y672500D01*
X447500Y670000D02*
X452500D01*
X450000Y667500D02*
Y672500D01*
X447500Y710000D02*
X452500D01*
X450000Y707500D02*
Y712500D01*
X167500Y670000D02*
X172500D01*
X170000Y667500D02*
Y672500D01*
X287500Y670000D02*
X292500D01*
X290000Y667500D02*
Y672500D01*
X227500Y710000D02*
X232500D01*
X230000Y707500D02*
Y712500D01*
X307500Y710000D02*
X312500D01*
X310000Y707500D02*
Y712500D01*
X147500Y670000D02*
X152500D01*
X150000Y667500D02*
Y672500D01*
X87500Y670000D02*
X92500D01*
X90000Y667500D02*
Y672500D01*
X147500Y710000D02*
X152500D01*
X150000Y707500D02*
Y712500D01*
X307500Y670000D02*
X312500D01*
X310000Y667500D02*
Y672500D01*
X47500Y670000D02*
X52500D01*
X50000Y667500D02*
Y672500D01*
X247500Y670000D02*
X252500D01*
X250000Y667500D02*
Y672500D01*
X407500Y670000D02*
X412500D01*
X410000Y667500D02*
Y672500D01*
X47500Y710000D02*
X52500D01*
X50000Y707500D02*
Y712500D01*
X67500Y710000D02*
X72500D01*
X70000Y707500D02*
Y712500D01*
X107500Y710000D02*
X112500D01*
X110000Y707500D02*
Y712500D01*
X327500Y670000D02*
X332500D01*
X330000Y667500D02*
Y672500D01*
X367500Y710000D02*
X372500D01*
X370000Y707500D02*
Y712500D01*
X387500Y710000D02*
X392500D01*
X390000Y707500D02*
Y712500D01*
X447500Y690000D02*
X452500D01*
X450000Y687500D02*
Y692500D01*
X347500Y670000D02*
X352500D01*
X350000Y667500D02*
Y672500D01*
X67500Y670000D02*
X72500D01*
X70000Y667500D02*
Y672500D01*
X107500Y670000D02*
X112500D01*
X110000Y667500D02*
Y672500D01*
X167500Y710000D02*
X172500D01*
X170000Y707500D02*
Y712500D01*
X187500Y710000D02*
X192500D01*
X190000Y707500D02*
Y712500D01*
X207500Y710000D02*
X212500D01*
X210000Y707500D02*
Y712500D01*
X237500Y690000D02*
X242500D01*
X240000Y687500D02*
Y692500D01*
X407500Y710000D02*
X412500D01*
X410000Y707500D02*
Y712500D01*
X227500Y670000D02*
X232500D01*
X230000Y667500D02*
Y672500D01*
X427500Y670000D02*
X432500D01*
X430000Y667500D02*
Y672500D01*
X27500Y710000D02*
X32500D01*
X30000Y707500D02*
Y712500D01*
X327500Y710000D02*
X332500D01*
X330000Y707500D02*
Y712500D01*
X347500Y710000D02*
X352500D01*
X350000Y707500D02*
Y712500D01*
X267500Y670000D02*
X272500D01*
X270000Y667500D02*
Y672500D01*
X127500Y670000D02*
X132500D01*
X130000Y667500D02*
Y672500D01*
X247500Y710000D02*
X252500D01*
X250000Y707500D02*
Y712500D01*
X427500Y710000D02*
X432500D01*
X430000Y707500D02*
Y712500D01*
X67500Y530000D02*
X72500D01*
X70000Y527500D02*
Y532500D01*
X47500Y570000D02*
X52500D01*
X50000Y567500D02*
Y572500D01*
X407500Y570000D02*
X412500D01*
X410000Y567500D02*
Y572500D01*
X347500Y570000D02*
X352500D01*
X350000Y567500D02*
Y572500D01*
X227500Y530000D02*
X232500D01*
X230000Y527500D02*
Y532500D01*
X207500Y570000D02*
X212500D01*
X210000Y567500D02*
Y572500D01*
X367500Y530000D02*
X372500D01*
X370000Y527500D02*
Y532500D01*
X87500Y530000D02*
X92500D01*
X90000Y527500D02*
Y532500D01*
X247500Y530000D02*
X252500D01*
X250000Y527500D02*
Y532500D01*
X327500Y570000D02*
X332500D01*
X330000Y567500D02*
Y572500D01*
X387500Y570000D02*
X392500D01*
X390000Y567500D02*
Y572500D01*
X387500Y530000D02*
X392500D01*
X390000Y527500D02*
Y532500D01*
X227500Y570000D02*
X232500D01*
X230000Y567500D02*
Y572500D01*
X67500Y570000D02*
X72500D01*
X70000Y567500D02*
Y572500D01*
X187500Y570000D02*
X192500D01*
X190000Y567500D02*
Y572500D01*
X207500Y530000D02*
X212500D01*
X210000Y527500D02*
Y532500D01*
X427500Y570000D02*
X432500D01*
X430000Y567500D02*
Y572500D01*
X347500Y530000D02*
X352500D01*
X350000Y527500D02*
Y532500D01*
X27500Y570000D02*
X32500D01*
X30000Y567500D02*
Y572500D01*
X47500Y530000D02*
X52500D01*
X50000Y527500D02*
Y532500D01*
X127500Y570000D02*
X132500D01*
X130000Y567500D02*
Y572500D01*
X147500Y530000D02*
X152500D01*
X150000Y527500D02*
Y532500D01*
X287500Y530000D02*
X292500D01*
X290000Y527500D02*
Y532500D01*
X237500Y550000D02*
X242500D01*
X240000Y547500D02*
Y552500D01*
X447500Y530000D02*
X452500D01*
X450000Y527500D02*
Y532500D01*
X147500Y570000D02*
X152500D01*
X150000Y567500D02*
Y572500D01*
X167500Y530000D02*
X172500D01*
X170000Y527500D02*
Y532500D01*
X307500Y530000D02*
X312500D01*
X310000Y527500D02*
Y532500D01*
X27500Y530000D02*
X32500D01*
X30000Y527500D02*
Y532500D01*
X447500Y550000D02*
X452500D01*
X450000Y547500D02*
Y552500D01*
X447500Y570000D02*
X452500D01*
X450000Y567500D02*
Y572500D01*
X167500Y570000D02*
X172500D01*
X170000Y567500D02*
Y572500D01*
X187500Y530000D02*
X192500D01*
X190000Y527500D02*
Y532500D01*
X327500Y530000D02*
X332500D01*
X330000Y527500D02*
Y532500D01*
X27500Y550000D02*
X32500D01*
X30000Y547500D02*
Y552500D01*
X87500Y570000D02*
X92500D01*
X90000Y567500D02*
Y572500D01*
X107500Y530000D02*
X112500D01*
X110000Y527500D02*
Y532500D01*
X367500Y570000D02*
X372500D01*
X370000Y567500D02*
Y572500D01*
X267500Y570000D02*
X272500D01*
X270000Y567500D02*
Y572500D01*
X307500Y570000D02*
X312500D01*
X310000Y567500D02*
Y572500D01*
X407500Y530000D02*
X412500D01*
X410000Y527500D02*
Y532500D01*
X247500Y570000D02*
X252500D01*
X250000Y567500D02*
Y572500D01*
X107500Y570000D02*
X112500D01*
X110000Y567500D02*
Y572500D01*
X127500Y530000D02*
X132500D01*
X130000Y527500D02*
Y532500D01*
X267500Y530000D02*
X272500D01*
X270000Y527500D02*
Y532500D01*
X287500Y570000D02*
X292500D01*
X290000Y567500D02*
Y572500D01*
X427500Y530000D02*
X432500D01*
X430000Y527500D02*
Y532500D01*
X167500Y460000D02*
X172500D01*
X170000Y457500D02*
Y462500D01*
X187500Y460000D02*
X192500D01*
X190000Y457500D02*
Y462500D01*
X147500Y460000D02*
X152500D01*
X150000Y457500D02*
Y462500D01*
X127500Y460000D02*
X132500D01*
X130000Y457500D02*
Y462500D01*
X107500Y460000D02*
X112500D01*
X110000Y457500D02*
Y462500D01*
X87500Y460000D02*
X92500D01*
X90000Y457500D02*
Y462500D01*
X67500Y460000D02*
X72500D01*
X70000Y457500D02*
Y462500D01*
X47500Y460000D02*
X52500D01*
X50000Y457500D02*
Y462500D01*
X27500Y460000D02*
X32500D01*
X30000Y457500D02*
Y462500D01*
X27500Y440000D02*
X32500D01*
X30000Y437500D02*
Y442500D01*
X27500Y420000D02*
X32500D01*
X30000Y417500D02*
Y422500D01*
X47500Y420000D02*
X52500D01*
X50000Y417500D02*
Y422500D01*
X67500Y420000D02*
X72500D01*
X70000Y417500D02*
Y422500D01*
X87500Y420000D02*
X92500D01*
X90000Y417500D02*
Y422500D01*
X107500Y420000D02*
X112500D01*
X110000Y417500D02*
Y422500D01*
X127500Y420000D02*
X132500D01*
X130000Y417500D02*
Y422500D01*
X147500Y420000D02*
X152500D01*
X150000Y417500D02*
Y422500D01*
X167500Y420000D02*
X172500D01*
X170000Y417500D02*
Y422500D01*
X187500Y420000D02*
X192500D01*
X190000Y417500D02*
Y422500D01*
X207500Y420000D02*
X212500D01*
X210000Y417500D02*
Y422500D01*
X207500Y460000D02*
X212500D01*
X210000Y457500D02*
Y462500D01*
X237500Y440000D02*
X242500D01*
X240000Y437500D02*
Y442500D01*
X227500Y420000D02*
X232500D01*
X230000Y417500D02*
Y422500D01*
X247500Y420000D02*
X252500D01*
X250000Y417500D02*
Y422500D01*
X267500Y420000D02*
X272500D01*
X270000Y417500D02*
Y422500D01*
X227500Y460000D02*
X232500D01*
X230000Y457500D02*
Y462500D01*
X247500Y460000D02*
X252500D01*
X250000Y457500D02*
Y462500D01*
X267500Y460000D02*
X272500D01*
X270000Y457500D02*
Y462500D01*
X287500Y460000D02*
X292500D01*
X290000Y457500D02*
Y462500D01*
X307500Y460000D02*
X312500D01*
X310000Y457500D02*
Y462500D01*
X327500Y460000D02*
X332500D01*
X330000Y457500D02*
Y462500D01*
X347500Y460000D02*
X352500D01*
X350000Y457500D02*
Y462500D01*
X367500Y460000D02*
X372500D01*
X370000Y457500D02*
Y462500D01*
X387500Y460000D02*
X392500D01*
X390000Y457500D02*
Y462500D01*
X407500Y460000D02*
X412500D01*
X410000Y457500D02*
Y462500D01*
X427500Y460000D02*
X432500D01*
X430000Y457500D02*
Y462500D01*
X287500Y420000D02*
X292500D01*
X290000Y417500D02*
Y422500D01*
X307500Y420000D02*
X312500D01*
X310000Y417500D02*
Y422500D01*
X327500Y420000D02*
X332500D01*
X330000Y417500D02*
Y422500D01*
X347500Y420000D02*
X352500D01*
X350000Y417500D02*
Y422500D01*
X367500Y420000D02*
X372500D01*
X370000Y417500D02*
Y422500D01*
X387500Y420000D02*
X392500D01*
X390000Y417500D02*
Y422500D01*
X407500Y420000D02*
X412500D01*
X410000Y417500D02*
Y422500D01*
X427500Y420000D02*
X432500D01*
X430000Y417500D02*
Y422500D01*
X447500Y420000D02*
X452500D01*
X450000Y417500D02*
Y422500D01*
X447500Y440000D02*
X452500D01*
X450000Y437500D02*
Y442500D01*
X447500Y460000D02*
X452500D01*
X450000Y457500D02*
Y462500D01*
X237500Y300000D02*
X242500D01*
X240000Y297500D02*
Y302500D01*
X287500Y320000D02*
X292500D01*
X290000Y317500D02*
Y322500D01*
X307500Y320000D02*
X312500D01*
X310000Y317500D02*
Y322500D01*
X327500Y320000D02*
X332500D01*
X330000Y317500D02*
Y322500D01*
X347500Y320000D02*
X352500D01*
X350000Y317500D02*
Y322500D01*
X367500Y320000D02*
X372500D01*
X370000Y317500D02*
Y322500D01*
X387500Y320000D02*
X392500D01*
X390000Y317500D02*
Y322500D01*
X407500Y320000D02*
X412500D01*
X410000Y317500D02*
Y322500D01*
X427500Y320000D02*
X432500D01*
X430000Y317500D02*
Y322500D01*
X447500Y320000D02*
X452500D01*
X450000Y317500D02*
Y322500D01*
X447500Y300000D02*
X452500D01*
X450000Y297500D02*
Y302500D01*
X447500Y280000D02*
X452500D01*
X450000Y277500D02*
Y282500D01*
X427500Y280000D02*
X432500D01*
X430000Y277500D02*
Y282500D01*
X407500Y280000D02*
X412500D01*
X410000Y277500D02*
Y282500D01*
X387500Y280000D02*
X392500D01*
X390000Y277500D02*
Y282500D01*
X367500Y280000D02*
X372500D01*
X370000Y277500D02*
Y282500D01*
X347500Y280000D02*
X352500D01*
X350000Y277500D02*
Y282500D01*
X327500Y280000D02*
X332500D01*
X330000Y277500D02*
Y282500D01*
X307500Y280000D02*
X312500D01*
X310000Y277500D02*
Y282500D01*
X287500Y280000D02*
X292500D01*
X290000Y277500D02*
Y282500D01*
X267500Y280000D02*
X272500D01*
X270000Y277500D02*
Y282500D01*
X267500Y320000D02*
X272500D01*
X270000Y317500D02*
Y322500D01*
X247500Y280000D02*
X252500D01*
X250000Y277500D02*
Y282500D01*
X227500Y280000D02*
X232500D01*
X230000Y277500D02*
Y282500D01*
X207500Y280000D02*
X212500D01*
X210000Y277500D02*
Y282500D01*
X187500Y280000D02*
X192500D01*
X190000Y277500D02*
Y282500D01*
X167500Y280000D02*
X172500D01*
X170000Y277500D02*
Y282500D01*
X147500Y280000D02*
X152500D01*
X150000Y277500D02*
Y282500D01*
X127500Y280000D02*
X132500D01*
X130000Y277500D02*
Y282500D01*
X107500Y280000D02*
X112500D01*
X110000Y277500D02*
Y282500D01*
X87500Y280000D02*
X92500D01*
X90000Y277500D02*
Y282500D01*
X67500Y280000D02*
X72500D01*
X70000Y277500D02*
Y282500D01*
X47500Y280000D02*
X52500D01*
X50000Y277500D02*
Y282500D01*
X237500Y400000D02*
X242500D01*
X240000Y397500D02*
Y402500D01*
X237500Y380000D02*
X242500D01*
X240000Y377500D02*
Y382500D01*
X237500Y360000D02*
X242500D01*
X240000Y357500D02*
Y362500D01*
X237500Y340000D02*
X242500D01*
X240000Y337500D02*
Y342500D01*
X247500Y320000D02*
X252500D01*
X250000Y317500D02*
Y322500D01*
X227500Y320000D02*
X232500D01*
X230000Y317500D02*
Y322500D01*
X207500Y320000D02*
X212500D01*
X210000Y317500D02*
Y322500D01*
X187500Y320000D02*
X192500D01*
X190000Y317500D02*
Y322500D01*
X167500Y320000D02*
X172500D01*
X170000Y317500D02*
Y322500D01*
X147500Y320000D02*
X152500D01*
X150000Y317500D02*
Y322500D01*
X127500Y320000D02*
X132500D01*
X130000Y317500D02*
Y322500D01*
X107500Y320000D02*
X112500D01*
X110000Y317500D02*
Y322500D01*
X87500Y320000D02*
X92500D01*
X90000Y317500D02*
Y322500D01*
X67500Y320000D02*
X72500D01*
X70000Y317500D02*
Y322500D01*
X47500Y320000D02*
X52500D01*
X50000Y317500D02*
Y322500D01*
X27500Y320000D02*
X32500D01*
X30000Y317500D02*
Y322500D01*
X27500Y300000D02*
X32500D01*
X30000Y297500D02*
Y302500D01*
X27500Y280000D02*
X32500D01*
X30000Y277500D02*
Y282500D01*
X107500Y210000D02*
X112500D01*
X110000Y207500D02*
Y212500D01*
X127500Y210000D02*
X132500D01*
X130000Y207500D02*
Y212500D01*
X147500Y210000D02*
X152500D01*
X150000Y207500D02*
Y212500D01*
X167500Y210000D02*
X172500D01*
X170000Y207500D02*
Y212500D01*
X187500Y210000D02*
X192500D01*
X190000Y207500D02*
Y212500D01*
X207500Y210000D02*
X212500D01*
X210000Y207500D02*
Y212500D01*
X237500Y190000D02*
X242500D01*
X240000Y187500D02*
Y192500D01*
X227500Y210000D02*
X232500D01*
X230000Y207500D02*
Y212500D01*
X247500Y210000D02*
X252500D01*
X250000Y207500D02*
Y212500D01*
X267500Y210000D02*
X272500D01*
X270000Y207500D02*
Y212500D01*
X287500Y210000D02*
X292500D01*
X290000Y207500D02*
Y212500D01*
X307500Y210000D02*
X312500D01*
X310000Y207500D02*
Y212500D01*
X327500Y210000D02*
X332500D01*
X330000Y207500D02*
Y212500D01*
X347500Y210000D02*
X352500D01*
X350000Y207500D02*
Y212500D01*
X367500Y210000D02*
X372500D01*
X370000Y207500D02*
Y212500D01*
X387500Y210000D02*
X392500D01*
X390000Y207500D02*
Y212500D01*
X407500Y210000D02*
X412500D01*
X410000Y207500D02*
Y212500D01*
X427500Y210000D02*
X432500D01*
X430000Y207500D02*
Y212500D01*
X447500Y210000D02*
X452500D01*
X450000Y207500D02*
Y212500D01*
X447500Y190000D02*
X452500D01*
X450000Y187500D02*
Y192500D01*
X447500Y170000D02*
X452500D01*
X450000Y167500D02*
Y172500D01*
X427500Y170000D02*
X432500D01*
X430000Y167500D02*
Y172500D01*
X407500Y170000D02*
X412500D01*
X410000Y167500D02*
Y172500D01*
X387500Y170000D02*
X392500D01*
X390000Y167500D02*
Y172500D01*
X367500Y170000D02*
X372500D01*
X370000Y167500D02*
Y172500D01*
X347500Y170000D02*
X352500D01*
X350000Y167500D02*
Y172500D01*
X327500Y170000D02*
X332500D01*
X330000Y167500D02*
Y172500D01*
X307500Y170000D02*
X312500D01*
X310000Y167500D02*
Y172500D01*
X287500Y170000D02*
X292500D01*
X290000Y167500D02*
Y172500D01*
X267500Y170000D02*
X272500D01*
X270000Y167500D02*
Y172500D01*
X247500Y170000D02*
X252500D01*
X250000Y167500D02*
Y172500D01*
X227500Y170000D02*
X232500D01*
X230000Y167500D02*
Y172500D01*
X207500Y170000D02*
X212500D01*
X210000Y167500D02*
Y172500D01*
X187500Y170000D02*
X192500D01*
X190000Y167500D02*
Y172500D01*
X167500Y170000D02*
X172500D01*
X170000Y167500D02*
Y172500D01*
X147500Y170000D02*
X152500D01*
X150000Y167500D02*
Y172500D01*
X127500Y170000D02*
X132500D01*
X130000Y167500D02*
Y172500D01*
X107500Y170000D02*
X112500D01*
X110000Y167500D02*
Y172500D01*
X87500Y170000D02*
X92500D01*
X90000Y167500D02*
Y172500D01*
X67500Y170000D02*
X72500D01*
X70000Y167500D02*
Y172500D01*
X87500Y210000D02*
X92500D01*
X90000Y207500D02*
Y212500D01*
X67500Y210000D02*
X72500D01*
X70000Y207500D02*
Y212500D01*
X47500Y210000D02*
X52500D01*
X50000Y207500D02*
Y212500D01*
X27500Y210000D02*
X32500D01*
X30000Y207500D02*
Y212500D01*
X27500Y190000D02*
X32500D01*
X30000Y187500D02*
Y192500D01*
X47500Y170000D02*
X52500D01*
X50000Y167500D02*
Y172500D01*
X27500Y170000D02*
X32500D01*
X30000Y167500D02*
Y172500D01*
X237500Y50000D02*
X242500D01*
X240000Y47500D02*
Y52500D01*
X47500Y30000D02*
X52500D01*
X50000Y27500D02*
Y32500D01*
X67500Y30000D02*
X72500D01*
X70000Y27500D02*
Y32500D01*
X87500Y30000D02*
X92500D01*
X90000Y27500D02*
Y32500D01*
X107500Y30000D02*
X112500D01*
X110000Y27500D02*
Y32500D01*
X127500Y30000D02*
X132500D01*
X130000Y27500D02*
Y32500D01*
X147500Y30000D02*
X152500D01*
X150000Y27500D02*
Y32500D01*
X167500Y30000D02*
X172500D01*
X170000Y27500D02*
Y32500D01*
X187500Y30000D02*
X192500D01*
X190000Y27500D02*
Y32500D01*
X207500Y30000D02*
X212500D01*
X210000Y27500D02*
Y32500D01*
X227500Y30000D02*
X232500D01*
X230000Y27500D02*
Y32500D01*
X247500Y30000D02*
X252500D01*
X250000Y27500D02*
Y32500D01*
X267500Y30000D02*
X272500D01*
X270000Y27500D02*
Y32500D01*
X287500Y30000D02*
X292500D01*
X290000Y27500D02*
Y32500D01*
X307500Y30000D02*
X312500D01*
X310000Y27500D02*
Y32500D01*
X327500Y30000D02*
X332500D01*
X330000Y27500D02*
Y32500D01*
X347500Y30000D02*
X352500D01*
X350000Y27500D02*
Y32500D01*
X367500Y30000D02*
X372500D01*
X370000Y27500D02*
Y32500D01*
X387500Y30000D02*
X392500D01*
X390000Y27500D02*
Y32500D01*
X407500Y30000D02*
X412500D01*
X410000Y27500D02*
Y32500D01*
X427500Y30000D02*
X432500D01*
X430000Y27500D02*
Y32500D01*
X447500Y30000D02*
X452500D01*
X450000Y27500D02*
Y32500D01*
X447500Y50000D02*
X452500D01*
X450000Y47500D02*
Y52500D01*
X447500Y70000D02*
X452500D01*
X450000Y67500D02*
Y72500D01*
X427500Y70000D02*
X432500D01*
X430000Y67500D02*
Y72500D01*
X407500Y70000D02*
X412500D01*
X410000Y67500D02*
Y72500D01*
X387500Y70000D02*
X392500D01*
X390000Y67500D02*
Y72500D01*
X367500Y70000D02*
X372500D01*
X370000Y67500D02*
Y72500D01*
X347500Y70000D02*
X352500D01*
X350000Y67500D02*
Y72500D01*
X327500Y70000D02*
X332500D01*
X330000Y67500D02*
Y72500D01*
X307500Y70000D02*
X312500D01*
X310000Y67500D02*
Y72500D01*
X287500Y70000D02*
X292500D01*
X290000Y67500D02*
Y72500D01*
X267500Y70000D02*
X272500D01*
X270000Y67500D02*
Y72500D01*
X237500Y150000D02*
X242500D01*
X240000Y147500D02*
Y152500D01*
X237500Y130000D02*
X242500D01*
X240000Y127500D02*
Y132500D01*
X237500Y110000D02*
X242500D01*
X240000Y107500D02*
Y112500D01*
X237500Y90000D02*
X242500D01*
X240000Y87500D02*
Y92500D01*
X247500Y70000D02*
X252500D01*
X250000Y67500D02*
Y72500D01*
X227500Y70000D02*
X232500D01*
X230000Y67500D02*
Y72500D01*
X207500Y70000D02*
X212500D01*
X210000Y67500D02*
Y72500D01*
X187500Y70000D02*
X192500D01*
X190000Y67500D02*
Y72500D01*
X167500Y70000D02*
X172500D01*
X170000Y67500D02*
Y72500D01*
X147500Y70000D02*
X152500D01*
X150000Y67500D02*
Y72500D01*
X127500Y70000D02*
X132500D01*
X130000Y67500D02*
Y72500D01*
X107500Y70000D02*
X112500D01*
X110000Y67500D02*
Y72500D01*
X87500Y70000D02*
X92500D01*
X90000Y67500D02*
Y72500D01*
X67500Y70000D02*
X72500D01*
X70000Y67500D02*
Y72500D01*
X47500Y70000D02*
X52500D01*
X50000Y67500D02*
Y72500D01*
X27500Y70000D02*
X32500D01*
X30000Y67500D02*
Y72500D01*
X27500Y50000D02*
X32500D01*
X30000Y47500D02*
Y52500D01*
X27500Y30000D02*
X32500D01*
X30000Y27500D02*
Y32500D01*
M02*
