G04*
G04 #@! TF.GenerationSoftware,Altium Limited,Altium Designer,25.2.1 (25)*
G04*
G04 Layer_Color=32896*
%FSLAX44Y44*%
%MOMM*%
G71*
G04*
G04 #@! TF.SameCoordinates,2B517493-A32E-4929-9694-E162711A69F2*
G04*
G04*
G04 #@! TF.FilePolarity,Positive*
G04*
G01*
G75*
%ADD11C,0.2540*%
%ADD12C,0.2500*%
%ADD30C,0.5000*%
%ADD63C,0.7000*%
D11*
X490000Y0D02*
Y990000D01*
X500000Y0D02*
Y990000D01*
X480000Y0D02*
Y990000D01*
X599440Y673100D02*
X899160D01*
X599440Y495300D02*
X899160D01*
X599440Y317500D02*
X899160D01*
X599440Y774700D02*
X721360D01*
X749300Y802640D02*
Y896620D01*
Y899160D01*
X927100Y66040D02*
Y924560D01*
X599440Y927100D02*
X899160D01*
X571500Y66040D02*
Y924560D01*
X599440Y63500D02*
X899160D01*
X571500Y924560D02*
Y927100D01*
X599440D01*
X596900Y63500D02*
Y927100D01*
X571500Y63500D02*
X596900D01*
X571500D02*
Y66040D01*
X596900Y63500D02*
X599440D01*
X596900Y88900D02*
X901700D01*
Y63500D02*
Y88900D01*
X899160Y63500D02*
X901700D01*
X899160D02*
X927100D01*
Y66040D01*
X901700Y88900D02*
Y927100D01*
X899160D02*
X901700D01*
X899160D02*
X927100D01*
Y924560D02*
Y927100D01*
X596900Y901700D02*
X901700D01*
X596900Y774700D02*
X599440D01*
X596900Y800100D02*
X749300D01*
Y802640D01*
X721360Y774700D02*
X723900D01*
Y800100D01*
Y901700D01*
X749300Y899160D02*
Y901700D01*
X596900Y673100D02*
X599440D01*
X596900D02*
Y698500D01*
X901700D01*
Y673100D02*
Y698500D01*
X899160Y673100D02*
X901700D01*
X596900Y647700D02*
X901700D01*
X596900Y495300D02*
X599440D01*
X596900D02*
Y520700D01*
X901700D01*
Y495300D02*
Y520700D01*
X899160Y495300D02*
X901700D01*
X899160D02*
X901700D01*
Y469900D02*
Y495300D01*
X596900Y469900D02*
X901700D01*
X596900Y317500D02*
X599440D01*
X596900D02*
Y342900D01*
X901700D01*
X899160Y317500D02*
X901700D01*
X596900Y292100D02*
X901700D01*
D12*
X939840Y883880D02*
X935841D01*
X937841D01*
Y895876D01*
X939840Y893877D01*
X560676Y919277D02*
X558677Y921276D01*
X554678D01*
X552679Y919277D01*
Y911279D01*
X554678Y909280D01*
X558677D01*
X560676Y911279D01*
Y919277D01*
Y81077D02*
X558677Y83076D01*
X554678D01*
X552679Y81077D01*
Y79077D01*
X554678Y77078D01*
X556677D01*
X554678D01*
X552679Y75079D01*
Y73079D01*
X554678Y71080D01*
X558677D01*
X560676Y73079D01*
X548680Y81077D02*
X546681Y83076D01*
X542682D01*
X540683Y81077D01*
Y79077D01*
X542682Y77078D01*
X544681D01*
X542682D01*
X540683Y75079D01*
Y73079D01*
X542682Y71080D01*
X546681D01*
X548680Y73079D01*
X560676Y106477D02*
X558677Y108476D01*
X554678D01*
X552679Y106477D01*
Y104477D01*
X554678Y102478D01*
X556677D01*
X554678D01*
X552679Y100479D01*
Y98479D01*
X554678Y96480D01*
X558677D01*
X560676Y98479D01*
X540683Y96480D02*
X548680D01*
X540683Y104477D01*
Y106477D01*
X542682Y108476D01*
X546681D01*
X548680Y106477D01*
X560676Y131877D02*
X558677Y133876D01*
X554678D01*
X552679Y131877D01*
Y129877D01*
X554678Y127878D01*
X556677D01*
X554678D01*
X552679Y125879D01*
Y123879D01*
X554678Y121880D01*
X558677D01*
X560676Y123879D01*
X548680Y121880D02*
X544681D01*
X546681D01*
Y133876D01*
X548680Y131877D01*
X560676Y157277D02*
X558677Y159276D01*
X554678D01*
X552679Y157277D01*
Y155277D01*
X554678Y153278D01*
X556677D01*
X554678D01*
X552679Y151279D01*
Y149279D01*
X554678Y147280D01*
X558677D01*
X560676Y149279D01*
X548680Y157277D02*
X546681Y159276D01*
X542682D01*
X540683Y157277D01*
Y149279D01*
X542682Y147280D01*
X546681D01*
X548680Y149279D01*
Y157277D01*
X552679Y172680D02*
X560676D01*
X552679Y180677D01*
Y182677D01*
X554678Y184676D01*
X558677D01*
X560676Y182677D01*
X548680Y174679D02*
X546681Y172680D01*
X542682D01*
X540683Y174679D01*
Y182677D01*
X542682Y184676D01*
X546681D01*
X548680Y182677D01*
Y180677D01*
X546681Y178678D01*
X540683D01*
X552679Y198080D02*
X560676D01*
X552679Y206077D01*
Y208077D01*
X554678Y210076D01*
X558677D01*
X560676Y208077D01*
X548680D02*
X546681Y210076D01*
X542682D01*
X540683Y208077D01*
Y206077D01*
X542682Y204078D01*
X540683Y202079D01*
Y200079D01*
X542682Y198080D01*
X546681D01*
X548680Y200079D01*
Y202079D01*
X546681Y204078D01*
X548680Y206077D01*
Y208077D01*
X546681Y204078D02*
X542682D01*
X552679Y223480D02*
X560676D01*
X552679Y231477D01*
Y233477D01*
X554678Y235476D01*
X558677D01*
X560676Y233477D01*
X548680Y235476D02*
X540683D01*
Y233477D01*
X548680Y225479D01*
Y223480D01*
X552679Y248880D02*
X560676D01*
X552679Y256877D01*
Y258877D01*
X554678Y260876D01*
X558677D01*
X560676Y258877D01*
X540683Y260876D02*
X544681Y258877D01*
X548680Y254878D01*
Y250879D01*
X546681Y248880D01*
X542682D01*
X540683Y250879D01*
Y252879D01*
X542682Y254878D01*
X548680D01*
X552679Y274280D02*
X560676D01*
X552679Y282277D01*
Y284277D01*
X554678Y286276D01*
X558677D01*
X560676Y284277D01*
X540683Y286276D02*
X548680D01*
Y280278D01*
X544681Y282277D01*
X542682D01*
X540683Y280278D01*
Y276279D01*
X542682Y274280D01*
X546681D01*
X548680Y276279D01*
X552679Y299680D02*
X560676D01*
X552679Y307677D01*
Y309677D01*
X554678Y311676D01*
X558677D01*
X560676Y309677D01*
X542682Y299680D02*
Y311676D01*
X548680Y305678D01*
X540683D01*
X552679Y325080D02*
X560676D01*
X552679Y333077D01*
Y335077D01*
X554678Y337076D01*
X558677D01*
X560676Y335077D01*
X548680D02*
X546681Y337076D01*
X542682D01*
X540683Y335077D01*
Y333077D01*
X542682Y331078D01*
X544681D01*
X542682D01*
X540683Y329079D01*
Y327079D01*
X542682Y325080D01*
X546681D01*
X548680Y327079D01*
X552679Y350480D02*
X560676D01*
X552679Y358477D01*
Y360477D01*
X554678Y362476D01*
X558677D01*
X560676Y360477D01*
X540683Y350480D02*
X548680D01*
X540683Y358477D01*
Y360477D01*
X542682Y362476D01*
X546681D01*
X548680Y360477D01*
X552679Y375880D02*
X560676D01*
X552679Y383877D01*
Y385877D01*
X554678Y387876D01*
X558677D01*
X560676Y385877D01*
X548680Y375880D02*
X544681D01*
X546681D01*
Y387876D01*
X548680Y385877D01*
X552679Y401280D02*
X560676D01*
X552679Y409277D01*
Y411277D01*
X554678Y413276D01*
X558677D01*
X560676Y411277D01*
X548680D02*
X546681Y413276D01*
X542682D01*
X540683Y411277D01*
Y403279D01*
X542682Y401280D01*
X546681D01*
X548680Y403279D01*
Y411277D01*
X560676Y426680D02*
X556677D01*
X558677D01*
Y438676D01*
X560676Y436677D01*
X550679Y428679D02*
X548680Y426680D01*
X544681D01*
X542682Y428679D01*
Y436677D01*
X544681Y438676D01*
X548680D01*
X550679Y436677D01*
Y434677D01*
X548680Y432678D01*
X542682D01*
X560676Y452080D02*
X556677D01*
X558677D01*
Y464076D01*
X560676Y462077D01*
X550679D02*
X548680Y464076D01*
X544681D01*
X542682Y462077D01*
Y460077D01*
X544681Y458078D01*
X542682Y456079D01*
Y454079D01*
X544681Y452080D01*
X548680D01*
X550679Y454079D01*
Y456079D01*
X548680Y458078D01*
X550679Y460077D01*
Y462077D01*
X548680Y458078D02*
X544681D01*
X560676Y477480D02*
X556677D01*
X558677D01*
Y489476D01*
X560676Y487477D01*
X550679Y489476D02*
X542682D01*
Y487477D01*
X550679Y479479D01*
Y477480D01*
X560676Y502880D02*
X556677D01*
X558677D01*
Y514876D01*
X560676Y512877D01*
X542682Y514876D02*
X546681Y512877D01*
X550679Y508878D01*
Y504879D01*
X548680Y502880D01*
X544681D01*
X542682Y504879D01*
Y506879D01*
X544681Y508878D01*
X550679D01*
X560676Y528280D02*
X556677D01*
X558677D01*
Y540276D01*
X560676Y538277D01*
X542682Y540276D02*
X550679D01*
Y534278D01*
X546681Y536277D01*
X544681D01*
X542682Y534278D01*
Y530279D01*
X544681Y528280D01*
X548680D01*
X550679Y530279D01*
X560676Y553680D02*
X556677D01*
X558677D01*
Y565676D01*
X560676Y563677D01*
X544681Y553680D02*
Y565676D01*
X550679Y559678D01*
X542682D01*
X560676Y579080D02*
X556677D01*
X558677D01*
Y591076D01*
X560676Y589077D01*
X550679D02*
X548680Y591076D01*
X544681D01*
X542682Y589077D01*
Y587077D01*
X544681Y585078D01*
X546681D01*
X544681D01*
X542682Y583079D01*
Y581079D01*
X544681Y579080D01*
X548680D01*
X550679Y581079D01*
X560676Y604480D02*
X556677D01*
X558677D01*
Y616476D01*
X560676Y614477D01*
X542682Y604480D02*
X550679D01*
X542682Y612477D01*
Y614477D01*
X544681Y616476D01*
X548680D01*
X550679Y614477D01*
X560676Y629880D02*
X556677D01*
X558677D01*
Y641876D01*
X560676Y639877D01*
X550679Y629880D02*
X546681D01*
X548680D01*
Y641876D01*
X550679Y639877D01*
X560676Y655280D02*
X556677D01*
X558677D01*
Y667276D01*
X560676Y665277D01*
X550679D02*
X548680Y667276D01*
X544681D01*
X542682Y665277D01*
Y657279D01*
X544681Y655280D01*
X548680D01*
X550679Y657279D01*
Y665277D01*
X560676Y682679D02*
X558677Y680680D01*
X554678D01*
X552679Y682679D01*
Y690677D01*
X554678Y692676D01*
X558677D01*
X560676Y690677D01*
Y688677D01*
X558677Y686678D01*
X552679D01*
X560676Y716077D02*
X558677Y718076D01*
X554678D01*
X552679Y716077D01*
Y714077D01*
X554678Y712078D01*
X552679Y710079D01*
Y708079D01*
X554678Y706080D01*
X558677D01*
X560676Y708079D01*
Y710079D01*
X558677Y712078D01*
X560676Y714077D01*
Y716077D01*
X558677Y712078D02*
X554678D01*
X560676Y743476D02*
X552679D01*
Y741477D01*
X560676Y733479D01*
Y731480D01*
X552679Y768876D02*
X556677Y766877D01*
X560676Y762878D01*
Y758879D01*
X558677Y756880D01*
X554678D01*
X552679Y758879D01*
Y760879D01*
X554678Y762878D01*
X560676D01*
X552679Y794276D02*
X560676D01*
Y788278D01*
X556677Y790277D01*
X554678D01*
X552679Y788278D01*
Y784279D01*
X554678Y782280D01*
X558677D01*
X560676Y784279D01*
X554678Y807680D02*
Y819676D01*
X560676Y813678D01*
X552679D01*
X560676Y843077D02*
X558677Y845076D01*
X554678D01*
X552679Y843077D01*
Y841077D01*
X554678Y839078D01*
X556677D01*
X554678D01*
X552679Y837079D01*
Y835079D01*
X554678Y833080D01*
X558677D01*
X560676Y835079D01*
X552679Y858480D02*
X560676D01*
X552679Y866477D01*
Y868477D01*
X554678Y870476D01*
X558677D01*
X560676Y868477D01*
Y883880D02*
X556677D01*
X558677D01*
Y895876D01*
X560676Y893877D01*
X586780Y45680D02*
Y53677D01*
X582781Y57676D01*
X578783Y53677D01*
Y45680D01*
Y51678D01*
X586780D01*
X630589Y55677D02*
X632588Y57676D01*
X636587D01*
X638586Y55677D01*
Y47679D01*
X636587Y45680D01*
X632588D01*
X630589Y47679D01*
X664489Y57676D02*
Y45680D01*
X658491D01*
X656491Y47679D01*
Y55677D01*
X658491Y57676D01*
X664489D01*
X612683D02*
Y45680D01*
X606685D01*
X604686Y47679D01*
Y49679D01*
X606685Y51678D01*
X612683D01*
X606685D01*
X604686Y53677D01*
Y55677D01*
X606685Y57676D01*
X612683D01*
X682394D02*
X690392D01*
Y45680D01*
X682394D01*
X690392Y51678D02*
X686393D01*
X708298Y57676D02*
X716295D01*
Y51678D01*
X712296D01*
X716295D01*
Y45680D01*
X734200Y55677D02*
X736200Y57676D01*
X740199D01*
X742198Y55677D01*
Y47679D01*
X740199Y45680D01*
X736200D01*
X734200Y47679D01*
Y51678D01*
X738199D01*
X768101Y57676D02*
Y45680D01*
Y51678D01*
X760103D01*
Y57676D01*
Y45680D01*
X867714Y57676D02*
Y45680D01*
X859717D01*
X893617D02*
Y57676D01*
X889618Y53677D01*
X885620Y57676D01*
Y45680D01*
X807911Y57676D02*
X811909D01*
X809910D01*
Y47679D01*
X811909Y45680D01*
X813909D01*
X815908Y47679D01*
X841811Y57676D02*
Y45680D01*
Y49679D01*
X833814Y57676D01*
X839812Y51678D01*
X833814Y45680D01*
X794004Y57676D02*
X790005D01*
X792004D01*
Y45680D01*
X794004D01*
X790005D01*
X919520D02*
Y57676D01*
X911523Y45680D01*
Y57676D01*
X919520Y934680D02*
Y946676D01*
X911523Y934680D01*
Y946676D01*
X794004D02*
X790005D01*
X792004D01*
Y934680D01*
X794004D01*
X790005D01*
X841811Y946676D02*
Y934680D01*
Y938679D01*
X833814Y946676D01*
X839812Y940678D01*
X833814Y934680D01*
X807911Y946676D02*
X811909D01*
X809910D01*
Y936679D01*
X811909Y934680D01*
X813909D01*
X815908Y936679D01*
X893617Y934680D02*
Y946676D01*
X889618Y942677D01*
X885620Y946676D01*
Y934680D01*
X867714Y946676D02*
Y934680D01*
X859717D01*
X768101Y946676D02*
Y934680D01*
Y940678D01*
X760103D01*
Y946676D01*
Y934680D01*
X734200Y944677D02*
X736200Y946676D01*
X740199D01*
X742198Y944677D01*
Y936679D01*
X740199Y934680D01*
X736200D01*
X734200Y936679D01*
Y940678D01*
X738199D01*
X708298Y946676D02*
X716295D01*
Y940678D01*
X712296D01*
X716295D01*
Y934680D01*
X682394Y946676D02*
X690392D01*
Y934680D01*
X682394D01*
X690392Y940678D02*
X686393D01*
X612683Y946676D02*
Y934680D01*
X606685D01*
X604686Y936679D01*
Y938679D01*
X606685Y940678D01*
X612683D01*
X606685D01*
X604686Y942677D01*
Y944677D01*
X606685Y946676D01*
X612683D01*
X664489D02*
Y934680D01*
X658491D01*
X656491Y936679D01*
Y944677D01*
X658491Y946676D01*
X664489D01*
X630589Y944677D02*
X632588Y946676D01*
X636587D01*
X638586Y944677D01*
Y936679D01*
X636587Y934680D01*
X632588D01*
X630589Y936679D01*
X586780Y934680D02*
Y942677D01*
X582781Y946676D01*
X578783Y942677D01*
Y934680D01*
Y940678D01*
X586780D01*
X934383Y858480D02*
X942380D01*
X934383Y866477D01*
Y868477D01*
X936382Y870476D01*
X940381D01*
X942380Y868477D01*
Y843077D02*
X940381Y845076D01*
X936382D01*
X934383Y843077D01*
Y841077D01*
X936382Y839078D01*
X938381D01*
X936382D01*
X934383Y837079D01*
Y835079D01*
X936382Y833080D01*
X940381D01*
X942380Y835079D01*
X936382Y807680D02*
Y819676D01*
X942380Y813678D01*
X934383D01*
Y794276D02*
X942380D01*
Y788278D01*
X938381Y790277D01*
X936382D01*
X934383Y788278D01*
Y784279D01*
X936382Y782280D01*
X940381D01*
X942380Y784279D01*
X934383Y768876D02*
X938381Y766877D01*
X942380Y762878D01*
Y758879D01*
X940381Y756880D01*
X936382D01*
X934383Y758879D01*
Y760879D01*
X936382Y762878D01*
X942380D01*
Y743476D02*
X934383D01*
Y741477D01*
X942380Y733479D01*
Y731480D01*
Y716077D02*
X940381Y718076D01*
X936382D01*
X934383Y716077D01*
Y714077D01*
X936382Y712078D01*
X934383Y710079D01*
Y708079D01*
X936382Y706080D01*
X940381D01*
X942380Y708079D01*
Y710079D01*
X940381Y712078D01*
X942380Y714077D01*
Y716077D01*
X940381Y712078D02*
X936382D01*
X942380Y682679D02*
X940381Y680680D01*
X936382D01*
X934383Y682679D01*
Y690677D01*
X936382Y692676D01*
X940381D01*
X942380Y690677D01*
Y688677D01*
X940381Y686678D01*
X934383D01*
X952377Y655280D02*
X948378D01*
X950377D01*
Y667276D01*
X952377Y665277D01*
X942380D02*
X940381Y667276D01*
X936382D01*
X934383Y665277D01*
Y657279D01*
X936382Y655280D01*
X940381D01*
X942380Y657279D01*
Y665277D01*
X950000Y629880D02*
X946001D01*
X948001D01*
Y641876D01*
X950000Y639877D01*
X940003Y629880D02*
X936005D01*
X938004D01*
Y641876D01*
X940003Y639877D01*
X952377Y604480D02*
X948378D01*
X950377D01*
Y616476D01*
X952377Y614477D01*
X934383Y604480D02*
X942380D01*
X934383Y612477D01*
Y614477D01*
X936382Y616476D01*
X940381D01*
X942380Y614477D01*
X952377Y579080D02*
X948378D01*
X950377D01*
Y591076D01*
X952377Y589077D01*
X942380D02*
X940381Y591076D01*
X936382D01*
X934383Y589077D01*
Y587077D01*
X936382Y585078D01*
X938381D01*
X936382D01*
X934383Y583079D01*
Y581079D01*
X936382Y579080D01*
X940381D01*
X942380Y581079D01*
X952377Y553680D02*
X948378D01*
X950377D01*
Y565676D01*
X952377Y563677D01*
X936382Y553680D02*
Y565676D01*
X942380Y559678D01*
X934383D01*
X952377Y528280D02*
X948378D01*
X950377D01*
Y540276D01*
X952377Y538277D01*
X934383Y540276D02*
X942380D01*
Y534278D01*
X938381Y536277D01*
X936382D01*
X934383Y534278D01*
Y530279D01*
X936382Y528280D01*
X940381D01*
X942380Y530279D01*
X952377Y502880D02*
X948378D01*
X950377D01*
Y514876D01*
X952377Y512877D01*
X934383Y514876D02*
X938381Y512877D01*
X942380Y508878D01*
Y504879D01*
X940381Y502880D01*
X936382D01*
X934383Y504879D01*
Y506879D01*
X936382Y508878D01*
X942380D01*
X952377Y477480D02*
X948378D01*
X950377D01*
Y489476D01*
X952377Y487477D01*
X942380Y489476D02*
X934383D01*
Y487477D01*
X942380Y479479D01*
Y477480D01*
X952377Y452080D02*
X948378D01*
X950377D01*
Y464076D01*
X952377Y462077D01*
X942380D02*
X940381Y464076D01*
X936382D01*
X934383Y462077D01*
Y460077D01*
X936382Y458078D01*
X934383Y456079D01*
Y454079D01*
X936382Y452080D01*
X940381D01*
X942380Y454079D01*
Y456079D01*
X940381Y458078D01*
X942380Y460077D01*
Y462077D01*
X940381Y458078D02*
X936382D01*
X952377Y426680D02*
X948378D01*
X950377D01*
Y438676D01*
X952377Y436677D01*
X942380Y428679D02*
X940381Y426680D01*
X936382D01*
X934383Y428679D01*
Y436677D01*
X936382Y438676D01*
X940381D01*
X942380Y436677D01*
Y434677D01*
X940381Y432678D01*
X934383D01*
X946379Y401280D02*
X954376D01*
X946379Y409277D01*
Y411277D01*
X948378Y413276D01*
X952377D01*
X954376Y411277D01*
X942380D02*
X940381Y413276D01*
X936382D01*
X934383Y411277D01*
Y403279D01*
X936382Y401280D01*
X940381D01*
X942380Y403279D01*
Y411277D01*
X944543Y375880D02*
X952540D01*
X944543Y383877D01*
Y385877D01*
X946542Y387876D01*
X950541D01*
X952540Y385877D01*
X940544Y375880D02*
X936545D01*
X938545D01*
Y387876D01*
X940544Y385877D01*
X946379Y350480D02*
X954376D01*
X946379Y358477D01*
Y360477D01*
X948378Y362476D01*
X952377D01*
X954376Y360477D01*
X934383Y350480D02*
X942380D01*
X934383Y358477D01*
Y360477D01*
X936382Y362476D01*
X940381D01*
X942380Y360477D01*
X946379Y325080D02*
X954376D01*
X946379Y333077D01*
Y335077D01*
X948378Y337076D01*
X952377D01*
X954376Y335077D01*
X942380D02*
X940381Y337076D01*
X936382D01*
X934383Y335077D01*
Y333077D01*
X936382Y331078D01*
X938381D01*
X936382D01*
X934383Y329079D01*
Y327079D01*
X936382Y325080D01*
X940381D01*
X942380Y327079D01*
X946379Y299680D02*
X954376D01*
X946379Y307677D01*
Y309677D01*
X948378Y311676D01*
X952377D01*
X954376Y309677D01*
X936382Y299680D02*
Y311676D01*
X942380Y305678D01*
X934383D01*
X946379Y274280D02*
X954376D01*
X946379Y282277D01*
Y284277D01*
X948378Y286276D01*
X952377D01*
X954376Y284277D01*
X934383Y286276D02*
X942380D01*
Y280278D01*
X938381Y282277D01*
X936382D01*
X934383Y280278D01*
Y276279D01*
X936382Y274280D01*
X940381D01*
X942380Y276279D01*
X946379Y248880D02*
X954376D01*
X946379Y256877D01*
Y258877D01*
X948378Y260876D01*
X952377D01*
X954376Y258877D01*
X934383Y260876D02*
X938381Y258877D01*
X942380Y254878D01*
Y250879D01*
X940381Y248880D01*
X936382D01*
X934383Y250879D01*
Y252879D01*
X936382Y254878D01*
X942380D01*
X946379Y223480D02*
X954376D01*
X946379Y231477D01*
Y233477D01*
X948378Y235476D01*
X952377D01*
X954376Y233477D01*
X942380Y235476D02*
X934383D01*
Y233477D01*
X942380Y225479D01*
Y223480D01*
X946379Y198080D02*
X954376D01*
X946379Y206077D01*
Y208077D01*
X948378Y210076D01*
X952377D01*
X954376Y208077D01*
X942380D02*
X940381Y210076D01*
X936382D01*
X934383Y208077D01*
Y206077D01*
X936382Y204078D01*
X934383Y202079D01*
Y200079D01*
X936382Y198080D01*
X940381D01*
X942380Y200079D01*
Y202079D01*
X940381Y204078D01*
X942380Y206077D01*
Y208077D01*
X940381Y204078D02*
X936382D01*
X946379Y172680D02*
X954376D01*
X946379Y180677D01*
Y182677D01*
X948378Y184676D01*
X952377D01*
X954376Y182677D01*
X942380Y174679D02*
X940381Y172680D01*
X936382D01*
X934383Y174679D01*
Y182677D01*
X936382Y184676D01*
X940381D01*
X942380Y182677D01*
Y180677D01*
X940381Y178678D01*
X934383D01*
X954376Y157277D02*
X952377Y159276D01*
X948378D01*
X946379Y157277D01*
Y155277D01*
X948378Y153278D01*
X950377D01*
X948378D01*
X946379Y151279D01*
Y149279D01*
X948378Y147280D01*
X952377D01*
X954376Y149279D01*
X942380Y157277D02*
X940381Y159276D01*
X936382D01*
X934383Y157277D01*
Y149279D01*
X936382Y147280D01*
X940381D01*
X942380Y149279D01*
Y157277D01*
X952540Y131877D02*
X950541Y133876D01*
X946542D01*
X944543Y131877D01*
Y129877D01*
X946542Y127878D01*
X948541D01*
X946542D01*
X944543Y125879D01*
Y123879D01*
X946542Y121880D01*
X950541D01*
X952540Y123879D01*
X940544Y121880D02*
X936545D01*
X938545D01*
Y133876D01*
X940544Y131877D01*
X954376Y106477D02*
X952377Y108476D01*
X948378D01*
X946379Y106477D01*
Y104477D01*
X948378Y102478D01*
X950377D01*
X948378D01*
X946379Y100479D01*
Y98479D01*
X948378Y96480D01*
X952377D01*
X954376Y98479D01*
X934383Y96480D02*
X942380D01*
X934383Y104477D01*
Y106477D01*
X936382Y108476D01*
X940381D01*
X942380Y106477D01*
X954376Y81077D02*
X952377Y83076D01*
X948378D01*
X946379Y81077D01*
Y79077D01*
X948378Y77078D01*
X950377D01*
X948378D01*
X946379Y75079D01*
Y73079D01*
X948378Y71080D01*
X952377D01*
X954376Y73079D01*
X942380Y81077D02*
X940381Y83076D01*
X936382D01*
X934383Y81077D01*
Y79077D01*
X936382Y77078D01*
X938381D01*
X936382D01*
X934383Y75079D01*
Y73079D01*
X936382Y71080D01*
X940381D01*
X942380Y73079D01*
Y919277D02*
X940381Y921276D01*
X936382D01*
X934383Y919277D01*
Y911279D01*
X936382Y909280D01*
X940381D01*
X942380Y911279D01*
Y919277D01*
D30*
X251658Y55000D02*
X231665D01*
X241661D01*
X244993Y58332D01*
Y64997D01*
X241661Y68329D01*
X231665D01*
X248326Y78326D02*
X244993D01*
Y74994D01*
Y81658D01*
Y78326D01*
X234997D01*
X231665Y81658D01*
X248326Y94987D02*
X244993D01*
Y91655D01*
Y98319D01*
Y94987D01*
X234997D01*
X231665Y98319D01*
X225000Y108316D02*
X244993D01*
Y118313D01*
X241661Y121645D01*
X234997D01*
X231665Y118313D01*
Y108316D01*
Y128310D02*
Y138307D01*
X234997Y141639D01*
X238329Y138307D01*
Y131642D01*
X241661Y128310D01*
X244993Y131642D01*
Y141639D01*
Y148303D02*
Y151636D01*
X241661D01*
Y148303D01*
X244993D01*
X234997D02*
Y151636D01*
X231665D01*
Y148303D01*
X234997D01*
X231665Y164965D02*
X244993Y178294D01*
X231665Y184958D02*
X244993Y198287D01*
X225000Y211616D02*
Y214948D01*
X228332Y218281D01*
X244993D01*
Y208284D01*
X241661Y204952D01*
X234997D01*
X231665Y208284D01*
Y218281D01*
Y224945D02*
Y231610D01*
Y228277D01*
X244993D01*
Y224945D01*
X248326Y244939D02*
X244993D01*
Y241607D01*
Y248271D01*
Y244939D01*
X234997D01*
X231665Y248271D01*
X251658Y258268D02*
X231665D01*
X241661D01*
X244993Y261600D01*
Y268265D01*
X241661Y271597D01*
X231665D01*
X244993Y278261D02*
X234997D01*
X231665Y281594D01*
Y291590D01*
X244993D01*
X251658Y298255D02*
X231665D01*
Y308252D01*
X234997Y311584D01*
X238329D01*
X241661D01*
X244993Y308252D01*
Y298255D01*
X231665Y318249D02*
X234997D01*
Y321581D01*
X231665D01*
Y318249D01*
X244993Y348239D02*
Y338242D01*
X241661Y334910D01*
X234997D01*
X231665Y338242D01*
Y348239D01*
Y358236D02*
Y364900D01*
X234997Y368232D01*
X241661D01*
X244993Y364900D01*
Y358236D01*
X241661Y354903D01*
X234997D01*
X231665Y358236D01*
Y374897D02*
X244993D01*
Y378229D01*
X241661Y381561D01*
X231665D01*
X241661D01*
X244993Y384894D01*
X241661Y388226D01*
X231665D01*
Y394890D02*
X244993Y408219D01*
X231665Y414884D02*
Y421549D01*
Y418216D01*
X244993D01*
Y414884D01*
X231665Y434878D02*
Y441542D01*
X234997Y444874D01*
X241661D01*
X244993Y441542D01*
Y434878D01*
X241661Y431545D01*
X234997D01*
X231665Y434878D01*
Y461536D02*
Y454871D01*
X234997Y451539D01*
X241661D01*
X244993Y454871D01*
Y461536D01*
X241661Y464868D01*
X238329D01*
Y451539D01*
X231665Y471532D02*
Y478197D01*
Y474865D01*
X251658D01*
Y471532D01*
X231665Y498190D02*
Y491526D01*
X234997Y488194D01*
X241661D01*
X244993Y491526D01*
Y498190D01*
X241661Y501523D01*
X238329D01*
Y488194D01*
X244993Y521516D02*
Y511520D01*
X241661Y508187D01*
X234997D01*
X231665Y511520D01*
Y521516D01*
X248326Y531513D02*
X244993D01*
Y528181D01*
Y534845D01*
Y531513D01*
X234997D01*
X231665Y534845D01*
X244993Y544842D02*
X231665D01*
X238329D01*
X241661Y548174D01*
X244993Y551507D01*
Y554839D01*
X231665Y568168D02*
Y574832D01*
X234997Y578165D01*
X241661D01*
X244993Y574832D01*
Y568168D01*
X241661Y564836D01*
X234997D01*
X231665Y568168D01*
Y584829D02*
X244993Y598158D01*
X231665Y604823D02*
Y614819D01*
X234997Y618152D01*
X238329Y614819D01*
Y608155D01*
X241661Y604823D01*
X244993Y608155D01*
Y618152D01*
X231665Y624816D02*
X244993D01*
Y628149D01*
X241661Y631481D01*
X231665D01*
X241661D01*
X244993Y634813D01*
X241661Y638145D01*
X231665D01*
X251658Y658139D02*
X231665D01*
Y648142D01*
X234997Y644810D01*
X241661D01*
X244993Y648142D01*
Y658139D01*
X241661Y664803D02*
Y678132D01*
X244993Y684797D02*
X231665Y691461D01*
X244993Y698126D01*
X231665Y704790D02*
X244993D01*
Y714787D01*
X241661Y718120D01*
X231665D01*
X244993Y728116D02*
Y734781D01*
X241661Y738113D01*
X231665D01*
Y728116D01*
X234997Y724784D01*
X238329Y728116D01*
Y738113D01*
X241661Y744778D02*
Y758107D01*
X231665Y768103D02*
X248326D01*
X241661D01*
Y764771D01*
Y771436D01*
Y768103D01*
X248326D01*
X251658Y771436D01*
X231665Y781432D02*
Y788097D01*
Y784765D01*
X244993D01*
Y781432D01*
Y798094D02*
X231665Y811423D01*
X238329Y804758D01*
X244993Y811423D01*
X231665Y798094D01*
X248326Y821420D02*
X244993D01*
Y818087D01*
Y824752D01*
Y821420D01*
X234997D01*
X231665Y824752D01*
X244993Y834749D02*
X234997D01*
X231665Y838081D01*
Y848078D01*
X244993D01*
Y854742D02*
X231665D01*
X238329D01*
X241661Y858074D01*
X244993Y861407D01*
Y864739D01*
X231665Y884733D02*
Y878068D01*
X234997Y874736D01*
X241661D01*
X244993Y878068D01*
Y884733D01*
X241661Y888065D01*
X238329D01*
Y874736D01*
D63*
X371992Y76993D02*
X376990Y71995D01*
Y61998D01*
X371992Y57000D01*
X366993D01*
X361995Y61998D01*
Y71995D01*
X356997Y76993D01*
X351998D01*
X347000Y71995D01*
Y61998D01*
X351998Y57000D01*
X347000Y86990D02*
X376990D01*
X366993Y96987D01*
X376990Y106984D01*
X347000D01*
X376990Y116980D02*
X347000D01*
Y131976D01*
X351998Y136974D01*
X371992D01*
X376990Y131976D01*
Y116980D01*
Y176961D02*
X356997D01*
X347000Y186958D01*
X356997Y196955D01*
X376990D01*
X347000Y206951D02*
X376990D01*
X347000Y226945D01*
X376990D01*
X347000Y236942D02*
X366993D01*
X376990Y246938D01*
X366993Y256935D01*
X347000D01*
X361995D01*
Y236942D01*
X376990Y316916D02*
Y296922D01*
X361995D01*
Y306919D01*
Y296922D01*
X347000D01*
Y326913D02*
Y336909D01*
Y331911D01*
X366993D01*
Y326913D01*
Y351904D02*
X347000Y371898D01*
X356997Y361901D01*
X366993Y371898D01*
X347000Y351904D01*
X371992Y386893D02*
X366993D01*
Y381895D01*
Y391892D01*
Y386893D01*
X351998D01*
X347000Y391892D01*
X366993Y406887D02*
X351998D01*
X347000Y411885D01*
Y426880D01*
X366993D01*
Y436877D02*
X347000D01*
X356997D01*
X361995Y441875D01*
X366993Y446874D01*
Y451872D01*
X347000Y481862D02*
Y471866D01*
X351998Y466867D01*
X361995D01*
X366993Y471866D01*
Y481862D01*
X361995Y486861D01*
X356997D01*
Y466867D01*
X376990Y526848D02*
X356997D01*
X347000Y536845D01*
X356997Y546841D01*
X376990D01*
X371992Y556838D02*
X376990Y561837D01*
Y571833D01*
X371992Y576832D01*
X351998D01*
X347000Y571833D01*
Y561837D01*
X351998Y556838D01*
X371992D01*
X347000Y586828D02*
X351998D01*
Y591827D01*
X347000D01*
Y586828D01*
X371992Y611820D02*
X376990Y616819D01*
Y626815D01*
X371992Y631814D01*
X366993D01*
X361995Y626815D01*
Y621817D01*
Y626815D01*
X356997Y631814D01*
X351998D01*
X347000Y626815D01*
Y616819D01*
X351998Y611820D01*
X287000Y57000D02*
Y66997D01*
Y61998D01*
X306994D01*
Y57000D01*
X287000Y86990D02*
Y96987D01*
X291998Y101985D01*
X301995D01*
X306994Y96987D01*
Y86990D01*
X301995Y81992D01*
X291998D01*
X287000Y86990D01*
Y126977D02*
Y116981D01*
X291998Y111982D01*
X301995D01*
X306994Y116981D01*
Y126977D01*
X301995Y131976D01*
X296997D01*
Y111982D01*
X287000Y141973D02*
Y151969D01*
Y146971D01*
X316990D01*
Y141973D01*
X287000Y181959D02*
Y171963D01*
X291998Y166964D01*
X301995D01*
X306994Y171963D01*
Y181959D01*
X301995Y186958D01*
X296997D01*
Y166964D01*
X306994Y216948D02*
Y201953D01*
X301995Y196955D01*
X291998D01*
X287000Y201953D01*
Y216948D01*
X311992Y231943D02*
X306994D01*
Y226945D01*
Y236942D01*
Y231943D01*
X291998D01*
X287000Y236942D01*
X306994Y251937D02*
X287000D01*
X296997D01*
X301995Y256935D01*
X306994Y261934D01*
Y266932D01*
X287000Y286926D02*
Y296922D01*
X291998Y301921D01*
X301995D01*
X306994Y296922D01*
Y286926D01*
X301995Y281927D01*
X291998D01*
X287000Y286926D01*
Y311917D02*
X291998D01*
Y316916D01*
X287000D01*
Y311917D01*
Y336909D02*
Y346906D01*
Y341908D01*
X306994D01*
Y336909D01*
Y361901D02*
X287000D01*
X296997D01*
X301995Y366900D01*
X306994Y371898D01*
Y376897D01*
M02*
