G04*
G04 #@! TF.GenerationSoftware,Altium Limited,Altium Designer,25.2.1 (25)*
G04*
G04 Layer_Physical_Order=1*
G04 Layer_Color=255*
%FSLAX44Y44*%
%MOMM*%
G71*
G04*
G04 #@! TF.SameCoordinates,8CFDF816-B780-4096-8FD2-7069D6D7E517*
G04*
G04*
G04 #@! TF.FilePolarity,Positive*
G04*
G01*
G75*
%ADD13R,1.5500X0.6000*%
%ADD14R,1.6000X0.9000*%
%ADD15O,1.0000X2.2000*%
G04:AMPARAMS|DCode=16|XSize=1mm|YSize=1mm|CornerRadius=0.25mm|HoleSize=0mm|Usage=FLASHONLY|Rotation=270.000|XOffset=0mm|YOffset=0mm|HoleType=Round|Shape=RoundedRectangle|*
%AMROUNDEDRECTD16*
21,1,1.0000,0.5000,0,0,270.0*
21,1,0.5000,1.0000,0,0,270.0*
1,1,0.5000,-0.2500,-0.2500*
1,1,0.5000,-0.2500,0.2500*
1,1,0.5000,0.2500,0.2500*
1,1,0.5000,0.2500,-0.2500*
%
%ADD16ROUNDEDRECTD16*%
%ADD17R,0.9000X1.6000*%
%ADD18R,3.0000X1.5000*%
%ADD19O,3.0000X2.0000*%
%ADD30C,0.5000*%
%ADD31C,0.9000*%
%ADD32C,2.7544*%
%ADD33R,10.9900X0.5000*%
%ADD34R,2.5400X8.0000*%
%ADD35R,0.5000X8.4500*%
%ADD36R,1.7780X0.6350*%
%ADD37R,0.5080X2.0320*%
%ADD38R,2.0320X0.5080*%
%ADD39R,1.6510X0.5080*%
%ADD40R,0.5080X2.1590*%
%ADD41R,1.9050X0.6350*%
%ADD42R,3.0000X2.0000*%
%ADD43R,27.9400X0.5000*%
%ADD44R,0.5000X83.5070*%
%ADD45R,0.5000X83.6340*%
%ADD46R,3.0000X97.0000*%
%ADD47R,47.0000X3.0000*%
%ADD48R,3.0000X97.0000*%
%ADD49R,46.0000X8.0730*%
%ADD50R,4.0000X8.0000*%
%ADD51R,2.0000X2.0000*%
%ADD52C,5.0000*%
%ADD53C,1.0000*%
G36*
X470000Y766540D02*
X461270D01*
Y763727D01*
X458730D01*
Y766540D01*
X449460D01*
Y760000D01*
X30540D01*
Y766540D01*
X21270D01*
Y763727D01*
X18730D01*
Y766540D01*
X10000D01*
Y980000D01*
X470000D01*
Y766540D01*
D02*
G37*
%LPC*%
G36*
X405000Y905619D02*
X375000D01*
Y903605D01*
X373032Y903346D01*
X371198Y902586D01*
X370639Y902157D01*
X372671Y900125D01*
X370875Y898329D01*
X368843Y900361D01*
X368414Y899802D01*
X367654Y897968D01*
X367395Y896000D01*
Y891270D01*
X370273D01*
Y888730D01*
X367395D01*
Y884000D01*
X367654Y882032D01*
X368414Y880198D01*
X368843Y879639D01*
X370875Y881671D01*
X372671Y879875D01*
X370639Y877843D01*
X371198Y877414D01*
X373032Y876654D01*
X375000Y876395D01*
Y835000D01*
X379460D01*
Y832270D01*
X382273D01*
Y829730D01*
X379460D01*
Y823960D01*
X388730D01*
Y826773D01*
X391270D01*
Y823960D01*
X400540D01*
Y829730D01*
X397727D01*
Y832270D01*
X400540D01*
Y835000D01*
X405000D01*
Y876395D01*
X406968Y876654D01*
X408802Y877414D01*
X409361Y877843D01*
X407329Y879875D01*
X409125Y881671D01*
X411157Y879639D01*
X411586Y880198D01*
X412346Y882032D01*
X412605Y884000D01*
Y888730D01*
X409727D01*
Y891270D01*
X412605D01*
Y896000D01*
X412346Y897968D01*
X411586Y899802D01*
X411157Y900361D01*
X409125Y898329D01*
X407329Y900125D01*
X409361Y902157D01*
X408802Y902586D01*
X406968Y903346D01*
X405000Y903605D01*
Y905619D01*
D02*
G37*
G36*
X305000D02*
X275000D01*
Y903605D01*
X273032Y903346D01*
X271197Y902586D01*
X270639Y902157D01*
X272671Y900125D01*
X270875Y898329D01*
X268843Y900361D01*
X268414Y899802D01*
X267654Y897968D01*
X267395Y896000D01*
Y891270D01*
X270273D01*
Y888730D01*
X267395D01*
Y884000D01*
X267654Y882032D01*
X268414Y880198D01*
X268843Y879639D01*
X270875Y881671D01*
X272671Y879875D01*
X270639Y877843D01*
X271197Y877414D01*
X273032Y876654D01*
X275000Y876395D01*
Y835000D01*
X279460D01*
Y832270D01*
X282273D01*
Y829730D01*
X279460D01*
Y823960D01*
X288730D01*
Y826773D01*
X291270D01*
Y823960D01*
X300540D01*
Y829730D01*
X297727D01*
Y832270D01*
X300540D01*
Y835000D01*
X305000D01*
Y876395D01*
X306968Y876654D01*
X308803Y877414D01*
X309361Y877843D01*
X307329Y879875D01*
X309125Y881671D01*
X311157Y879639D01*
X311586Y880198D01*
X312346Y882032D01*
X312605Y884000D01*
Y888730D01*
X309727D01*
Y891270D01*
X312605D01*
Y896000D01*
X312346Y897968D01*
X311586Y899802D01*
X311157Y900361D01*
X309125Y898329D01*
X307329Y900125D01*
X309361Y902157D01*
X308803Y902586D01*
X306968Y903346D01*
X305000Y903605D01*
Y905619D01*
D02*
G37*
G36*
X205000D02*
X175000D01*
Y903605D01*
X173032Y903346D01*
X171197Y902586D01*
X170639Y902157D01*
X172671Y900125D01*
X170875Y898329D01*
X168843Y900361D01*
X168414Y899802D01*
X167654Y897968D01*
X167395Y896000D01*
Y891270D01*
X170273D01*
Y888730D01*
X167395D01*
Y884000D01*
X167654Y882032D01*
X168414Y880198D01*
X168843Y879639D01*
X170875Y881671D01*
X172671Y879875D01*
X170639Y877843D01*
X171197Y877414D01*
X173032Y876654D01*
X175000Y876395D01*
Y835000D01*
X179460D01*
Y832270D01*
X182273D01*
Y829730D01*
X179460D01*
Y823960D01*
X188730D01*
Y826773D01*
X191270D01*
Y823960D01*
X200540D01*
Y829730D01*
X197727D01*
Y832270D01*
X200540D01*
Y835000D01*
X205000D01*
Y876395D01*
X206968Y876654D01*
X208803Y877414D01*
X209361Y877843D01*
X207329Y879875D01*
X209125Y881671D01*
X211157Y879639D01*
X211586Y880198D01*
X212346Y882032D01*
X212605Y884000D01*
Y888730D01*
X209727D01*
Y891270D01*
X212605D01*
Y896000D01*
X212346Y897968D01*
X211586Y899802D01*
X211157Y900361D01*
X209125Y898329D01*
X207329Y900125D01*
X209361Y902157D01*
X208803Y902586D01*
X206968Y903346D01*
X205000Y903605D01*
Y905619D01*
D02*
G37*
G36*
X105000D02*
X75000D01*
Y903605D01*
X73032Y903346D01*
X71198Y902586D01*
X70639Y902157D01*
X72671Y900125D01*
X70875Y898329D01*
X68843Y900361D01*
X68414Y899802D01*
X67654Y897968D01*
X67395Y896000D01*
Y891270D01*
X70273D01*
Y888730D01*
X67395D01*
Y884000D01*
X67654Y882032D01*
X68414Y880198D01*
X68843Y879639D01*
X70875Y881671D01*
X72671Y879875D01*
X70639Y877843D01*
X71198Y877414D01*
X73032Y876654D01*
X75000Y876395D01*
Y835000D01*
X79460D01*
Y832270D01*
X82273D01*
Y829730D01*
X79460D01*
Y823960D01*
X88730D01*
Y826773D01*
X91270D01*
Y823960D01*
X100540D01*
Y829730D01*
X97727D01*
Y832270D01*
X100540D01*
Y835000D01*
X105000D01*
Y876395D01*
X106968Y876654D01*
X108802Y877414D01*
X109361Y877843D01*
X107329Y879875D01*
X109125Y881671D01*
X111157Y879639D01*
X111586Y880198D01*
X112346Y882032D01*
X112605Y884000D01*
Y888730D01*
X109727D01*
Y891270D01*
X112605D01*
Y896000D01*
X112346Y897968D01*
X111586Y899802D01*
X111157Y900361D01*
X109125Y898329D01*
X107329Y900125D01*
X109361Y902157D01*
X108802Y902586D01*
X106968Y903346D01*
X105000Y903605D01*
Y905619D01*
D02*
G37*
%LPD*%
D13*
X633400Y869950D02*
D03*
Y857250D02*
D03*
Y844550D02*
D03*
Y831850D02*
D03*
X687400Y869950D02*
D03*
Y857250D02*
D03*
Y844550D02*
D03*
Y831850D02*
D03*
D14*
X460000Y730500D02*
D03*
Y759500D02*
D03*
X20000Y730500D02*
D03*
Y759500D02*
D03*
X390000Y831000D02*
D03*
Y860000D02*
D03*
X290000Y831000D02*
D03*
Y860000D02*
D03*
X190000Y831000D02*
D03*
Y860000D02*
D03*
X90000D02*
D03*
Y831000D02*
D03*
X205000Y630500D02*
D03*
Y659500D02*
D03*
X20000Y480500D02*
D03*
Y509500D02*
D03*
X460000Y480500D02*
D03*
Y509500D02*
D03*
X205000Y609500D02*
D03*
Y580500D02*
D03*
X275000Y609500D02*
D03*
Y580500D02*
D03*
Y659500D02*
D03*
Y630500D02*
D03*
X20000Y259500D02*
D03*
Y230500D02*
D03*
X460000Y259500D02*
D03*
Y230500D02*
D03*
D15*
X175000Y890000D02*
D03*
X205000D02*
D03*
X75000D02*
D03*
X105000D02*
D03*
X405000D02*
D03*
X375000D02*
D03*
X305000D02*
D03*
X275000D02*
D03*
D16*
X190000Y875000D02*
D03*
X90000D02*
D03*
X390000D02*
D03*
X290000D02*
D03*
D17*
X225500Y620000D02*
D03*
X254500D02*
D03*
X195500Y370000D02*
D03*
X224500D02*
D03*
X195500Y120000D02*
D03*
X224500D02*
D03*
D18*
X450000Y592000D02*
D03*
Y648000D02*
D03*
X30000D02*
D03*
Y592000D02*
D03*
Y148000D02*
D03*
Y92000D02*
D03*
Y398000D02*
D03*
Y342000D02*
D03*
X450000Y92000D02*
D03*
Y148000D02*
D03*
Y398000D02*
D03*
Y342000D02*
D03*
D19*
Y620000D02*
D03*
X30000D02*
D03*
Y120000D02*
D03*
Y370000D02*
D03*
X450000Y120000D02*
D03*
Y370000D02*
D03*
D30*
X190000Y831000D02*
Y860000D01*
D31*
X390000D02*
Y875000D01*
X290000Y860000D02*
Y875000D01*
X190000Y860000D02*
Y875000D01*
X90000Y860000D02*
Y875000D01*
X250000Y120000D02*
X290000D01*
D32*
X265000Y620000D02*
X450000D01*
X30000Y620000D02*
X215000D01*
X30000Y370000D02*
X190000D01*
X290000D02*
X450000D01*
X290000Y120000D02*
X450000D01*
X30000D02*
X190000D01*
D33*
X656250Y787200D02*
D03*
D34*
X660000Y850000D02*
D03*
D35*
X736400Y855050D02*
D03*
D36*
X693420Y813435D02*
D03*
X627380Y888365D02*
D03*
D37*
X687070Y821690D02*
D03*
X633730Y880110D02*
D03*
D38*
X698500Y844550D02*
D03*
X622300Y857250D02*
D03*
D39*
X697865D02*
D03*
X622935Y844550D02*
D03*
D40*
X687070Y879475D02*
D03*
X633730Y822325D02*
D03*
D41*
X694055Y889635D02*
D03*
X626745Y812165D02*
D03*
D42*
X455000Y770000D02*
D03*
X25000D02*
D03*
D43*
X749300Y305400D02*
D03*
Y330800D02*
D03*
Y483200D02*
D03*
Y508600D02*
D03*
Y661000D02*
D03*
Y686400D02*
D03*
Y76800D02*
D03*
Y915000D02*
D03*
D44*
X914200Y492465D02*
D03*
D45*
X584000Y491830D02*
D03*
D46*
X525000Y495000D02*
D03*
D47*
X745000Y965000D02*
D03*
Y25000D02*
D03*
D48*
X965000Y495000D02*
D03*
D49*
X240000Y550365D02*
D03*
X240000Y689635D02*
D03*
X240000Y300365D02*
D03*
X240000Y439635D02*
D03*
Y189635D02*
D03*
X240000Y50365D02*
D03*
D50*
X240000Y370000D02*
D03*
Y120000D02*
D03*
D51*
X736600Y812800D02*
D03*
X762000D02*
D03*
X787400D02*
D03*
X736600Y787400D02*
D03*
X762000D02*
D03*
X787400D02*
D03*
X736600Y838200D02*
D03*
X762000D02*
D03*
X787400D02*
D03*
X736600Y762000D02*
D03*
X762000D02*
D03*
X787400D02*
D03*
X914400Y76200D02*
D03*
X889000D02*
D03*
X863600D02*
D03*
X838200D02*
D03*
X812800D02*
D03*
X787400D02*
D03*
X762000D02*
D03*
X736600D02*
D03*
X711200D02*
D03*
X685800D02*
D03*
X660400D02*
D03*
X635000D02*
D03*
X609600D02*
D03*
X584200D02*
D03*
Y101600D02*
D03*
X609600D02*
D03*
X635000D02*
D03*
X660400D02*
D03*
X685800D02*
D03*
X711200D02*
D03*
X736600D02*
D03*
X762000D02*
D03*
X787400D02*
D03*
X812800D02*
D03*
X838200D02*
D03*
X863600D02*
D03*
X889000D02*
D03*
X914400D02*
D03*
X584200Y127000D02*
D03*
X609600D02*
D03*
X635000D02*
D03*
X660400D02*
D03*
X685800D02*
D03*
X711200D02*
D03*
X736600D02*
D03*
X762000D02*
D03*
X787400D02*
D03*
X812800D02*
D03*
X838200D02*
D03*
X863600D02*
D03*
X889000D02*
D03*
X914400D02*
D03*
Y152400D02*
D03*
X889000D02*
D03*
X863600D02*
D03*
X838200D02*
D03*
X812800D02*
D03*
X787400D02*
D03*
X762000D02*
D03*
X736600D02*
D03*
X711200D02*
D03*
X685800D02*
D03*
X660400D02*
D03*
X635000D02*
D03*
X609600D02*
D03*
X584200D02*
D03*
Y177800D02*
D03*
X609600D02*
D03*
X635000D02*
D03*
X660400D02*
D03*
X685800D02*
D03*
X711200D02*
D03*
X736600D02*
D03*
X762000D02*
D03*
X787400D02*
D03*
X812800D02*
D03*
X838200D02*
D03*
X863600D02*
D03*
X889000D02*
D03*
X914400D02*
D03*
X584200Y203200D02*
D03*
X609600D02*
D03*
X635000D02*
D03*
X660400D02*
D03*
X685800D02*
D03*
X711200D02*
D03*
X736600D02*
D03*
X762000D02*
D03*
X787400D02*
D03*
X812800D02*
D03*
X838200D02*
D03*
X863600D02*
D03*
X889000D02*
D03*
X914400D02*
D03*
Y228600D02*
D03*
X889000D02*
D03*
X863600D02*
D03*
X838200D02*
D03*
X812800D02*
D03*
X787400D02*
D03*
X762000D02*
D03*
X736600D02*
D03*
X711200D02*
D03*
X685800D02*
D03*
X660400D02*
D03*
X635000D02*
D03*
X609600D02*
D03*
X584200D02*
D03*
Y304800D02*
D03*
X609600D02*
D03*
X635000D02*
D03*
X660400D02*
D03*
X685800D02*
D03*
X711200D02*
D03*
X736600D02*
D03*
X762000D02*
D03*
X787400D02*
D03*
X812800D02*
D03*
X838200D02*
D03*
X863600D02*
D03*
X889000D02*
D03*
X914400D02*
D03*
Y279400D02*
D03*
X889000D02*
D03*
X863600D02*
D03*
X838200D02*
D03*
X812800D02*
D03*
X787400D02*
D03*
X762000D02*
D03*
X736600D02*
D03*
X711200D02*
D03*
X685800D02*
D03*
X660400D02*
D03*
X635000D02*
D03*
X609600D02*
D03*
X584200D02*
D03*
X914400Y254000D02*
D03*
X889000D02*
D03*
X863600D02*
D03*
X838200D02*
D03*
X812800D02*
D03*
X787400D02*
D03*
X762000D02*
D03*
X736600D02*
D03*
X711200D02*
D03*
X685800D02*
D03*
X660400D02*
D03*
X635000D02*
D03*
X609600D02*
D03*
X584200D02*
D03*
Y609600D02*
D03*
X609600D02*
D03*
X635000D02*
D03*
X660400D02*
D03*
X685800D02*
D03*
X711200D02*
D03*
X736600D02*
D03*
X762000D02*
D03*
X787400D02*
D03*
X812800D02*
D03*
X838200D02*
D03*
X863600D02*
D03*
X889000D02*
D03*
X914400D02*
D03*
Y584200D02*
D03*
X889000D02*
D03*
X863600D02*
D03*
X838200D02*
D03*
X812800D02*
D03*
X787400D02*
D03*
X762000D02*
D03*
X736600D02*
D03*
X711200D02*
D03*
X685800D02*
D03*
X660400D02*
D03*
X635000D02*
D03*
X609600D02*
D03*
X584200D02*
D03*
X914400Y558800D02*
D03*
X889000D02*
D03*
X863600D02*
D03*
X838200D02*
D03*
X812800D02*
D03*
X787400D02*
D03*
X762000D02*
D03*
X736600D02*
D03*
X711200D02*
D03*
X685800D02*
D03*
X660400D02*
D03*
X635000D02*
D03*
X609600D02*
D03*
X584200D02*
D03*
Y482600D02*
D03*
X609600D02*
D03*
X635000D02*
D03*
X660400D02*
D03*
X685800D02*
D03*
X711200D02*
D03*
X736600D02*
D03*
X762000D02*
D03*
X787400D02*
D03*
X812800D02*
D03*
X838200D02*
D03*
X863600D02*
D03*
X889000D02*
D03*
X914400D02*
D03*
X584200Y508000D02*
D03*
X609600D02*
D03*
X635000D02*
D03*
X660400D02*
D03*
X685800D02*
D03*
X711200D02*
D03*
X736600D02*
D03*
X762000D02*
D03*
X787400D02*
D03*
X812800D02*
D03*
X838200D02*
D03*
X863600D02*
D03*
X889000D02*
D03*
X914400D02*
D03*
Y533400D02*
D03*
X889000D02*
D03*
X863600D02*
D03*
X838200D02*
D03*
X812800D02*
D03*
X787400D02*
D03*
X762000D02*
D03*
X736600D02*
D03*
X711200D02*
D03*
X685800D02*
D03*
X660400D02*
D03*
X635000D02*
D03*
X609600D02*
D03*
X584200D02*
D03*
Y406400D02*
D03*
X609600D02*
D03*
X635000D02*
D03*
X660400D02*
D03*
X685800D02*
D03*
X711200D02*
D03*
X736600D02*
D03*
X762000D02*
D03*
X787400D02*
D03*
X812800D02*
D03*
X838200D02*
D03*
X863600D02*
D03*
X889000D02*
D03*
X914400D02*
D03*
X584200Y431800D02*
D03*
X609600D02*
D03*
X635000D02*
D03*
X660400D02*
D03*
X685800D02*
D03*
X711200D02*
D03*
X736600D02*
D03*
X762000D02*
D03*
X787400D02*
D03*
X812800D02*
D03*
X838200D02*
D03*
X863600D02*
D03*
X889000D02*
D03*
X914400D02*
D03*
Y457200D02*
D03*
X889000D02*
D03*
X863600D02*
D03*
X838200D02*
D03*
X812800D02*
D03*
X787400D02*
D03*
X762000D02*
D03*
X736600D02*
D03*
X711200D02*
D03*
X685800D02*
D03*
X660400D02*
D03*
X635000D02*
D03*
X609600D02*
D03*
X584200D02*
D03*
Y330200D02*
D03*
X609600D02*
D03*
X635000D02*
D03*
X660400D02*
D03*
X685800D02*
D03*
X711200D02*
D03*
X736600D02*
D03*
X762000D02*
D03*
X787400D02*
D03*
X812800D02*
D03*
X838200D02*
D03*
X863600D02*
D03*
X889000D02*
D03*
X914400D02*
D03*
X584200Y355600D02*
D03*
X609600D02*
D03*
X635000D02*
D03*
X660400D02*
D03*
X685800D02*
D03*
X711200D02*
D03*
X736600D02*
D03*
X762000D02*
D03*
X787400D02*
D03*
X812800D02*
D03*
X838200D02*
D03*
X863600D02*
D03*
X889000D02*
D03*
X914400D02*
D03*
Y381000D02*
D03*
X889000D02*
D03*
X863600D02*
D03*
X838200D02*
D03*
X812800D02*
D03*
X787400D02*
D03*
X762000D02*
D03*
X736600D02*
D03*
X711200D02*
D03*
X685800D02*
D03*
X660400D02*
D03*
X635000D02*
D03*
X609600D02*
D03*
X584200D02*
D03*
Y685800D02*
D03*
X609600D02*
D03*
X635000D02*
D03*
X660400D02*
D03*
X685800D02*
D03*
X711200D02*
D03*
X736600D02*
D03*
X762000D02*
D03*
X787400D02*
D03*
X812800D02*
D03*
X838200D02*
D03*
X863600D02*
D03*
X889000D02*
D03*
X914400D02*
D03*
Y660400D02*
D03*
X889000D02*
D03*
X863600D02*
D03*
X838200D02*
D03*
X812800D02*
D03*
X787400D02*
D03*
X762000D02*
D03*
X736600D02*
D03*
X711200D02*
D03*
X685800D02*
D03*
X660400D02*
D03*
X635000D02*
D03*
X609600D02*
D03*
X584200D02*
D03*
X914400Y635000D02*
D03*
X889000D02*
D03*
X863600D02*
D03*
X838200D02*
D03*
X812800D02*
D03*
X787400D02*
D03*
X762000D02*
D03*
X736600D02*
D03*
X711200D02*
D03*
X685800D02*
D03*
X660400D02*
D03*
X635000D02*
D03*
X609600D02*
D03*
X584200D02*
D03*
Y762000D02*
D03*
X609600D02*
D03*
X635000D02*
D03*
X660400D02*
D03*
X685800D02*
D03*
X711200D02*
D03*
X812800D02*
D03*
X838200D02*
D03*
X863600D02*
D03*
X889000D02*
D03*
X914400D02*
D03*
Y736600D02*
D03*
X889000D02*
D03*
X863600D02*
D03*
X838200D02*
D03*
X812800D02*
D03*
X787400D02*
D03*
X762000D02*
D03*
X736600D02*
D03*
X711200D02*
D03*
X685800D02*
D03*
X660400D02*
D03*
X635000D02*
D03*
X609600D02*
D03*
X584200D02*
D03*
X914400Y711200D02*
D03*
X889000D02*
D03*
X863600D02*
D03*
X838200D02*
D03*
X812800D02*
D03*
X787400D02*
D03*
X762000D02*
D03*
X736600D02*
D03*
X711200D02*
D03*
X685800D02*
D03*
X660400D02*
D03*
X635000D02*
D03*
X609600D02*
D03*
X584200D02*
D03*
Y838200D02*
D03*
X609600D02*
D03*
X711200D02*
D03*
X812800D02*
D03*
X838200D02*
D03*
X863600D02*
D03*
X889000D02*
D03*
X914400D02*
D03*
Y812800D02*
D03*
X889000D02*
D03*
X863600D02*
D03*
X838200D02*
D03*
X812800D02*
D03*
X711200D02*
D03*
X609600D02*
D03*
X584200D02*
D03*
X914400Y787400D02*
D03*
X889000D02*
D03*
X863600D02*
D03*
X838200D02*
D03*
X812800D02*
D03*
X711200D02*
D03*
X685800D02*
D03*
X660400D02*
D03*
X635000D02*
D03*
X609600D02*
D03*
X584200D02*
D03*
Y863600D02*
D03*
X609600D02*
D03*
X711200D02*
D03*
X736600D02*
D03*
X762000D02*
D03*
X787400D02*
D03*
X812800D02*
D03*
X838200D02*
D03*
X863600D02*
D03*
X889000D02*
D03*
X914400D02*
D03*
X584200Y889000D02*
D03*
X609600D02*
D03*
X711200D02*
D03*
X736600D02*
D03*
X762000D02*
D03*
X787400D02*
D03*
X812800D02*
D03*
X838200D02*
D03*
X863600D02*
D03*
X889000D02*
D03*
X914400D02*
D03*
Y914400D02*
D03*
X889000D02*
D03*
X863600D02*
D03*
X838200D02*
D03*
X812800D02*
D03*
X787400D02*
D03*
X762000D02*
D03*
X736600D02*
D03*
X711200D02*
D03*
X685800D02*
D03*
X660400D02*
D03*
X635000D02*
D03*
X609600D02*
D03*
X584200D02*
D03*
D52*
X950000Y40000D02*
D03*
X540000D02*
D03*
X950000Y950000D02*
D03*
X540000D02*
D03*
D53*
X660400Y876300D02*
D03*
Y863600D02*
D03*
Y850900D02*
D03*
Y825500D02*
D03*
Y838200D02*
D03*
X525400Y890000D02*
D03*
Y839200D02*
D03*
Y788400D02*
D03*
Y737600D02*
D03*
Y686800D02*
D03*
Y636000D02*
D03*
Y585200D02*
D03*
Y534400D02*
D03*
Y483600D02*
D03*
Y432800D02*
D03*
Y382000D02*
D03*
Y331200D02*
D03*
Y280400D02*
D03*
Y229600D02*
D03*
Y178800D02*
D03*
Y128000D02*
D03*
Y77200D02*
D03*
X558800Y25400D02*
D03*
X914400D02*
D03*
X558800Y965200D02*
D03*
X914400D02*
D03*
X965200Y914400D02*
D03*
Y863600D02*
D03*
Y812800D02*
D03*
Y762000D02*
D03*
Y711200D02*
D03*
Y660400D02*
D03*
Y609600D02*
D03*
Y558800D02*
D03*
Y508000D02*
D03*
Y457200D02*
D03*
Y406400D02*
D03*
Y355600D02*
D03*
Y304800D02*
D03*
Y254000D02*
D03*
Y203200D02*
D03*
Y152400D02*
D03*
Y101600D02*
D03*
X863600Y25400D02*
D03*
X812800D02*
D03*
X762000D02*
D03*
X711200D02*
D03*
X660400D02*
D03*
X609600D02*
D03*
X863600Y965200D02*
D03*
X812800D02*
D03*
X762000D02*
D03*
X711200D02*
D03*
X660400D02*
D03*
X609600D02*
D03*
X30000Y940000D02*
D03*
Y920000D02*
D03*
Y900000D02*
D03*
Y880000D02*
D03*
Y860000D02*
D03*
Y840000D02*
D03*
Y820000D02*
D03*
Y800000D02*
D03*
Y780000D02*
D03*
X50000D02*
D03*
X70000D02*
D03*
X90000D02*
D03*
X110000D02*
D03*
X130000D02*
D03*
X150000D02*
D03*
X170000D02*
D03*
X190000D02*
D03*
X210000D02*
D03*
X230000D02*
D03*
X250000D02*
D03*
X270000D02*
D03*
X290000D02*
D03*
X310000D02*
D03*
X330000D02*
D03*
X350000D02*
D03*
X370000D02*
D03*
X390000D02*
D03*
X410000D02*
D03*
X430000D02*
D03*
X450000D02*
D03*
Y800000D02*
D03*
Y820000D02*
D03*
Y840000D02*
D03*
Y860000D02*
D03*
Y880000D02*
D03*
Y900000D02*
D03*
Y920000D02*
D03*
Y940000D02*
D03*
Y960000D02*
D03*
X430000D02*
D03*
X410000D02*
D03*
X390000D02*
D03*
X370000D02*
D03*
X350000D02*
D03*
X330000D02*
D03*
X310000D02*
D03*
X290000D02*
D03*
X270000D02*
D03*
X250000D02*
D03*
X230000D02*
D03*
X210000D02*
D03*
X190000D02*
D03*
X170000D02*
D03*
X150000D02*
D03*
X130000D02*
D03*
X110000D02*
D03*
X90000D02*
D03*
X70000D02*
D03*
X50000D02*
D03*
X30000D02*
D03*
X60000Y890000D02*
D03*
X360000Y870000D02*
D03*
Y850000D02*
D03*
Y830000D02*
D03*
Y810000D02*
D03*
X380000D02*
D03*
X400000D02*
D03*
X420000D02*
D03*
Y830000D02*
D03*
Y850000D02*
D03*
Y870000D02*
D03*
Y890000D02*
D03*
Y910000D02*
D03*
X400000D02*
D03*
X380000D02*
D03*
X360000D02*
D03*
Y890000D02*
D03*
X260000Y870000D02*
D03*
Y850000D02*
D03*
Y830000D02*
D03*
Y810000D02*
D03*
X280000D02*
D03*
X300000D02*
D03*
X320000D02*
D03*
Y830000D02*
D03*
Y850000D02*
D03*
Y870000D02*
D03*
Y890000D02*
D03*
Y910000D02*
D03*
X300000D02*
D03*
X280000D02*
D03*
X260000D02*
D03*
Y890000D02*
D03*
X160000Y870000D02*
D03*
Y850000D02*
D03*
Y830000D02*
D03*
Y810000D02*
D03*
X180000D02*
D03*
X200000D02*
D03*
X220000D02*
D03*
Y830000D02*
D03*
Y850000D02*
D03*
Y870000D02*
D03*
Y890000D02*
D03*
Y910000D02*
D03*
X200000D02*
D03*
X180000D02*
D03*
X160000D02*
D03*
Y890000D02*
D03*
X100000Y910000D02*
D03*
X80000D02*
D03*
X60000D02*
D03*
Y870000D02*
D03*
Y850000D02*
D03*
Y830000D02*
D03*
Y810000D02*
D03*
X80000D02*
D03*
X100000D02*
D03*
X120000D02*
D03*
Y830000D02*
D03*
Y850000D02*
D03*
Y870000D02*
D03*
Y890000D02*
D03*
Y910000D02*
D03*
X370000Y670000D02*
D03*
X90000Y710000D02*
D03*
X30000Y690000D02*
D03*
X210000Y670000D02*
D03*
X290000Y710000D02*
D03*
X270000D02*
D03*
X130000D02*
D03*
X190000Y670000D02*
D03*
X30000D02*
D03*
X390000D02*
D03*
X450000D02*
D03*
Y710000D02*
D03*
X170000Y670000D02*
D03*
X290000D02*
D03*
X230000Y710000D02*
D03*
X310000D02*
D03*
X150000Y670000D02*
D03*
X90000D02*
D03*
X150000Y710000D02*
D03*
X310000Y670000D02*
D03*
X50000D02*
D03*
X250000D02*
D03*
X410000D02*
D03*
X50000Y710000D02*
D03*
X70000D02*
D03*
X110000D02*
D03*
X330000Y670000D02*
D03*
X370000Y710000D02*
D03*
X390000D02*
D03*
X450000Y690000D02*
D03*
X350000Y670000D02*
D03*
X70000D02*
D03*
X110000D02*
D03*
X170000Y710000D02*
D03*
X190000D02*
D03*
X210000D02*
D03*
X240000Y690000D02*
D03*
X410000Y710000D02*
D03*
X230000Y670000D02*
D03*
X430000D02*
D03*
X30000Y710000D02*
D03*
X330000D02*
D03*
X350000D02*
D03*
X270000Y670000D02*
D03*
X130000D02*
D03*
X250000Y710000D02*
D03*
X430000D02*
D03*
X70000Y530000D02*
D03*
X50000Y570000D02*
D03*
X410000D02*
D03*
X350000D02*
D03*
X230000Y530000D02*
D03*
X210000Y570000D02*
D03*
X370000Y530000D02*
D03*
X90000D02*
D03*
X250000D02*
D03*
X330000Y570000D02*
D03*
X390000D02*
D03*
Y530000D02*
D03*
X230000Y570000D02*
D03*
X70000D02*
D03*
X190000D02*
D03*
X210000Y530000D02*
D03*
X430000Y570000D02*
D03*
X350000Y530000D02*
D03*
X30000Y570000D02*
D03*
X50000Y530000D02*
D03*
X130000Y570000D02*
D03*
X150000Y530000D02*
D03*
X290000D02*
D03*
X240000Y550000D02*
D03*
X450000Y530000D02*
D03*
X150000Y570000D02*
D03*
X170000Y530000D02*
D03*
X310000D02*
D03*
X30000D02*
D03*
X450000Y550000D02*
D03*
Y570000D02*
D03*
X170000D02*
D03*
X190000Y530000D02*
D03*
X330000D02*
D03*
X30000Y550000D02*
D03*
X90000Y570000D02*
D03*
X110000Y530000D02*
D03*
X370000Y570000D02*
D03*
X270000D02*
D03*
X310000D02*
D03*
X410000Y530000D02*
D03*
X250000Y570000D02*
D03*
X110000D02*
D03*
X130000Y530000D02*
D03*
X270000D02*
D03*
X290000Y570000D02*
D03*
X430000Y530000D02*
D03*
X170000Y460000D02*
D03*
X190000D02*
D03*
X150000D02*
D03*
X130000D02*
D03*
X110000D02*
D03*
X90000D02*
D03*
X70000D02*
D03*
X50000D02*
D03*
X30000D02*
D03*
Y440000D02*
D03*
Y420000D02*
D03*
X50000D02*
D03*
X70000D02*
D03*
X90000D02*
D03*
X110000D02*
D03*
X130000D02*
D03*
X150000D02*
D03*
X170000D02*
D03*
X190000D02*
D03*
X210000D02*
D03*
Y460000D02*
D03*
X240000Y440000D02*
D03*
X230000Y420000D02*
D03*
X250000D02*
D03*
X270000D02*
D03*
X230000Y460000D02*
D03*
X250000D02*
D03*
X270000D02*
D03*
X290000D02*
D03*
X310000D02*
D03*
X330000D02*
D03*
X350000D02*
D03*
X370000D02*
D03*
X390000D02*
D03*
X410000D02*
D03*
X430000D02*
D03*
X290000Y420000D02*
D03*
X310000D02*
D03*
X330000D02*
D03*
X350000D02*
D03*
X370000D02*
D03*
X390000D02*
D03*
X410000D02*
D03*
X430000D02*
D03*
X450000D02*
D03*
Y440000D02*
D03*
Y460000D02*
D03*
X240000Y300000D02*
D03*
X290000Y320000D02*
D03*
X310000D02*
D03*
X330000D02*
D03*
X350000D02*
D03*
X370000D02*
D03*
X390000D02*
D03*
X410000D02*
D03*
X430000D02*
D03*
X450000D02*
D03*
Y300000D02*
D03*
Y280000D02*
D03*
X430000D02*
D03*
X410000D02*
D03*
X390000D02*
D03*
X370000D02*
D03*
X350000D02*
D03*
X330000D02*
D03*
X310000D02*
D03*
X290000D02*
D03*
X270000D02*
D03*
Y320000D02*
D03*
X250000Y280000D02*
D03*
X230000D02*
D03*
X210000D02*
D03*
X190000D02*
D03*
X170000D02*
D03*
X150000D02*
D03*
X130000D02*
D03*
X110000D02*
D03*
X90000D02*
D03*
X70000D02*
D03*
X50000D02*
D03*
X240000Y400000D02*
D03*
Y380000D02*
D03*
Y360000D02*
D03*
Y340000D02*
D03*
X250000Y320000D02*
D03*
X230000D02*
D03*
X210000D02*
D03*
X190000D02*
D03*
X170000D02*
D03*
X150000D02*
D03*
X130000D02*
D03*
X110000D02*
D03*
X90000D02*
D03*
X70000D02*
D03*
X50000D02*
D03*
X30000D02*
D03*
Y300000D02*
D03*
Y280000D02*
D03*
X110000Y210000D02*
D03*
X130000D02*
D03*
X150000D02*
D03*
X170000D02*
D03*
X190000D02*
D03*
X210000D02*
D03*
X240000Y190000D02*
D03*
X230000Y210000D02*
D03*
X250000D02*
D03*
X270000D02*
D03*
X290000D02*
D03*
X310000D02*
D03*
X330000D02*
D03*
X350000D02*
D03*
X370000D02*
D03*
X390000D02*
D03*
X410000D02*
D03*
X430000D02*
D03*
X450000D02*
D03*
Y190000D02*
D03*
Y170000D02*
D03*
X430000D02*
D03*
X410000D02*
D03*
X390000D02*
D03*
X370000D02*
D03*
X350000D02*
D03*
X330000D02*
D03*
X310000D02*
D03*
X290000D02*
D03*
X270000D02*
D03*
X250000D02*
D03*
X230000D02*
D03*
X210000D02*
D03*
X190000D02*
D03*
X170000D02*
D03*
X150000D02*
D03*
X130000D02*
D03*
X110000D02*
D03*
X90000D02*
D03*
X70000D02*
D03*
X90000Y210000D02*
D03*
X70000D02*
D03*
X50000D02*
D03*
X30000D02*
D03*
Y190000D02*
D03*
X50000Y170000D02*
D03*
X30000D02*
D03*
X240000Y50000D02*
D03*
X50000Y30000D02*
D03*
X70000D02*
D03*
X90000D02*
D03*
X110000D02*
D03*
X130000D02*
D03*
X150000D02*
D03*
X170000D02*
D03*
X190000D02*
D03*
X210000D02*
D03*
X230000D02*
D03*
X250000D02*
D03*
X270000D02*
D03*
X290000D02*
D03*
X310000D02*
D03*
X330000D02*
D03*
X350000D02*
D03*
X370000D02*
D03*
X390000D02*
D03*
X410000D02*
D03*
X430000D02*
D03*
X450000D02*
D03*
Y50000D02*
D03*
Y70000D02*
D03*
X430000D02*
D03*
X410000D02*
D03*
X390000D02*
D03*
X370000D02*
D03*
X350000D02*
D03*
X330000D02*
D03*
X310000D02*
D03*
X290000D02*
D03*
X270000D02*
D03*
X240000Y150000D02*
D03*
Y130000D02*
D03*
Y110000D02*
D03*
Y90000D02*
D03*
X250000Y70000D02*
D03*
X230000D02*
D03*
X210000D02*
D03*
X190000D02*
D03*
X170000D02*
D03*
X150000D02*
D03*
X130000D02*
D03*
X110000D02*
D03*
X90000D02*
D03*
X70000D02*
D03*
X50000D02*
D03*
X30000D02*
D03*
Y50000D02*
D03*
Y30000D02*
D03*
M02*
